<?xml version="1.0" encoding="utf-8" standalone="no"?>
<!DOCTYPE svg PUBLIC "-//W3C//DTD SVG 1.1//EN"
  "http://www.w3.org/Graphics/SVG/1.1/DTD/svg11.dtd">
<!-- Created with matplotlib (https://matplotlib.org/) -->
<svg height="648pt" version="1.1" viewBox="0 0 1152 648" width="1152pt" xmlns="http://www.w3.org/2000/svg" xmlns:xlink="http://www.w3.org/1999/xlink">
 <metadata>
  <rdf:RDF xmlns:cc="http://creativecommons.org/ns#" xmlns:dc="http://purl.org/dc/elements/1.1/" xmlns:rdf="http://www.w3.org/1999/02/22-rdf-syntax-ns#">
   <cc:Work>
    <dc:type rdf:resource="http://purl.org/dc/dcmitype/StillImage"/>
    <dc:date>2020-12-04T09:16:17.745925</dc:date>
    <dc:format>image/svg+xml</dc:format>
    <dc:creator>
     <cc:Agent>
      <dc:title>Matplotlib v3.3.3, https://matplotlib.org/</dc:title>
     </cc:Agent>
    </dc:creator>
   </cc:Work>
  </rdf:RDF>
 </metadata>
 <defs>
  <style type="text/css">*{stroke-linecap:butt;stroke-linejoin:round;}</style>
 </defs>
 <g id="figure_1">
  <g id="patch_1">
   <path d="M 0 648 
L 1152 648 
L 1152 0 
L 0 0 
z
" style="fill:none;"/>
  </g>
  <g id="axes_1">
   <g id="patch_2">
    <path d="M 106.8 592.2 
L 1065.45 592.2 
L 1065.45 41.275362 
L 106.8 41.275362 
z
" style="fill:none;"/>
   </g>
   <g id="matplotlib.axis_1">
    <g id="xtick_1">
     <g id="line2d_1">
      <path clip-path="url(#pe881d60fcf)" d="M 178.129777 592.2 
L 178.129777 41.275362 
" style="fill:none;stroke:#c0c0c0;stroke-linecap:square;stroke-width:0.8;"/>
     </g>
     <g id="line2d_2">
      <defs>
       <path d="M 0 0 
L 0 3.5 
" id="m73bc14252b" style="stroke:#000000;stroke-width:0.8;"/>
      </defs>
      <g>
       <use style="stroke:#000000;stroke-width:0.8;" x="178.129777" xlink:href="#m73bc14252b" y="592.2"/>
      </g>
     </g>
     <g id="text_1">
      <!-- 2020-02 -->
      <g transform="translate(144.703527 611.3575)scale(0.16 -0.16)">
       <defs>
        <path d="M 19.1875 8.296875 
L 53.609375 8.296875 
L 53.609375 0 
L 7.328125 0 
L 7.328125 8.296875 
Q 12.9375 14.109375 22.625 23.890625 
Q 32.328125 33.6875 34.8125 36.53125 
Q 39.546875 41.84375 41.421875 45.53125 
Q 43.3125 49.21875 43.3125 52.78125 
Q 43.3125 58.59375 39.234375 62.25 
Q 35.15625 65.921875 28.609375 65.921875 
Q 23.96875 65.921875 18.8125 64.3125 
Q 13.671875 62.703125 7.8125 59.421875 
L 7.8125 69.390625 
Q 13.765625 71.78125 18.9375 73 
Q 24.125 74.21875 28.421875 74.21875 
Q 39.75 74.21875 46.484375 68.546875 
Q 53.21875 62.890625 53.21875 53.421875 
Q 53.21875 48.921875 51.53125 44.890625 
Q 49.859375 40.875 45.40625 35.40625 
Q 44.1875 33.984375 37.640625 27.21875 
Q 31.109375 20.453125 19.1875 8.296875 
z
" id="DejaVuSans-50"/>
        <path d="M 31.78125 66.40625 
Q 24.171875 66.40625 20.328125 58.90625 
Q 16.5 51.421875 16.5 36.375 
Q 16.5 21.390625 20.328125 13.890625 
Q 24.171875 6.390625 31.78125 6.390625 
Q 39.453125 6.390625 43.28125 13.890625 
Q 47.125 21.390625 47.125 36.375 
Q 47.125 51.421875 43.28125 58.90625 
Q 39.453125 66.40625 31.78125 66.40625 
z
M 31.78125 74.21875 
Q 44.046875 74.21875 50.515625 64.515625 
Q 56.984375 54.828125 56.984375 36.375 
Q 56.984375 17.96875 50.515625 8.265625 
Q 44.046875 -1.421875 31.78125 -1.421875 
Q 19.53125 -1.421875 13.0625 8.265625 
Q 6.59375 17.96875 6.59375 36.375 
Q 6.59375 54.828125 13.0625 64.515625 
Q 19.53125 74.21875 31.78125 74.21875 
z
" id="DejaVuSans-48"/>
        <path d="M 4.890625 31.390625 
L 31.203125 31.390625 
L 31.203125 23.390625 
L 4.890625 23.390625 
z
" id="DejaVuSans-45"/>
       </defs>
       <use xlink:href="#DejaVuSans-50"/>
       <use x="63.623047" xlink:href="#DejaVuSans-48"/>
       <use x="127.246094" xlink:href="#DejaVuSans-50"/>
       <use x="190.869141" xlink:href="#DejaVuSans-48"/>
       <use x="254.492188" xlink:href="#DejaVuSans-45"/>
       <use x="290.576172" xlink:href="#DejaVuSans-48"/>
       <use x="354.199219" xlink:href="#DejaVuSans-50"/>
      </g>
     </g>
    </g>
    <g id="xtick_2">
     <g id="line2d_3">
      <path clip-path="url(#pe881d60fcf)" d="M 258.618631 592.2 
L 258.618631 41.275362 
" style="fill:none;stroke:#c0c0c0;stroke-linecap:square;stroke-width:0.8;"/>
     </g>
     <g id="line2d_4">
      <g>
       <use style="stroke:#000000;stroke-width:0.8;" x="258.618631" xlink:href="#m73bc14252b" y="592.2"/>
      </g>
     </g>
     <g id="text_2">
      <!-- 2020-03 -->
      <g transform="translate(225.192381 611.3575)scale(0.16 -0.16)">
       <defs>
        <path d="M 40.578125 39.3125 
Q 47.65625 37.796875 51.625 33 
Q 55.609375 28.21875 55.609375 21.1875 
Q 55.609375 10.40625 48.1875 4.484375 
Q 40.765625 -1.421875 27.09375 -1.421875 
Q 22.515625 -1.421875 17.65625 -0.515625 
Q 12.796875 0.390625 7.625 2.203125 
L 7.625 11.71875 
Q 11.71875 9.328125 16.59375 8.109375 
Q 21.484375 6.890625 26.8125 6.890625 
Q 36.078125 6.890625 40.9375 10.546875 
Q 45.796875 14.203125 45.796875 21.1875 
Q 45.796875 27.640625 41.28125 31.265625 
Q 36.765625 34.90625 28.71875 34.90625 
L 20.21875 34.90625 
L 20.21875 43.015625 
L 29.109375 43.015625 
Q 36.375 43.015625 40.234375 45.921875 
Q 44.09375 48.828125 44.09375 54.296875 
Q 44.09375 59.90625 40.109375 62.90625 
Q 36.140625 65.921875 28.71875 65.921875 
Q 24.65625 65.921875 20.015625 65.03125 
Q 15.375 64.15625 9.8125 62.3125 
L 9.8125 71.09375 
Q 15.4375 72.65625 20.34375 73.4375 
Q 25.25 74.21875 29.59375 74.21875 
Q 40.828125 74.21875 47.359375 69.109375 
Q 53.90625 64.015625 53.90625 55.328125 
Q 53.90625 49.265625 50.4375 45.09375 
Q 46.96875 40.921875 40.578125 39.3125 
z
" id="DejaVuSans-51"/>
       </defs>
       <use xlink:href="#DejaVuSans-50"/>
       <use x="63.623047" xlink:href="#DejaVuSans-48"/>
       <use x="127.246094" xlink:href="#DejaVuSans-50"/>
       <use x="190.869141" xlink:href="#DejaVuSans-48"/>
       <use x="254.492188" xlink:href="#DejaVuSans-45"/>
       <use x="290.576172" xlink:href="#DejaVuSans-48"/>
       <use x="354.199219" xlink:href="#DejaVuSans-51"/>
      </g>
     </g>
    </g>
    <g id="xtick_3">
     <g id="line2d_5">
      <path clip-path="url(#pe881d60fcf)" d="M 344.658439 592.2 
L 344.658439 41.275362 
" style="fill:none;stroke:#c0c0c0;stroke-linecap:square;stroke-width:0.8;"/>
     </g>
     <g id="line2d_6">
      <g>
       <use style="stroke:#000000;stroke-width:0.8;" x="344.658439" xlink:href="#m73bc14252b" y="592.2"/>
      </g>
     </g>
     <g id="text_3">
      <!-- 2020-04 -->
      <g transform="translate(311.232189 611.3575)scale(0.16 -0.16)">
       <defs>
        <path d="M 37.796875 64.3125 
L 12.890625 25.390625 
L 37.796875 25.390625 
z
M 35.203125 72.90625 
L 47.609375 72.90625 
L 47.609375 25.390625 
L 58.015625 25.390625 
L 58.015625 17.1875 
L 47.609375 17.1875 
L 47.609375 0 
L 37.796875 0 
L 37.796875 17.1875 
L 4.890625 17.1875 
L 4.890625 26.703125 
z
" id="DejaVuSans-52"/>
       </defs>
       <use xlink:href="#DejaVuSans-50"/>
       <use x="63.623047" xlink:href="#DejaVuSans-48"/>
       <use x="127.246094" xlink:href="#DejaVuSans-50"/>
       <use x="190.869141" xlink:href="#DejaVuSans-48"/>
       <use x="254.492188" xlink:href="#DejaVuSans-45"/>
       <use x="290.576172" xlink:href="#DejaVuSans-48"/>
       <use x="354.199219" xlink:href="#DejaVuSans-52"/>
      </g>
     </g>
    </g>
    <g id="xtick_4">
     <g id="line2d_7">
      <path clip-path="url(#pe881d60fcf)" d="M 427.922771 592.2 
L 427.922771 41.275362 
" style="fill:none;stroke:#c0c0c0;stroke-linecap:square;stroke-width:0.8;"/>
     </g>
     <g id="line2d_8">
      <g>
       <use style="stroke:#000000;stroke-width:0.8;" x="427.922771" xlink:href="#m73bc14252b" y="592.2"/>
      </g>
     </g>
     <g id="text_4">
      <!-- 2020-05 -->
      <g transform="translate(394.496521 611.3575)scale(0.16 -0.16)">
       <defs>
        <path d="M 10.796875 72.90625 
L 49.515625 72.90625 
L 49.515625 64.59375 
L 19.828125 64.59375 
L 19.828125 46.734375 
Q 21.96875 47.46875 24.109375 47.828125 
Q 26.265625 48.1875 28.421875 48.1875 
Q 40.625 48.1875 47.75 41.5 
Q 54.890625 34.8125 54.890625 23.390625 
Q 54.890625 11.625 47.5625 5.09375 
Q 40.234375 -1.421875 26.90625 -1.421875 
Q 22.3125 -1.421875 17.546875 -0.640625 
Q 12.796875 0.140625 7.71875 1.703125 
L 7.71875 11.625 
Q 12.109375 9.234375 16.796875 8.0625 
Q 21.484375 6.890625 26.703125 6.890625 
Q 35.15625 6.890625 40.078125 11.328125 
Q 45.015625 15.765625 45.015625 23.390625 
Q 45.015625 31 40.078125 35.4375 
Q 35.15625 39.890625 26.703125 39.890625 
Q 22.75 39.890625 18.8125 39.015625 
Q 14.890625 38.140625 10.796875 36.28125 
z
" id="DejaVuSans-53"/>
       </defs>
       <use xlink:href="#DejaVuSans-50"/>
       <use x="63.623047" xlink:href="#DejaVuSans-48"/>
       <use x="127.246094" xlink:href="#DejaVuSans-50"/>
       <use x="190.869141" xlink:href="#DejaVuSans-48"/>
       <use x="254.492188" xlink:href="#DejaVuSans-45"/>
       <use x="290.576172" xlink:href="#DejaVuSans-48"/>
       <use x="354.199219" xlink:href="#DejaVuSans-53"/>
      </g>
     </g>
    </g>
    <g id="xtick_5">
     <g id="line2d_9">
      <path clip-path="url(#pe881d60fcf)" d="M 513.96258 592.2 
L 513.96258 41.275362 
" style="fill:none;stroke:#c0c0c0;stroke-linecap:square;stroke-width:0.8;"/>
     </g>
     <g id="line2d_10">
      <g>
       <use style="stroke:#000000;stroke-width:0.8;" x="513.96258" xlink:href="#m73bc14252b" y="592.2"/>
      </g>
     </g>
     <g id="text_5">
      <!-- 2020-06 -->
      <g transform="translate(480.53633 611.3575)scale(0.16 -0.16)">
       <defs>
        <path d="M 33.015625 40.375 
Q 26.375 40.375 22.484375 35.828125 
Q 18.609375 31.296875 18.609375 23.390625 
Q 18.609375 15.53125 22.484375 10.953125 
Q 26.375 6.390625 33.015625 6.390625 
Q 39.65625 6.390625 43.53125 10.953125 
Q 47.40625 15.53125 47.40625 23.390625 
Q 47.40625 31.296875 43.53125 35.828125 
Q 39.65625 40.375 33.015625 40.375 
z
M 52.59375 71.296875 
L 52.59375 62.3125 
Q 48.875 64.0625 45.09375 64.984375 
Q 41.3125 65.921875 37.59375 65.921875 
Q 27.828125 65.921875 22.671875 59.328125 
Q 17.53125 52.734375 16.796875 39.40625 
Q 19.671875 43.65625 24.015625 45.921875 
Q 28.375 48.1875 33.59375 48.1875 
Q 44.578125 48.1875 50.953125 41.515625 
Q 57.328125 34.859375 57.328125 23.390625 
Q 57.328125 12.15625 50.6875 5.359375 
Q 44.046875 -1.421875 33.015625 -1.421875 
Q 20.359375 -1.421875 13.671875 8.265625 
Q 6.984375 17.96875 6.984375 36.375 
Q 6.984375 53.65625 15.1875 63.9375 
Q 23.390625 74.21875 37.203125 74.21875 
Q 40.921875 74.21875 44.703125 73.484375 
Q 48.484375 72.75 52.59375 71.296875 
z
" id="DejaVuSans-54"/>
       </defs>
       <use xlink:href="#DejaVuSans-50"/>
       <use x="63.623047" xlink:href="#DejaVuSans-48"/>
       <use x="127.246094" xlink:href="#DejaVuSans-50"/>
       <use x="190.869141" xlink:href="#DejaVuSans-48"/>
       <use x="254.492188" xlink:href="#DejaVuSans-45"/>
       <use x="290.576172" xlink:href="#DejaVuSans-48"/>
       <use x="354.199219" xlink:href="#DejaVuSans-54"/>
      </g>
     </g>
    </g>
    <g id="xtick_6">
     <g id="line2d_11">
      <path clip-path="url(#pe881d60fcf)" d="M 597.226911 592.2 
L 597.226911 41.275362 
" style="fill:none;stroke:#c0c0c0;stroke-linecap:square;stroke-width:0.8;"/>
     </g>
     <g id="line2d_12">
      <g>
       <use style="stroke:#000000;stroke-width:0.8;" x="597.226911" xlink:href="#m73bc14252b" y="592.2"/>
      </g>
     </g>
     <g id="text_6">
      <!-- 2020-07 -->
      <g transform="translate(563.800661 611.3575)scale(0.16 -0.16)">
       <defs>
        <path d="M 8.203125 72.90625 
L 55.078125 72.90625 
L 55.078125 68.703125 
L 28.609375 0 
L 18.3125 0 
L 43.21875 64.59375 
L 8.203125 64.59375 
z
" id="DejaVuSans-55"/>
       </defs>
       <use xlink:href="#DejaVuSans-50"/>
       <use x="63.623047" xlink:href="#DejaVuSans-48"/>
       <use x="127.246094" xlink:href="#DejaVuSans-50"/>
       <use x="190.869141" xlink:href="#DejaVuSans-48"/>
       <use x="254.492188" xlink:href="#DejaVuSans-45"/>
       <use x="290.576172" xlink:href="#DejaVuSans-48"/>
       <use x="354.199219" xlink:href="#DejaVuSans-55"/>
      </g>
     </g>
    </g>
    <g id="xtick_7">
     <g id="line2d_13">
      <path clip-path="url(#pe881d60fcf)" d="M 683.26672 592.2 
L 683.26672 41.275362 
" style="fill:none;stroke:#c0c0c0;stroke-linecap:square;stroke-width:0.8;"/>
     </g>
     <g id="line2d_14">
      <g>
       <use style="stroke:#000000;stroke-width:0.8;" x="683.26672" xlink:href="#m73bc14252b" y="592.2"/>
      </g>
     </g>
     <g id="text_7">
      <!-- 2020-08 -->
      <g transform="translate(649.84047 611.3575)scale(0.16 -0.16)">
       <defs>
        <path d="M 31.78125 34.625 
Q 24.75 34.625 20.71875 30.859375 
Q 16.703125 27.09375 16.703125 20.515625 
Q 16.703125 13.921875 20.71875 10.15625 
Q 24.75 6.390625 31.78125 6.390625 
Q 38.8125 6.390625 42.859375 10.171875 
Q 46.921875 13.96875 46.921875 20.515625 
Q 46.921875 27.09375 42.890625 30.859375 
Q 38.875 34.625 31.78125 34.625 
z
M 21.921875 38.8125 
Q 15.578125 40.375 12.03125 44.71875 
Q 8.5 49.078125 8.5 55.328125 
Q 8.5 64.0625 14.71875 69.140625 
Q 20.953125 74.21875 31.78125 74.21875 
Q 42.671875 74.21875 48.875 69.140625 
Q 55.078125 64.0625 55.078125 55.328125 
Q 55.078125 49.078125 51.53125 44.71875 
Q 48 40.375 41.703125 38.8125 
Q 48.828125 37.15625 52.796875 32.3125 
Q 56.78125 27.484375 56.78125 20.515625 
Q 56.78125 9.90625 50.3125 4.234375 
Q 43.84375 -1.421875 31.78125 -1.421875 
Q 19.734375 -1.421875 13.25 4.234375 
Q 6.78125 9.90625 6.78125 20.515625 
Q 6.78125 27.484375 10.78125 32.3125 
Q 14.796875 37.15625 21.921875 38.8125 
z
M 18.3125 54.390625 
Q 18.3125 48.734375 21.84375 45.5625 
Q 25.390625 42.390625 31.78125 42.390625 
Q 38.140625 42.390625 41.71875 45.5625 
Q 45.3125 48.734375 45.3125 54.390625 
Q 45.3125 60.0625 41.71875 63.234375 
Q 38.140625 66.40625 31.78125 66.40625 
Q 25.390625 66.40625 21.84375 63.234375 
Q 18.3125 60.0625 18.3125 54.390625 
z
" id="DejaVuSans-56"/>
       </defs>
       <use xlink:href="#DejaVuSans-50"/>
       <use x="63.623047" xlink:href="#DejaVuSans-48"/>
       <use x="127.246094" xlink:href="#DejaVuSans-50"/>
       <use x="190.869141" xlink:href="#DejaVuSans-48"/>
       <use x="254.492188" xlink:href="#DejaVuSans-45"/>
       <use x="290.576172" xlink:href="#DejaVuSans-48"/>
       <use x="354.199219" xlink:href="#DejaVuSans-56"/>
      </g>
     </g>
    </g>
    <g id="xtick_8">
     <g id="line2d_15">
      <path clip-path="url(#pe881d60fcf)" d="M 769.306529 592.2 
L 769.306529 41.275362 
" style="fill:none;stroke:#c0c0c0;stroke-linecap:square;stroke-width:0.8;"/>
     </g>
     <g id="line2d_16">
      <g>
       <use style="stroke:#000000;stroke-width:0.8;" x="769.306529" xlink:href="#m73bc14252b" y="592.2"/>
      </g>
     </g>
     <g id="text_8">
      <!-- 2020-09 -->
      <g transform="translate(735.880279 611.3575)scale(0.16 -0.16)">
       <defs>
        <path d="M 10.984375 1.515625 
L 10.984375 10.5 
Q 14.703125 8.734375 18.5 7.8125 
Q 22.3125 6.890625 25.984375 6.890625 
Q 35.75 6.890625 40.890625 13.453125 
Q 46.046875 20.015625 46.78125 33.40625 
Q 43.953125 29.203125 39.59375 26.953125 
Q 35.25 24.703125 29.984375 24.703125 
Q 19.046875 24.703125 12.671875 31.3125 
Q 6.296875 37.9375 6.296875 49.421875 
Q 6.296875 60.640625 12.9375 67.421875 
Q 19.578125 74.21875 30.609375 74.21875 
Q 43.265625 74.21875 49.921875 64.515625 
Q 56.59375 54.828125 56.59375 36.375 
Q 56.59375 19.140625 48.40625 8.859375 
Q 40.234375 -1.421875 26.421875 -1.421875 
Q 22.703125 -1.421875 18.890625 -0.6875 
Q 15.09375 0.046875 10.984375 1.515625 
z
M 30.609375 32.421875 
Q 37.25 32.421875 41.125 36.953125 
Q 45.015625 41.5 45.015625 49.421875 
Q 45.015625 57.28125 41.125 61.84375 
Q 37.25 66.40625 30.609375 66.40625 
Q 23.96875 66.40625 20.09375 61.84375 
Q 16.21875 57.28125 16.21875 49.421875 
Q 16.21875 41.5 20.09375 36.953125 
Q 23.96875 32.421875 30.609375 32.421875 
z
" id="DejaVuSans-57"/>
       </defs>
       <use xlink:href="#DejaVuSans-50"/>
       <use x="63.623047" xlink:href="#DejaVuSans-48"/>
       <use x="127.246094" xlink:href="#DejaVuSans-50"/>
       <use x="190.869141" xlink:href="#DejaVuSans-48"/>
       <use x="254.492188" xlink:href="#DejaVuSans-45"/>
       <use x="290.576172" xlink:href="#DejaVuSans-48"/>
       <use x="354.199219" xlink:href="#DejaVuSans-57"/>
      </g>
     </g>
    </g>
    <g id="xtick_9">
     <g id="line2d_17">
      <path clip-path="url(#pe881d60fcf)" d="M 852.57086 592.2 
L 852.57086 41.275362 
" style="fill:none;stroke:#c0c0c0;stroke-linecap:square;stroke-width:0.8;"/>
     </g>
     <g id="line2d_18">
      <g>
       <use style="stroke:#000000;stroke-width:0.8;" x="852.57086" xlink:href="#m73bc14252b" y="592.2"/>
      </g>
     </g>
     <g id="text_9">
      <!-- 2020-10 -->
      <g transform="translate(819.14461 611.3575)scale(0.16 -0.16)">
       <defs>
        <path d="M 12.40625 8.296875 
L 28.515625 8.296875 
L 28.515625 63.921875 
L 10.984375 60.40625 
L 10.984375 69.390625 
L 28.421875 72.90625 
L 38.28125 72.90625 
L 38.28125 8.296875 
L 54.390625 8.296875 
L 54.390625 0 
L 12.40625 0 
z
" id="DejaVuSans-49"/>
       </defs>
       <use xlink:href="#DejaVuSans-50"/>
       <use x="63.623047" xlink:href="#DejaVuSans-48"/>
       <use x="127.246094" xlink:href="#DejaVuSans-50"/>
       <use x="190.869141" xlink:href="#DejaVuSans-48"/>
       <use x="254.492188" xlink:href="#DejaVuSans-45"/>
       <use x="290.576172" xlink:href="#DejaVuSans-49"/>
       <use x="354.199219" xlink:href="#DejaVuSans-48"/>
      </g>
     </g>
    </g>
    <g id="xtick_10">
     <g id="line2d_19">
      <path clip-path="url(#pe881d60fcf)" d="M 938.610669 592.2 
L 938.610669 41.275362 
" style="fill:none;stroke:#c0c0c0;stroke-linecap:square;stroke-width:0.8;"/>
     </g>
     <g id="line2d_20">
      <g>
       <use style="stroke:#000000;stroke-width:0.8;" x="938.610669" xlink:href="#m73bc14252b" y="592.2"/>
      </g>
     </g>
     <g id="text_10">
      <!-- 2020-11 -->
      <g transform="translate(905.184419 611.3575)scale(0.16 -0.16)">
       <use xlink:href="#DejaVuSans-50"/>
       <use x="63.623047" xlink:href="#DejaVuSans-48"/>
       <use x="127.246094" xlink:href="#DejaVuSans-50"/>
       <use x="190.869141" xlink:href="#DejaVuSans-48"/>
       <use x="254.492188" xlink:href="#DejaVuSans-45"/>
       <use x="290.576172" xlink:href="#DejaVuSans-49"/>
       <use x="354.199219" xlink:href="#DejaVuSans-49"/>
      </g>
     </g>
    </g>
    <g id="xtick_11">
     <g id="line2d_21">
      <path clip-path="url(#pe881d60fcf)" d="M 1021.875 592.2 
L 1021.875 41.275362 
" style="fill:none;stroke:#c0c0c0;stroke-linecap:square;stroke-width:0.8;"/>
     </g>
     <g id="line2d_22">
      <g>
       <use style="stroke:#000000;stroke-width:0.8;" x="1021.875" xlink:href="#m73bc14252b" y="592.2"/>
      </g>
     </g>
     <g id="text_11">
      <!-- 2020-12 -->
      <g transform="translate(988.44875 611.3575)scale(0.16 -0.16)">
       <use xlink:href="#DejaVuSans-50"/>
       <use x="63.623047" xlink:href="#DejaVuSans-48"/>
       <use x="127.246094" xlink:href="#DejaVuSans-50"/>
       <use x="190.869141" xlink:href="#DejaVuSans-48"/>
       <use x="254.492188" xlink:href="#DejaVuSans-45"/>
       <use x="290.576172" xlink:href="#DejaVuSans-49"/>
       <use x="354.199219" xlink:href="#DejaVuSans-50"/>
      </g>
     </g>
    </g>
    <g id="text_12">
     <!-- date -->
     <g transform="translate(566.164063 634.36625)scale(0.2 -0.2)">
      <defs>
       <path d="M 41.90625 78.40625 
L 49.59375 78.40625 
L 49.59375 0 
L 42.703125 0 
L 42 8.703125 
Q 40.59375 6.703125 39.1875 5.140625 
Q 37.796875 3.59375 36.40625 2.5 
Q 31.40625 -1.296875 24.796875 -1.296875 
Q 14.5 -1.296875 7.703125 6.703125 
Q 1 14.703125 1 26.09375 
Q 1 37.90625 8.09375 46.203125 
Q 15.296875 54.703125 26.09375 54.703125 
Q 30.59375 54.703125 34.5 53.09375 
Q 35.90625 52.5 37.75 51.5 
Q 39.59375 50.5 41.90625 49.09375 
z
M 41.90625 25.90625 
L 41.90625 41.296875 
Q 37.203125 45.40625 33.703125 46.796875 
Q 30.203125 48.203125 26.90625 48.203125 
Q 18.703125 48.203125 13.59375 41.296875 
Q 8.796875 34.796875 8.796875 26.203125 
Q 8.796875 17 14.09375 10.90625 
Q 19 5.296875 25.703125 5.296875 
Q 32.296875 5.296875 37.09375 11.09375 
Q 41.90625 16.90625 41.90625 25.90625 
z
" id="AppleGothic-100"/>
       <path d="M 46.09375 34.59375 
L 46.09375 9.40625 
Q 46.09375 7.703125 46.84375 6.453125 
Q 47.59375 5.203125 49.59375 5.203125 
Q 50.203125 5.203125 50.59375 5.25 
Q 51 5.296875 51.40625 5.40625 
Q 52 5.59375 52.453125 5.796875 
Q 52.90625 6 53.203125 6.09375 
L 53.203125 0.5 
Q 51.40625 -0.09375 49.59375 -0.34375 
Q 47.796875 -0.59375 46.796875 -0.59375 
Q 41.703125 -0.59375 40.09375 2.09375 
Q 38.796875 3.796875 38.796875 9.40625 
Q 37.5 7.203125 36.203125 5.546875 
Q 34.90625 3.90625 33.59375 2.796875 
Q 28.40625 -1.296875 21.5 -1.296875 
Q 14.203125 -1.296875 8.796875 3 
Q 3.203125 7.59375 3.203125 14.703125 
Q 3.203125 23.59375 12.203125 27.796875 
Q 15.5 29.40625 20.953125 30.59375 
Q 26.40625 31.796875 34 32.796875 
L 38.796875 33.296875 
Q 38.796875 40.296875 35.25 44.25 
Q 31.703125 48.203125 24.796875 48.203125 
Q 22.203125 48.203125 19.640625 47.546875 
Q 17.09375 46.90625 14.5 45.5 
Q 13.09375 44.703125 11.390625 43.59375 
Q 9.703125 42.5 7.703125 40.796875 
L 7.703125 49 
Q 16.203125 54.703125 26 54.703125 
Q 36 54.703125 41.40625 48.40625 
Q 46.09375 42.90625 46.09375 34.59375 
z
M 38.796875 24.09375 
L 38.796875 27.296875 
L 35.40625 26.90625 
Q 22.90625 25.59375 17.796875 23.40625 
Q 11 20.703125 11 14.59375 
Q 11 12.796875 11.796875 11.140625 
Q 12.59375 9.5 14 8.203125 
Q 15.40625 6.90625 17.453125 6.09375 
Q 19.5 5.296875 22 5.296875 
Q 28.796875 5.296875 33.90625 10.796875 
Q 38.796875 16.40625 38.796875 24.09375 
z
" id="AppleGothic-97"/>
       <path d="M 10.796875 69.296875 
L 17.40625 69.296875 
L 17.40625 53.59375 
L 31.5 53.59375 
L 31.5 47.09375 
L 17.40625 47.09375 
L 17.40625 13.09375 
Q 17.40625 8.90625 18.953125 7.09375 
Q 20.5 5.296875 24.296875 5.296875 
Q 26.5 5.296875 28.046875 5.796875 
Q 29.59375 6.296875 31.5 7.09375 
L 31.5 0.59375 
Q 29.90625 0.09375 27.65625 -0.34375 
Q 25.40625 -0.796875 23.09375 -0.796875 
Q 17.09375 -0.796875 13.796875 1.90625 
Q 10.09375 4.703125 10.09375 10.90625 
L 10.09375 47.09375 
L 1.09375 47.09375 
L 1.09375 53.59375 
L 10.09375 53.59375 
z
" id="AppleGothic-116"/>
       <path d="M 51.5 28.90625 
L 10.796875 28.90625 
Q 10.796875 17.40625 16.140625 11.34375 
Q 21.5 5.296875 30.203125 5.296875 
Q 36.796875 5.296875 42.90625 9.5 
Q 44.59375 10.59375 46.5 12.25 
Q 48.40625 13.90625 50.59375 16.09375 
L 50.59375 7.40625 
Q 48.203125 5.59375 46.140625 4.25 
Q 44.09375 2.90625 42.296875 2 
Q 36 -1.296875 29.703125 -1.296875 
Q 18.796875 -1.296875 11.203125 6.203125 
Q 3 14.09375 3 26.703125 
Q 3 38.59375 10.40625 46.59375 
Q 17.90625 54.703125 28.90625 54.703125 
Q 39.59375 54.703125 45.90625 46.90625 
Q 51.5 39.796875 51.5 28.90625 
z
M 11.796875 35 
L 43.09375 35 
Q 41.90625 41.796875 37.953125 45.140625 
Q 34 48.5 28.40625 48.5 
Q 22.203125 48.5 17.90625 44.59375 
Q 13.90625 41 11.796875 35 
z
" id="AppleGothic-101"/>
      </defs>
      <use xlink:href="#AppleGothic-100"/>
      <use x="53.999985" xlink:href="#AppleGothic-97"/>
      <use x="110.499969" xlink:href="#AppleGothic-116"/>
      <use x="144.699966" xlink:href="#AppleGothic-101"/>
     </g>
    </g>
   </g>
   <g id="matplotlib.axis_2">
    <g id="ytick_1">
     <g id="line2d_23">
      <defs>
       <path d="M 0 0 
L -3.5 0 
" id="mdcdd56dab3" style="stroke:#0000ff;stroke-width:0.8;"/>
      </defs>
      <g>
       <use style="fill:#0000ff;stroke:#0000ff;stroke-width:0.8;" x="106.8" xlink:href="#mdcdd56dab3" y="567.157971"/>
      </g>
     </g>
     <g id="text_13">
      <!-- 0 -->
      <g style="fill:#0000ff;" transform="translate(89.62 573.236721)scale(0.16 -0.16)">
       <use xlink:href="#DejaVuSans-48"/>
      </g>
     </g>
    </g>
    <g id="ytick_2">
     <g id="line2d_24">
      <g>
       <use style="fill:#0000ff;stroke:#0000ff;stroke-width:0.8;" x="106.8" xlink:href="#mdcdd56dab3" y="502.172143"/>
      </g>
     </g>
     <g id="text_14">
      <!-- 25,000 -->
      <g style="fill:#0000ff;" transform="translate(43.815 508.250893)scale(0.16 -0.16)">
       <defs>
        <path d="M 11.71875 12.40625 
L 22.015625 12.40625 
L 22.015625 4 
L 14.015625 -11.625 
L 7.71875 -11.625 
L 11.71875 4 
z
" id="DejaVuSans-44"/>
       </defs>
       <use xlink:href="#DejaVuSans-50"/>
       <use x="63.623047" xlink:href="#DejaVuSans-53"/>
       <use x="127.246094" xlink:href="#DejaVuSans-44"/>
       <use x="159.033203" xlink:href="#DejaVuSans-48"/>
       <use x="222.65625" xlink:href="#DejaVuSans-48"/>
       <use x="286.279297" xlink:href="#DejaVuSans-48"/>
      </g>
     </g>
    </g>
    <g id="ytick_3">
     <g id="line2d_25">
      <g>
       <use style="fill:#0000ff;stroke:#0000ff;stroke-width:0.8;" x="106.8" xlink:href="#mdcdd56dab3" y="437.186314"/>
      </g>
     </g>
     <g id="text_15">
      <!-- 50,000 -->
      <g style="fill:#0000ff;" transform="translate(43.815 443.265064)scale(0.16 -0.16)">
       <use xlink:href="#DejaVuSans-53"/>
       <use x="63.623047" xlink:href="#DejaVuSans-48"/>
       <use x="127.246094" xlink:href="#DejaVuSans-44"/>
       <use x="159.033203" xlink:href="#DejaVuSans-48"/>
       <use x="222.65625" xlink:href="#DejaVuSans-48"/>
       <use x="286.279297" xlink:href="#DejaVuSans-48"/>
      </g>
     </g>
    </g>
    <g id="ytick_4">
     <g id="line2d_26">
      <g>
       <use style="fill:#0000ff;stroke:#0000ff;stroke-width:0.8;" x="106.8" xlink:href="#mdcdd56dab3" y="372.200486"/>
      </g>
     </g>
     <g id="text_16">
      <!-- 75,000 -->
      <g style="fill:#0000ff;" transform="translate(43.815 378.279236)scale(0.16 -0.16)">
       <use xlink:href="#DejaVuSans-55"/>
       <use x="63.623047" xlink:href="#DejaVuSans-53"/>
       <use x="127.246094" xlink:href="#DejaVuSans-44"/>
       <use x="159.033203" xlink:href="#DejaVuSans-48"/>
       <use x="222.65625" xlink:href="#DejaVuSans-48"/>
       <use x="286.279297" xlink:href="#DejaVuSans-48"/>
      </g>
     </g>
    </g>
    <g id="ytick_5">
     <g id="line2d_27">
      <g>
       <use style="fill:#0000ff;stroke:#0000ff;stroke-width:0.8;" x="106.8" xlink:href="#mdcdd56dab3" y="307.214658"/>
      </g>
     </g>
     <g id="text_17">
      <!-- 100,000 -->
      <g style="fill:#0000ff;" transform="translate(33.635 313.293408)scale(0.16 -0.16)">
       <use xlink:href="#DejaVuSans-49"/>
       <use x="63.623047" xlink:href="#DejaVuSans-48"/>
       <use x="127.246094" xlink:href="#DejaVuSans-48"/>
       <use x="190.869141" xlink:href="#DejaVuSans-44"/>
       <use x="222.65625" xlink:href="#DejaVuSans-48"/>
       <use x="286.279297" xlink:href="#DejaVuSans-48"/>
       <use x="349.902344" xlink:href="#DejaVuSans-48"/>
      </g>
     </g>
    </g>
    <g id="ytick_6">
     <g id="line2d_28">
      <g>
       <use style="fill:#0000ff;stroke:#0000ff;stroke-width:0.8;" x="106.8" xlink:href="#mdcdd56dab3" y="242.228829"/>
      </g>
     </g>
     <g id="text_18">
      <!-- 125,000 -->
      <g style="fill:#0000ff;" transform="translate(33.635 248.307579)scale(0.16 -0.16)">
       <use xlink:href="#DejaVuSans-49"/>
       <use x="63.623047" xlink:href="#DejaVuSans-50"/>
       <use x="127.246094" xlink:href="#DejaVuSans-53"/>
       <use x="190.869141" xlink:href="#DejaVuSans-44"/>
       <use x="222.65625" xlink:href="#DejaVuSans-48"/>
       <use x="286.279297" xlink:href="#DejaVuSans-48"/>
       <use x="349.902344" xlink:href="#DejaVuSans-48"/>
      </g>
     </g>
    </g>
    <g id="ytick_7">
     <g id="line2d_29">
      <g>
       <use style="fill:#0000ff;stroke:#0000ff;stroke-width:0.8;" x="106.8" xlink:href="#mdcdd56dab3" y="177.243001"/>
      </g>
     </g>
     <g id="text_19">
      <!-- 150,000 -->
      <g style="fill:#0000ff;" transform="translate(33.635 183.321751)scale(0.16 -0.16)">
       <use xlink:href="#DejaVuSans-49"/>
       <use x="63.623047" xlink:href="#DejaVuSans-53"/>
       <use x="127.246094" xlink:href="#DejaVuSans-48"/>
       <use x="190.869141" xlink:href="#DejaVuSans-44"/>
       <use x="222.65625" xlink:href="#DejaVuSans-48"/>
       <use x="286.279297" xlink:href="#DejaVuSans-48"/>
       <use x="349.902344" xlink:href="#DejaVuSans-48"/>
      </g>
     </g>
    </g>
    <g id="ytick_8">
     <g id="line2d_30">
      <g>
       <use style="fill:#0000ff;stroke:#0000ff;stroke-width:0.8;" x="106.8" xlink:href="#mdcdd56dab3" y="112.257172"/>
      </g>
     </g>
     <g id="text_20">
      <!-- 175,000 -->
      <g style="fill:#0000ff;" transform="translate(33.635 118.335922)scale(0.16 -0.16)">
       <use xlink:href="#DejaVuSans-49"/>
       <use x="63.623047" xlink:href="#DejaVuSans-55"/>
       <use x="127.246094" xlink:href="#DejaVuSans-53"/>
       <use x="190.869141" xlink:href="#DejaVuSans-44"/>
       <use x="222.65625" xlink:href="#DejaVuSans-48"/>
       <use x="286.279297" xlink:href="#DejaVuSans-48"/>
       <use x="349.902344" xlink:href="#DejaVuSans-48"/>
      </g>
     </g>
    </g>
    <g id="ytick_9">
     <g id="line2d_31">
      <g>
       <use style="fill:#0000ff;stroke:#0000ff;stroke-width:0.8;" x="106.8" xlink:href="#mdcdd56dab3" y="47.271344"/>
      </g>
     </g>
     <g id="text_21">
      <!-- 200,000 -->
      <g style="fill:#0000ff;" transform="translate(33.635 53.350094)scale(0.16 -0.16)">
       <use xlink:href="#DejaVuSans-50"/>
       <use x="63.623047" xlink:href="#DejaVuSans-48"/>
       <use x="127.246094" xlink:href="#DejaVuSans-48"/>
       <use x="190.869141" xlink:href="#DejaVuSans-44"/>
       <use x="222.65625" xlink:href="#DejaVuSans-48"/>
       <use x="286.279297" xlink:href="#DejaVuSans-48"/>
       <use x="349.902344" xlink:href="#DejaVuSans-48"/>
      </g>
     </g>
    </g>
    <g id="text_22">
     <!-- cases -->
     <g style="fill:#0000ff;" transform="translate(26.194375 342.987681)rotate(-90)scale(0.2 -0.2)">
      <defs>
       <path d="M 48.203125 48.796875 
L 48.203125 39.40625 
Q 42.59375 44.703125 36.703125 47 
Q 35 47.703125 33.203125 47.953125 
Q 31.40625 48.203125 29.59375 48.203125 
Q 21.296875 48.203125 16 42 
Q 10.703125 35.59375 10.703125 26.796875 
Q 10.703125 17.796875 16.203125 11.40625 
Q 21.703125 5.296875 30 5.296875 
Q 35.203125 5.296875 39.5 7.546875 
Q 43.796875 9.796875 48.203125 14.296875 
L 48.203125 4.796875 
Q 42.90625 1.5 38.59375 0.09375 
Q 34.296875 -1.296875 29.90625 -1.296875 
Q 18.703125 -1.296875 10.703125 6.703125 
Q 2.90625 15 2.90625 26.703125 
Q 2.90625 38.203125 10.59375 46.5 
Q 18.40625 54.703125 30 54.703125 
Q 35.90625 54.703125 41 52.703125 
Q 44 51.59375 48.203125 48.796875 
z
" id="AppleGothic-99"/>
       <path d="M 3.5 4.59375 
L 3.5 13.296875 
Q 9.703125 8.296875 16.09375 6.296875 
Q 18 5.796875 19.796875 5.546875 
Q 21.59375 5.296875 23.5 5.296875 
Q 29.59375 5.296875 33.59375 8.09375 
Q 37.703125 11.09375 37.703125 14.796875 
Q 37.703125 16.796875 36.203125 18.90625 
Q 34.09375 21.5 25 23.59375 
Q 14.203125 26.296875 10.59375 28.09375 
Q 3.59375 32.09375 3.59375 39.296875 
Q 3.59375 46 9.40625 50.296875 
Q 15.296875 54.703125 24.09375 54.703125 
Q 28.09375 54.703125 31.296875 54 
Q 34.5 53.296875 37.296875 52.140625 
Q 40.09375 51 42.5 49.296875 
L 42.5 40.59375 
Q 38.296875 44.09375 33.6875 46.140625 
Q 29.09375 48.203125 24 48.203125 
Q 18.90625 48.203125 15.203125 45.90625 
Q 11.40625 43.59375 11.40625 39.90625 
Q 11.40625 35 20.40625 32.09375 
Q 24.59375 30.90625 28.6875 29.703125 
Q 32.796875 28.5 37 27.296875 
Q 46.09375 23.40625 46.09375 15.5 
Q 46.09375 8.796875 39.796875 3.703125 
Q 33.40625 -1.296875 23.90625 -1.296875 
Q 19.703125 -1.296875 15.703125 -0.40625 
Q 9.296875 1 3.5 4.59375 
z
" id="AppleGothic-115"/>
      </defs>
      <use xlink:href="#AppleGothic-99"/>
      <use x="51.899994" xlink:href="#AppleGothic-97"/>
      <use x="108.399979" xlink:href="#AppleGothic-115"/>
      <use x="157.999969" xlink:href="#AppleGothic-101"/>
      <use x="212.899963" xlink:href="#AppleGothic-115"/>
     </g>
    </g>
   </g>
   <g id="line2d_32">
    <path clip-path="url(#pe881d60fcf)" d="M 150.375 567.155372 
L 253.067675 567.157971 
L 275.271497 566.994207 
L 283.59793 566.370343 
L 286.373408 566.417133 
L 289.148885 566.040215 
L 291.924363 566.38074 
L 294.699841 566.193581 
L 297.475318 564.023055 
L 300.250796 565.151209 
L 303.026274 559.892555 
L 305.801752 558.260111 
L 308.577229 554.787269 
L 311.352707 557.883194 
L 314.128185 551.990279 
L 316.903662 544.18678 
L 319.67914 539.104889 
L 322.454618 540.661949 
L 325.230096 530.945268 
L 328.005573 523.079383 
L 333.556529 516.965517 
L 336.332006 520.074439 
L 339.107484 509.804078 
L 341.882962 508.111847 
L 344.658439 496.26883 
L 347.433917 499.338761 
L 350.209395 475.956859 
L 352.984873 487.448953 
L 355.76035 500.323946 
L 358.535828 456.437716 
L 361.311306 509.785882 
L 364.086783 484.755941 
L 366.862261 484.826125 
L 369.637739 478.304148 
L 372.413217 482.065527 
L 375.188694 492.96495 
L 377.964172 503.211916 
L 380.73965 499.359556 
L 383.515127 496.422197 
L 386.290605 491.524865 
L 389.066083 489.926213 
L 391.841561 489.43752 
L 394.617038 502.87139 
L 397.392516 490.578671 
L 400.167994 499.136005 
L 402.943471 497.992254 
L 405.718949 470.555237 
L 408.494427 489.193173 
L 411.269904 479.286733 
L 414.045382 493.341868 
L 416.82086 505.556605 
L 419.596338 505.465624 
L 422.371815 500.479912 
L 425.147293 485.148455 
L 427.922771 490.191355 
L 430.698248 490.287534 
L 433.473726 489.622079 
L 436.249204 516.942122 
L 439.024682 508.701919 
L 441.800159 507.45939 
L 444.575637 486.3182 
L 447.351115 501.350722 
L 450.126592 497.014867 
L 452.90207 504.046334 
L 455.677548 521.540519 
L 458.453025 511.267559 
L 461.228503 513.040373 
L 464.003981 496.986274 
L 466.779459 507.971478 
L 469.554936 483.814946 
L 472.330414 532.296973 
L 475.105892 502.938975 
L 477.881369 506.060895 
L 480.656847 508.166435 
L 483.432325 514.004762 
L 486.207803 504.043734 
L 488.98328 498.158618 
L 491.758758 527.217681 
L 494.534236 502.257924 
L 497.309713 524.646842 
L 500.085191 515.852959 
L 502.860669 511.63148 
L 505.636146 519.679325 
L 508.411624 505.556605 
L 511.187102 499.060621 
L 513.96258 528.080693 
L 516.738057 502.224131 
L 519.513535 528.928108 
L 522.289013 513.744819 
L 525.06449 491.615845 
L 527.839968 491.511867 
L 530.615446 520.773686 
L 533.390924 521.249382 
L 536.166401 521.852451 
L 538.941879 513.708427 
L 541.717357 510.334363 
L 544.492834 508.727913 
L 547.268312 500.916616 
L 550.04379 510.152402 
L 552.819268 518.574566 
L 555.594745 492.749198 
L 558.370223 507.397003 
L 561.145701 494.485619 
L 563.921178 483.001323 
L 566.696656 482.881749 
L 569.472134 495.403219 
L 572.247611 497.745308 
L 575.023089 477.630894 
L 577.798567 468.839612 
L 580.574045 461.537804 
L 583.349522 450.744957 
L 586.125 450.999702 
L 588.900478 460.550019 
L 591.675955 473.835722 
L 594.451433 453.432771 
L 597.226911 425.616237 
L 600.002389 429.848115 
L 602.777866 417.045906 
L 605.553344 431.623527 
L 608.328822 452.086265 
L 611.104299 446.351915 
L 613.879777 436.216726 
L 616.655255 398.524945 
L 619.430732 413.081771 
L 622.20621 394.389247 
L 624.981688 403.614635 
L 627.757166 409.845477 
L 630.532643 413.731629 
L 633.308121 408.090859 
L 636.083599 391.290723 
L 638.859076 379.179964 
L 641.634554 372.039321 
L 644.410032 391.311518 
L 647.18551 403.063556 
L 649.960987 416.068519 
L 652.736465 402.382504 
L 655.511943 384.118887 
L 658.28742 378.631483 
L 661.062898 371.989932 
L 663.838376 399.154008 
L 666.613854 406.611782 
L 669.389331 424.929987 
L 672.164809 410.739682 
L 674.940287 394.779162 
L 677.715764 389.538705 
L 680.491242 388.109017 
L 683.26672 413.768021 
L 686.042197 443.014243 
L 688.817675 437.152522 
L 691.593153 436.349297 
L 694.368631 427.168099 
L 697.144108 421.197201 
L 699.919586 405.400446 
L 702.695064 425.348496 
L 705.470541 440.136671 
L 708.246019 461.524807 
L 711.021497 421.862656 
L 713.796975 419.437385 
L 716.572452 428.805742 
L 719.34793 419.588152 
L 722.123408 424.644049 
L 724.898885 457.823214 
L 727.674363 465.855462 
L 730.449841 463.347009 
L 733.225318 445.514898 
L 736.000796 449.777968 
L 738.776274 444.033221 
L 741.551752 449.013735 
L 744.327229 466.549511 
L 747.102707 480.396691 
L 749.878185 469.297112 
L 752.653662 445.239358 
L 755.42914 444.371147 
L 758.204618 449.746775 
L 760.980096 454.007246 
L 763.755573 467.017409 
L 766.531051 482.764775 
L 769.306529 453.315797 
L 772.082006 462.717947 
L 774.857484 449.991122 
L 777.632962 438.002536 
L 780.408439 448.966945 
L 783.183917 477.906434 
L 785.959395 498.74609 
L 788.734873 506.016704 
L 791.51035 480.607245 
L 794.285828 468.592665 
L 797.061306 446.14916 
L 799.836783 461.821142 
L 802.612261 474.937882 
L 805.387739 477.493124 
L 808.163217 476.713295 
L 810.938694 457.558072 
L 813.714172 452.190242 
L 816.48965 439.125491 
L 819.265127 456.570287 
L 822.040605 469.90018 
L 824.816083 464.339993 
L 827.591561 437.550235 
L 830.367038 458.979962 
L 833.142516 456.034804 
L 835.917994 445.832029 
L 838.693471 437.38907 
L 841.468949 472.309855 
L 844.244427 478.38473 
L 847.019904 465.413559 
L 849.795382 448.844772 
L 852.57086 444.194386 
L 855.346338 436.091953 
L 858.121815 438.512025 
L 860.897293 471.709386 
L 863.672771 463.417194 
L 866.448248 463.045475 
L 869.223726 428.483412 
L 871.999204 423.190966 
L 874.774682 414.631033 
L 877.550159 427.672389 
L 880.325637 447.716618 
L 885.876592 442.928462 
L 888.65207 410.573318 
L 891.427548 401.548086 
L 894.203025 383.986316 
L 896.978503 427.802361 
L 899.753981 444.675281 
L 902.529459 410.040434 
L 905.304936 409.117635 
L 908.080414 400.937219 
L 910.855892 373.157077 
L 913.631369 349.98573 
L 916.406847 348.914764 
L 919.182325 402.762021 
L 921.957803 400.854037 
L 924.73328 378.0986 
L 927.508758 352.405803 
L 930.284236 331.846886 
L 933.059713 306.754558 
L 935.835191 335.803223 
L 938.610669 385.868305 
L 941.386146 342.026266 
L 944.161624 336.307513 
L 946.937102 287.856679 
L 949.71258 259.171934 
L 952.488057 219.213448 
L 955.263535 322.384949 
L 958.039013 293.453259 
L 960.81449 246.244953 
L 963.589968 211.584112 
L 966.365446 192.8396 
L 969.140924 155.849666 
L 971.916401 95.802761 
L 974.691879 159.468077 
L 977.467357 208.371213 
L 980.242834 172.421052 
L 983.018312 139.857953 
L 985.79379 138.025353 
L 988.569268 86.015895 
L 991.344745 66.317391 
L 994.120223 87.326009 
L 996.895701 182.857776 
L 999.671178 157.66667 
L 1002.446656 137.518464 
L 1005.222134 95.051525 
L 1007.997611 185.267451 
L 1010.773089 119.020897 
L 1013.548567 194.573422 
L 1016.324045 170.463679 
L 1019.099522 171.986947 
L 1021.875 103.432097 
L 1021.875 103.432097 
" style="fill:none;stroke:#0000ff;stroke-linecap:square;"/>
   </g>
   <g id="patch_3">
    <path d="M 106.8 592.2 
L 106.8 41.275362 
" style="fill:none;stroke:#000000;stroke-linecap:square;stroke-linejoin:miter;stroke-width:0.8;"/>
   </g>
   <g id="patch_4">
    <path d="M 106.8 592.2 
L 1065.45 592.2 
" style="fill:none;stroke:#000000;stroke-linecap:square;stroke-linejoin:miter;stroke-width:0.8;"/>
   </g>
  </g>
  <g id="axes_2">
   <g id="matplotlib.axis_3">
    <g id="ytick_10">
     <g id="line2d_33">
      <path clip-path="url(#pe881d60fcf)" d="M 106.8 567.157971 
L 1065.45 567.157971 
" style="fill:none;stroke:#ffe4e1;stroke-linecap:square;stroke-width:0.8;"/>
     </g>
     <g id="line2d_34">
      <defs>
       <path d="M 0 0 
L 3.5 0 
" id="m0205a3fa69" style="stroke:#ff0000;stroke-width:0.8;"/>
      </defs>
      <g>
       <use style="fill:#ff0000;stroke:#ff0000;stroke-width:0.8;" x="1065.45" xlink:href="#m0205a3fa69" y="567.157971"/>
      </g>
     </g>
     <g id="text_23">
      <!-- 0 -->
      <g style="fill:#ff0000;" transform="translate(1072.45 573.236721)scale(0.16 -0.16)">
       <use xlink:href="#DejaVuSans-48"/>
      </g>
     </g>
    </g>
    <g id="ytick_11">
     <g id="line2d_35">
      <path clip-path="url(#pe881d60fcf)" d="M 106.8 479.480182 
L 1065.45 479.480182 
" style="fill:none;stroke:#ffe4e1;stroke-linecap:square;stroke-width:0.8;"/>
     </g>
     <g id="line2d_36">
      <g>
       <use style="fill:#ff0000;stroke:#ff0000;stroke-width:0.8;" x="1065.45" xlink:href="#m0205a3fa69" y="479.480182"/>
      </g>
     </g>
     <g id="text_24">
      <!-- 500 -->
      <g style="fill:#ff0000;" transform="translate(1072.45 485.558932)scale(0.16 -0.16)">
       <use xlink:href="#DejaVuSans-53"/>
       <use x="63.623047" xlink:href="#DejaVuSans-48"/>
       <use x="127.246094" xlink:href="#DejaVuSans-48"/>
      </g>
     </g>
    </g>
    <g id="ytick_12">
     <g id="line2d_37">
      <path clip-path="url(#pe881d60fcf)" d="M 106.8 391.802393 
L 1065.45 391.802393 
" style="fill:none;stroke:#ffe4e1;stroke-linecap:square;stroke-width:0.8;"/>
     </g>
     <g id="line2d_38">
      <g>
       <use style="fill:#ff0000;stroke:#ff0000;stroke-width:0.8;" x="1065.45" xlink:href="#m0205a3fa69" y="391.802393"/>
      </g>
     </g>
     <g id="text_25">
      <!-- 1,000 -->
      <g style="fill:#ff0000;" transform="translate(1072.45 397.881143)scale(0.16 -0.16)">
       <use xlink:href="#DejaVuSans-49"/>
       <use x="63.623047" xlink:href="#DejaVuSans-44"/>
       <use x="95.410156" xlink:href="#DejaVuSans-48"/>
       <use x="159.033203" xlink:href="#DejaVuSans-48"/>
       <use x="222.65625" xlink:href="#DejaVuSans-48"/>
      </g>
     </g>
    </g>
    <g id="ytick_13">
     <g id="line2d_39">
      <path clip-path="url(#pe881d60fcf)" d="M 106.8 304.124605 
L 1065.45 304.124605 
" style="fill:none;stroke:#ffe4e1;stroke-linecap:square;stroke-width:0.8;"/>
     </g>
     <g id="line2d_40">
      <g>
       <use style="fill:#ff0000;stroke:#ff0000;stroke-width:0.8;" x="1065.45" xlink:href="#m0205a3fa69" y="304.124605"/>
      </g>
     </g>
     <g id="text_26">
      <!-- 1,500 -->
      <g style="fill:#ff0000;" transform="translate(1072.45 310.203355)scale(0.16 -0.16)">
       <use xlink:href="#DejaVuSans-49"/>
       <use x="63.623047" xlink:href="#DejaVuSans-44"/>
       <use x="95.410156" xlink:href="#DejaVuSans-53"/>
       <use x="159.033203" xlink:href="#DejaVuSans-48"/>
       <use x="222.65625" xlink:href="#DejaVuSans-48"/>
      </g>
     </g>
    </g>
    <g id="ytick_14">
     <g id="line2d_41">
      <path clip-path="url(#pe881d60fcf)" d="M 106.8 216.446816 
L 1065.45 216.446816 
" style="fill:none;stroke:#ffe4e1;stroke-linecap:square;stroke-width:0.8;"/>
     </g>
     <g id="line2d_42">
      <g>
       <use style="fill:#ff0000;stroke:#ff0000;stroke-width:0.8;" x="1065.45" xlink:href="#m0205a3fa69" y="216.446816"/>
      </g>
     </g>
     <g id="text_27">
      <!-- 2,000 -->
      <g style="fill:#ff0000;" transform="translate(1072.45 222.525566)scale(0.16 -0.16)">
       <use xlink:href="#DejaVuSans-50"/>
       <use x="63.623047" xlink:href="#DejaVuSans-44"/>
       <use x="95.410156" xlink:href="#DejaVuSans-48"/>
       <use x="159.033203" xlink:href="#DejaVuSans-48"/>
       <use x="222.65625" xlink:href="#DejaVuSans-48"/>
      </g>
     </g>
    </g>
    <g id="ytick_15">
     <g id="line2d_43">
      <path clip-path="url(#pe881d60fcf)" d="M 106.8 128.769027 
L 1065.45 128.769027 
" style="fill:none;stroke:#ffe4e1;stroke-linecap:square;stroke-width:0.8;"/>
     </g>
     <g id="line2d_44">
      <g>
       <use style="fill:#ff0000;stroke:#ff0000;stroke-width:0.8;" x="1065.45" xlink:href="#m0205a3fa69" y="128.769027"/>
      </g>
     </g>
     <g id="text_28">
      <!-- 2,500 -->
      <g style="fill:#ff0000;" transform="translate(1072.45 134.847777)scale(0.16 -0.16)">
       <use xlink:href="#DejaVuSans-50"/>
       <use x="63.623047" xlink:href="#DejaVuSans-44"/>
       <use x="95.410156" xlink:href="#DejaVuSans-53"/>
       <use x="159.033203" xlink:href="#DejaVuSans-48"/>
       <use x="222.65625" xlink:href="#DejaVuSans-48"/>
      </g>
     </g>
    </g>
    <g id="text_29">
     <!-- deaths -->
     <g style="fill:#ff0000;" transform="translate(1137.93625 346.878306)rotate(-90)scale(0.2 -0.2)">
      <defs>
       <path d="M 4.5 78.40625 
L 11.703125 78.40625 
L 11.703125 43.90625 
Q 14.203125 47.90625 17.796875 50.59375 
Q 23.296875 54.703125 30.09375 54.703125 
Q 34.296875 54.703125 37.640625 53.5 
Q 41 52.296875 43.796875 50 
Q 49.703125 44.796875 49.703125 35.40625 
L 49.703125 0 
L 42.40625 0 
L 42.40625 34.40625 
Q 42.40625 40.203125 38.703125 44.203125 
Q 35 48.203125 29.703125 48.203125 
Q 22 48.203125 16.90625 42.09375 
Q 11.703125 35.796875 11.703125 27.703125 
L 11.703125 0 
L 4.5 0 
z
" id="AppleGothic-104"/>
      </defs>
      <use xlink:href="#AppleGothic-100"/>
      <use x="53.999985" xlink:href="#AppleGothic-101"/>
      <use x="108.899979" xlink:href="#AppleGothic-97"/>
      <use x="165.399963" xlink:href="#AppleGothic-116"/>
      <use x="199.59996" xlink:href="#AppleGothic-104"/>
      <use x="251.799957" xlink:href="#AppleGothic-115"/>
     </g>
    </g>
   </g>
   <g id="line2d_45">
    <path clip-path="url(#pe881d60fcf)" d="M 158.701433 567.157971 
L 250.292197 567.13292 
L 255.843153 566.932514 
L 275.271497 566.656955 
L 283.59793 566.281193 
L 286.373408 566.306244 
L 289.148885 565.955533 
L 291.924363 565.905431 
L 294.699841 565.454517 
L 303.026274 561.897304 
L 308.577229 558.816056 
L 311.352707 555.409147 
L 314.128185 551.125461 
L 319.67914 540.979888 
L 325.230096 522.367146 
L 328.005573 516.956174 
L 330.781051 509.190427 
L 333.556529 495.387438 
L 336.332006 479.179573 
L 339.107484 462.069878 
L 341.882962 446.262826 
L 344.658439 429.278385 
L 347.433917 404.227589 
L 350.209395 336.540336 
L 352.984873 337.868028 
L 355.76035 312.190961 
L 358.535828 278.723097 
L 361.311306 264.920108 
L 364.086783 244.754216 
L 366.862261 245.129978 
L 369.637739 311.940453 
L 372.413217 270.882197 
L 375.188694 156.650564 
L 377.964172 163.965397 
L 380.73965 144.200318 
L 383.515127 148.408852 
L 386.290605 133.278171 
L 389.066083 78.56723 
L 391.841561 66.317391 
L 394.617038 183.680374 
L 397.392516 172.182058 
L 400.167994 191.496222 
L 402.943471 184.957964 
L 405.718949 195.429197 
L 408.494427 228.922113 
L 411.269904 243.251168 
L 414.045382 224.513172 
L 416.82086 226.717643 
L 419.596338 220.35474 
L 422.371815 234.533491 
L 425.147293 228.120487 
L 427.922771 238.89233 
L 430.698248 234.057526 
L 433.473726 238.716974 
L 436.249204 239.719006 
L 439.024682 245.80635 
L 441.800159 240.645886 
L 444.575637 259.03317 
L 447.351115 255.075145 
L 450.126592 280.476652 
L 452.90207 297.135432 
L 455.677548 303.798944 
L 458.453025 311.53964 
L 461.228503 318.203152 
L 464.003981 325.392731 
L 466.779459 328.674386 
L 469.554936 331.229567 
L 472.330414 338.845009 
L 475.105892 362.743469 
L 477.881369 349.541699 
L 480.656847 358.234326 
L 483.432325 360.188288 
L 486.207803 368.981118 
L 488.98328 382.608751 
L 491.758758 382.157837 
L 494.534236 377.748896 
L 497.309713 397.238416 
L 500.085191 400.545122 
L 502.860669 398.641261 
L 505.636146 394.157168 
L 508.411624 387.643961 
L 511.187102 402.248576 
L 513.96258 408.010259 
L 516.738057 406.657516 
L 519.513535 411.81798 
L 522.289013 417.379257 
L 525.06449 416.20187 
L 527.839968 418.456441 
L 530.615446 418.40634 
L 533.390924 420.61081 
L 536.166401 431.056992 
L 538.941879 432.635192 
L 541.717357 435.165323 
L 544.492834 442.981171 
L 547.268312 448.29194 
L 550.04379 450.296004 
L 552.819268 455.656874 
L 555.594745 456.182941 
L 558.370223 458.33731 
L 561.145701 459.965612 
L 563.921178 462.11998 
L 566.696656 460.967643 
L 569.472134 462.520793 
L 572.247611 417.855222 
L 575.023089 418.832203 
L 577.798567 420.134845 
L 580.574045 405.680535 
L 583.349522 406.682567 
L 586.125 412.293945 
L 588.900478 411.467269 
L 591.675955 458.96358 
L 594.451433 458.713072 
L 597.226911 464.650111 
L 600.002389 480.933128 
L 602.777866 482.135567 
L 605.553344 472.81667 
L 608.328822 466.153158 
L 611.104299 461.669066 
L 613.879777 457.911446 
L 616.655255 446.513334 
L 619.430732 440.075279 
L 622.20621 439.774669 
L 624.981688 443.757746 
L 627.757166 444.859981 
L 630.532643 441.67853 
L 633.308121 438.998095 
L 636.083599 435.215424 
L 638.859076 435.065119 
L 641.634554 431.583059 
L 644.410032 424.71914 
L 647.18551 421.437486 
L 649.960987 416.752987 
L 652.736465 411.066456 
L 655.511943 408.761783 
L 658.28742 407.10843 
L 661.062898 390.75026 
L 663.838376 387.067793 
L 666.613854 378.575573 
L 669.389331 375.995341 
L 672.164809 370.333861 
L 674.940287 366.250581 
L 677.715764 368.630406 
L 680.491242 378.47537 
L 683.26672 380.654789 
L 686.042197 383.084716 
L 688.817675 382.25804 
L 691.593153 383.034615 
L 694.368631 384.738069 
L 697.144108 382.508548 
L 699.919586 386.717082 
L 702.695064 383.285123 
L 705.470541 378.851131 
L 708.246019 380.855195 
L 711.021497 383.635834 
L 713.796975 383.886342 
L 716.572452 379.076589 
L 722.123408 382.759056 
L 727.674363 387.468606 
L 730.449841 389.347415 
L 733.225318 390.524803 
L 736.000796 394.983845 
L 738.776274 397.388721 
L 741.551752 398.140245 
L 744.327229 402.273626 
L 747.102707 399.943902 
L 749.878185 404.352843 
L 752.653662 404.377893 
L 755.42914 406.857922 
L 758.204618 406.006195 
L 760.980096 408.736732 
L 763.755573 414.498415 
L 766.531051 416.652784 
L 769.306529 416.452377 
L 772.082006 419.308168 
L 774.857484 419.583727 
L 777.632962 425.921579 
L 780.408439 440.300736 
L 783.183917 437.645352 
L 785.959395 437.394844 
L 788.734873 436.167355 
L 791.51035 438.296672 
L 794.285828 437.094234 
L 797.061306 431.783465 
L 799.836783 419.207965 
L 802.612261 416.302073 
L 805.387739 422.790229 
L 808.163217 424.593886 
L 810.938694 428.17615 
L 813.714172 433.912783 
L 816.48965 432.635192 
L 819.265127 436.34271 
L 822.040605 438.171418 
L 824.816083 435.991999 
L 827.591561 439.373857 
L 830.367038 434.639256 
L 833.142516 434.288545 
L 835.917994 438.497079 
L 838.693471 439.47406 
L 841.468949 442.680562 
L 844.244427 443.156527 
L 847.019904 443.457136 
L 849.795382 447.214756 
L 852.57086 445.13554 
L 855.346338 442.855917 
L 858.121815 445.411099 
L 860.897293 448.667702 
L 863.672771 446.688689 
L 866.448248 443.933102 
L 869.223726 447.089502 
L 871.999204 444.18361 
L 874.774682 444.759778 
L 877.550159 442.855917 
L 880.325637 444.584422 
L 883.101115 446.763842 
L 885.876592 444.885032 
L 888.65207 444.484219 
L 891.427548 444.960184 
L 894.203025 440.576295 
L 896.978503 437.695453 
L 899.753981 431.558008 
L 902.529459 428.627065 
L 905.304936 430.004859 
L 908.080414 424.117921 
L 910.855892 426.497747 
L 913.631369 427.249271 
L 916.406847 426.297341 
L 919.182325 426.698153 
L 921.957803 425.545817 
L 924.73328 423.967617 
L 927.508758 422.940534 
L 933.059713 421.637892 
L 935.835191 416.778038 
L 941.386146 412.74486 
L 946.937102 402.599287 
L 949.71258 400.720477 
L 952.488057 395.860623 
L 955.263535 376.721814 
L 958.039013 380.103671 
L 960.81449 367.954035 
L 963.589968 364.67238 
L 969.140924 355.654094 
L 971.916401 354.201147 
L 974.691879 360.639202 
L 977.467357 339.847041 
L 980.242834 329.200452 
L 983.018312 315.59787 
L 988.569268 304.425214 
L 991.344745 297.010178 
L 994.120223 287.31552 
L 996.895701 276.418423 
L 999.671178 292.65134 
L 1002.446656 307.731919 
L 1005.222134 314.395431 
L 1007.997611 314.320279 
L 1010.773089 309.485475 
L 1013.548567 297.661499 
L 1013.548567 297.661499 
" style="fill:none;stroke:#ff0000;stroke-linecap:square;"/>
   </g>
   <g id="patch_5">
    <path d="M 106.8 592.2 
L 106.8 41.275362 
" style="fill:none;stroke:#000000;stroke-linecap:square;stroke-linejoin:miter;stroke-width:0.8;"/>
   </g>
   <g id="patch_6">
    <path d="M 1065.45 592.2 
L 1065.45 41.275362 
" style="fill:none;stroke:#000000;stroke-linecap:square;stroke-linejoin:miter;stroke-width:0.8;"/>
   </g>
   <g id="patch_7">
    <path d="M 106.8 592.2 
L 1065.45 592.2 
" style="fill:none;stroke:#000000;stroke-linecap:square;stroke-linejoin:miter;stroke-width:0.8;"/>
   </g>
   <g id="patch_8">
    <path d="M 106.8 41.275362 
L 1065.45 41.275362 
" style="fill:none;stroke:#000000;stroke-linecap:square;stroke-linejoin:miter;stroke-width:0.8;"/>
   </g>
  </g>
  <g id="text_30">
   <!-- US COVID-19 Cases and Deaths by State over Time -->
   <g transform="translate(332.896875 28.900625)scale(0.2 -0.2)">
    <defs>
     <path d="M 5 78.40625 
L 12.796875 78.40625 
L 12.796875 27.59375 
Q 12.796875 17.09375 20.203125 11.296875 
Q 26.90625 6.09375 37.09375 6.09375 
Q 46.40625 6.09375 52.90625 11.203125 
Q 60.40625 17.203125 60.40625 27.59375 
L 60.40625 78.40625 
L 68.703125 78.40625 
L 68.703125 28.59375 
Q 68.703125 14.796875 58.90625 6.40625 
Q 49.796875 -1.296875 37.40625 -1.296875 
Q 23.09375 -1.296875 14.296875 6.296875 
Q 5 14.203125 5 28.296875 
z
" id="AppleGothic-85"/>
     <path d="M 53.40625 72.90625 
L 53.40625 62.796875 
Q 50.796875 65 48.140625 66.703125 
Q 45.5 68.40625 42.90625 69.5 
Q 36.90625 72.296875 30.703125 72.296875 
Q 22.90625 72.296875 17.796875 68.40625 
Q 12.59375 64.40625 12.59375 58.90625 
Q 12.59375 50.90625 24.40625 46.90625 
Q 29.90625 45 35.34375 43.25 
Q 40.796875 41.5 46.40625 39.703125 
Q 58.296875 34 58.296875 22.703125 
Q 58.296875 11.703125 49.796875 5 
Q 41.703125 -1.296875 29.703125 -1.296875 
Q 21.703125 -1.296875 14.296875 1.796875 
Q 10 3.5 4.09375 7.40625 
L 4.09375 17.59375 
Q 11.796875 10.703125 19.703125 7.90625 
Q 22.296875 6.90625 24.796875 6.5 
Q 27.296875 6.09375 29.796875 6.09375 
Q 37.796875 6.09375 43.296875 10.09375 
Q 49.40625 14.5 49.40625 21.59375 
Q 49.40625 30.203125 37.796875 34.703125 
Q 32.203125 36.40625 26.796875 38.203125 
Q 21.40625 40 16 41.703125 
Q 4.296875 47.09375 4.296875 58.296875 
Q 4.296875 67.703125 11.703125 73.59375 
Q 19.296875 79.703125 30.703125 79.703125 
Q 37.703125 79.703125 44.703125 77.09375 
Q 48.296875 75.90625 53.40625 72.90625 
z
" id="AppleGothic-83"/>
     <path id="AppleGothic-32"/>
     <path d="M 64.203125 72.203125 
L 64.203125 62.09375 
Q 60.5 65.703125 55.703125 68.296875 
Q 48.203125 72.296875 40.59375 72.296875 
Q 28.90625 72.296875 20.5 62.40625 
Q 16.296875 57.5 14.25 51.703125 
Q 12.203125 45.90625 12.203125 39.296875 
Q 12.203125 25.796875 20.59375 16.09375 
Q 28.90625 6.40625 40.796875 6.40625 
Q 46.40625 6.40625 52.25 8.65625 
Q 58.09375 10.90625 64.203125 15.59375 
L 64.203125 5.90625 
Q 50.796875 -1.296875 39.90625 -1.296875 
Q 25.796875 -1.296875 15.203125 9.59375 
Q 3.796875 21.296875 3.796875 38.90625 
Q 3.796875 56 14.40625 67.796875 
Q 25.203125 79.703125 41.09375 79.703125 
Q 47.296875 79.703125 53 77.796875 
Q 58.703125 75.90625 64.203125 72.203125 
z
" id="AppleGothic-67"/>
     <path d="M 39 -1.296875 
Q 25.40625 -1.296875 15.203125 9.296875 
Q 4 20.796875 4 39 
Q 4 56.40625 14.5 68.40625 
Q 24.703125 79.703125 38.703125 79.703125 
Q 52.90625 79.703125 63.09375 68.59375 
Q 73.59375 56.90625 73.59375 39.09375 
Q 73.59375 20.59375 62.203125 9.09375 
Q 52.09375 -1.296875 39 -1.296875 
z
M 38.40625 6.09375 
Q 49.5 6.09375 57.296875 15.40625 
Q 65.203125 24.90625 65.203125 39.09375 
Q 65.203125 46 63.296875 51.890625 
Q 61.40625 57.796875 57.59375 62.59375 
Q 50 72.296875 38.796875 72.296875 
Q 27.703125 72.296875 20 62.59375 
Q 12.40625 53.09375 12.40625 38.90625 
Q 12.40625 24.09375 20.40625 14.796875 
Q 27.90625 6.09375 38.40625 6.09375 
z
" id="AppleGothic-79"/>
     <path d="M 1.703125 78.40625 
L 10.59375 78.40625 
L 36.09375 9.5 
L 61.09375 78.40625 
L 70.203125 78.40625 
L 40.203125 0 
L 32.40625 0 
z
" id="AppleGothic-86"/>
     <path d="M 6.796875 78.40625 
L 14.59375 78.40625 
L 14.59375 0 
L 6.796875 0 
z
" id="AppleGothic-73"/>
     <path d="M 5.59375 78.5 
L 24.40625 78.5 
Q 34.796875 78.5 41.796875 75.90625 
Q 44.703125 74.796875 47.296875 73.140625 
Q 49.90625 71.5 52.203125 69.203125 
Q 57.703125 63.703125 60.59375 56 
Q 63.5 48.296875 63.5 39.90625 
Q 63.5 21.203125 52.796875 10.5 
Q 42 0 23.203125 0 
L 5.59375 0 
z
M 21.296875 71.59375 
L 13.5 71.59375 
L 13.5 6.90625 
L 26.40625 6.90625 
Q 37.703125 6.90625 45.5 14.703125 
Q 54.59375 23.796875 54.59375 40 
Q 54.59375 43.203125 54.25 46 
Q 53.90625 48.796875 53.203125 51.40625 
Q 51 59 45.40625 64.40625 
Q 41.296875 68.296875 35.90625 70 
Q 30.703125 71.59375 21.296875 71.59375 
z
" id="AppleGothic-68"/>
     <path d="M 4 30.59375 
L 36.703125 30.59375 
L 36.703125 23.296875 
L 4 23.296875 
z
" id="AppleGothic-45"/>
     <path d="M 36.59375 74.59375 
L 43 74.59375 
L 43 0 
L 35.703125 0 
L 35.703125 55.09375 
L 18.09375 55.09375 
L 18.09375 60.703125 
L 22.09375 60.703125 
Q 31.09375 60.703125 34.59375 65.703125 
Q 36.59375 68.90625 36.59375 74.59375 
z
" id="AppleGothic-49"/>
     <path d="M 14.5 3.296875 
L 14.5 11.90625 
Q 16.40625 10.5 18.046875 9.390625 
Q 19.703125 8.296875 21.296875 7.5 
Q 26.59375 5 31.5 5 
Q 35.796875 5 39.703125 6.796875 
Q 42.796875 8.203125 45.4375 10.546875 
Q 48.09375 12.90625 50.203125 16.203125 
Q 54 22 55.5 28.796875 
Q 56.5 33.5 56.5 40.203125 
Q 51.796875 35.5 47.90625 33.203125 
Q 40.703125 28.90625 32.703125 28.90625 
Q 22.796875 28.90625 16.203125 34.59375 
Q 9.203125 40.59375 9.203125 51.09375 
Q 9.203125 62.296875 16.90625 69 
Q 24.203125 75.5 34.90625 75.5 
Q 46.40625 75.5 54.59375 67.203125 
Q 64.40625 57.203125 64.40625 39.5 
Q 64.40625 20.703125 54.296875 9.09375 
Q 44.90625 -1.703125 31.796875 -1.703125 
Q 26.90625 -1.703125 21.203125 0.296875 
Q 19.59375 0.796875 17.9375 1.59375 
Q 16.296875 2.40625 14.5 3.296875 
z
M 55.90625 47.90625 
Q 54.09375 58.09375 47.703125 63.703125 
Q 41.796875 68.796875 34.796875 68.796875 
Q 26.796875 68.796875 21.90625 63.796875 
Q 16.90625 58.59375 16.90625 51.59375 
Q 16.90625 44.703125 21.40625 40.09375 
Q 25.90625 35.59375 33.203125 35.59375 
Q 40.203125 35.59375 45.546875 38.640625 
Q 50.90625 41.703125 55.90625 47.90625 
z
" id="AppleGothic-57"/>
     <path d="M 51 35.796875 
L 51 0 
L 43.796875 0 
L 43.796875 35.296875 
Q 43.796875 40.90625 39.703125 44.5 
Q 35.59375 48.203125 29.90625 48.203125 
Q 22.296875 48.203125 16.796875 41.90625 
Q 11.296875 35.5 11.296875 27.5 
L 11.296875 0 
L 4.5 0 
L 4.5 53.5 
L 10.796875 53.5 
L 11.09375 43.5 
Q 13.796875 47.59375 17.40625 50.296875 
Q 23.296875 54.703125 30.703125 54.703125 
Q 39.296875 54.703125 45.09375 49.5 
Q 51 44.40625 51 35.796875 
z
" id="AppleGothic-110"/>
     <path d="M 4.5 78.40625 
L 11.796875 78.40625 
L 11.796875 44.5 
Q 13.203125 46.59375 14.546875 48.09375 
Q 15.90625 49.59375 17.296875 50.703125 
Q 22.5 54.703125 29.40625 54.703125 
Q 39.796875 54.703125 46.5 46.796875 
Q 53.40625 38.796875 53.40625 27.40625 
Q 53.40625 15.703125 46.5 7.5 
Q 39.09375 -1.296875 28 -1.296875 
Q 21.90625 -1.296875 17.40625 1.40625 
Q 14.5 3 11.796875 6 
L 9.90625 0 
L 4.5 0 
z
M 11.796875 29.09375 
L 11.796875 13.59375 
Q 13.203125 11.90625 14.59375 10.59375 
Q 16 9.296875 17.203125 8.40625 
Q 21.59375 5.296875 27.203125 5.296875 
Q 34.90625 5.296875 39.90625 11.59375 
Q 44.90625 18.09375 44.90625 27.296875 
Q 44.90625 36.90625 39.296875 43 
Q 34.5 48.203125 28.203125 48.203125 
Q 21.40625 48.203125 16.5 42.40625 
Q 11.796875 36.796875 11.796875 29.09375 
z
" id="AppleGothic-98"/>
     <path d="M 2.796875 53.5 
L 10.796875 53.5 
L 29.203125 8.296875 
L 44.90625 53.5 
L 52.796875 53.5 
L 30.5 -6.203125 
Q 28.09375 -12.59375 24.296875 -15.296875 
Q 20.90625 -17.59375 16.203125 -17.59375 
Q 13.796875 -17.59375 12.1875 -17.25 
Q 10.59375 -16.90625 9.09375 -16.296875 
L 9.09375 -9.40625 
Q 10.5 -10.09375 12.25 -10.59375 
Q 14 -11.09375 15.40625 -11.09375 
Q 18.90625 -11.09375 20.84375 -9.296875 
Q 22.796875 -7.5 24.296875 -3.59375 
L 25.5 0.5 
z
" id="AppleGothic-121"/>
     <path d="M 29.5 -1.296875 
Q 19.203125 -1.296875 11.40625 6.203125 
Q 3.09375 14.09375 3.09375 26.703125 
Q 3.09375 38.59375 10.40625 46.59375 
Q 17.90625 54.703125 28.90625 54.703125 
Q 39.796875 54.703125 47.296875 46.59375 
Q 54.703125 38.59375 54.703125 26.796875 
Q 54.703125 14.40625 46.703125 6.296875 
Q 39.296875 -1.296875 29.5 -1.296875 
z
M 28.796875 5.296875 
Q 36 5.296875 41.59375 11.296875 
Q 47 17.40625 47 26.796875 
Q 47 36.5 41.203125 42.59375 
Q 35.90625 48.203125 28.90625 48.203125 
Q 21.703125 48.203125 16.59375 42.40625 
Q 11 36 11 26.703125 
Q 11 17.296875 16.5 11 
Q 21.59375 5.296875 28.796875 5.296875 
z
" id="AppleGothic-111"/>
     <path d="M 1.703125 53.5 
L 9.796875 53.5 
L 26.796875 7.59375 
L 44.203125 53.5 
L 51.40625 53.5 
L 30 0 
L 23.09375 0 
z
" id="AppleGothic-118"/>
     <path d="M 33.203125 53.5 
L 33.203125 46.296875 
Q 32.09375 46.703125 31.390625 46.953125 
Q 30.703125 47.203125 30.203125 47.296875 
Q 29.703125 47.40625 29.140625 47.453125 
Q 28.59375 47.5 27.703125 47.5 
Q 20.40625 47.5 15.703125 40.40625 
Q 11.703125 33.90625 11.703125 25.90625 
L 11.703125 0 
L 4.5 0 
L 4.5 53.5 
L 11.09375 53.5 
L 11.59375 44.296875 
Q 14.09375 48.5 16.296875 50.296875 
Q 20.796875 54 27.09375 54 
Q 28.796875 54 30.25 53.890625 
Q 31.703125 53.796875 33.203125 53.5 
z
" id="AppleGothic-114"/>
     <path d="M 2.59375 78.40625 
L 63.09375 78.40625 
L 63.09375 71.5 
L 36.796875 71.5 
L 36.796875 0 
L 29 0 
L 29 71.5 
L 2.59375 71.5 
z
" id="AppleGothic-84"/>
     <path d="M 4 53.5 
L 11.203125 53.5 
L 11.203125 0 
L 4 0 
z
M 7.5 76.09375 
Q 9.59375 76.09375 11 74.6875 
Q 12.40625 73.296875 12.40625 70.703125 
Q 12.40625 68.09375 11.09375 66.6875 
Q 9.796875 65.296875 7.5 65.296875 
Q 5.203125 65.296875 3.953125 66.890625 
Q 2.703125 68.5 2.703125 70.59375 
Q 2.703125 73.90625 4.203125 75 
Q 5.703125 76.09375 7.5 76.09375 
z
" id="AppleGothic-105"/>
     <path d="M 84.203125 34.296875 
L 84.203125 0 
L 76.90625 0 
L 76.90625 36 
Q 76.90625 41.703125 73 45.203125 
Q 69.703125 48.203125 65.203125 48.203125 
Q 58.5 48.203125 53.203125 42 
Q 48 35.90625 48 26.90625 
L 48 0 
L 40.703125 0 
L 40.703125 36 
Q 40.703125 41.40625 37 44.703125 
Q 33.5 48.203125 29 48.203125 
Q 22.5 48.203125 17.40625 42.40625 
Q 11.796875 36 11.796875 26.59375 
L 11.796875 0 
L 4.5 0 
L 4.5 53.5 
L 11.296875 53.5 
L 11.59375 45 
Q 14.5 49.703125 19.90625 52.40625 
Q 24.703125 54.703125 29.59375 54.703125 
Q 37.203125 54.703125 42.40625 50.296875 
Q 46.203125 47 47.203125 43.703125 
Q 49.203125 47.40625 52.90625 50.40625 
Q 58.703125 54.703125 65.703125 54.703125 
Q 74.203125 54.703125 78.90625 49.59375 
Q 84.203125 43.796875 84.203125 34.296875 
z
" id="AppleGothic-109"/>
    </defs>
    <use xlink:href="#AppleGothic-85"/>
    <use x="73.499985" xlink:href="#AppleGothic-83"/>
    <use x="136.699982" xlink:href="#AppleGothic-32"/>
    <use x="168.699966" xlink:href="#AppleGothic-67"/>
    <use x="237.199951" xlink:href="#AppleGothic-79"/>
    <use x="314.799942" xlink:href="#AppleGothic-86"/>
    <use x="385.899933" xlink:href="#AppleGothic-73"/>
    <use x="407.399918" xlink:href="#AppleGothic-68"/>
    <use x="475.899902" xlink:href="#AppleGothic-45"/>
    <use x="525.899887" xlink:href="#AppleGothic-49"/>
    <use x="593.899872" xlink:href="#AppleGothic-57"/>
    <use x="661.899857" xlink:href="#AppleGothic-32"/>
    <use x="693.899841" xlink:href="#AppleGothic-67"/>
    <use x="762.399826" xlink:href="#AppleGothic-97"/>
    <use x="818.899811" xlink:href="#AppleGothic-115"/>
    <use x="868.499802" xlink:href="#AppleGothic-101"/>
    <use x="923.399796" xlink:href="#AppleGothic-115"/>
    <use x="972.999786" xlink:href="#AppleGothic-32"/>
    <use x="1004.999771" xlink:href="#AppleGothic-97"/>
    <use x="1061.499756" xlink:href="#AppleGothic-110"/>
    <use x="1117.39975" xlink:href="#AppleGothic-100"/>
    <use x="1171.399734" xlink:href="#AppleGothic-32"/>
    <use x="1203.399719" xlink:href="#AppleGothic-68"/>
    <use x="1271.899704" xlink:href="#AppleGothic-101"/>
    <use x="1326.799698" xlink:href="#AppleGothic-97"/>
    <use x="1383.299683" xlink:href="#AppleGothic-116"/>
    <use x="1417.49968" xlink:href="#AppleGothic-104"/>
    <use x="1469.699677" xlink:href="#AppleGothic-115"/>
    <use x="1519.299667" xlink:href="#AppleGothic-32"/>
    <use x="1551.299652" xlink:href="#AppleGothic-98"/>
    <use x="1607.499649" xlink:href="#AppleGothic-121"/>
    <use x="1663.199646" xlink:href="#AppleGothic-32"/>
    <use x="1695.199631" xlink:href="#AppleGothic-83"/>
    <use x="1758.399628" xlink:href="#AppleGothic-116"/>
    <use x="1792.599625" xlink:href="#AppleGothic-97"/>
    <use x="1849.099609" xlink:href="#AppleGothic-116"/>
    <use x="1883.299606" xlink:href="#AppleGothic-101"/>
    <use x="1938.1996" xlink:href="#AppleGothic-32"/>
    <use x="1970.199585" xlink:href="#AppleGothic-111"/>
    <use x="2028.499573" xlink:href="#AppleGothic-118"/>
    <use x="2082.69957" xlink:href="#AppleGothic-101"/>
    <use x="2137.599564" xlink:href="#AppleGothic-114"/>
    <use x="2172.799561" xlink:href="#AppleGothic-32"/>
    <use x="2204.799545" xlink:href="#AppleGothic-84"/>
    <use x="2270.899536" xlink:href="#AppleGothic-105"/>
    <use x="2286.79953" xlink:href="#AppleGothic-109"/>
    <use x="2376.099518" xlink:href="#AppleGothic-101"/>
   </g>
  </g>
  <g id="text_31">
   <!-- Centers for Disease Control and Prevention, COVID-19 Response.  -->
   <g transform="translate(116.3865 64.488075)scale(0.16 -0.16)">
    <defs>
     <path d="M 10.09375 53.59375 
L 10.09375 63.796875 
Q 10.09375 70.90625 12.796875 74.59375 
Q 16.203125 79.703125 24.296875 79.703125 
Q 25.203125 79.703125 25.890625 79.640625 
Q 26.59375 79.59375 27.34375 79.5 
Q 28.09375 79.40625 29.09375 79.09375 
Q 30.09375 78.796875 31.5 78.40625 
L 31.5 71.796875 
Q 31.203125 72.203125 28.703125 72.703125 
Q 27.59375 72.90625 26.75 73 
Q 25.90625 73.09375 25.296875 73.09375 
Q 21.09375 73.09375 19.1875 70.6875 
Q 17.296875 68.296875 17.296875 63.796875 
L 17.296875 53.59375 
L 31.5 53.59375 
L 31.5 47.09375 
L 17.296875 47.09375 
L 17.296875 0 
L 10.09375 0 
L 10.09375 47.09375 
L 1 47.09375 
L 1 53.59375 
z
" id="AppleGothic-102"/>
     <path d="M 4.5 78.40625 
L 11.703125 78.40625 
L 11.703125 0 
L 4.5 0 
z
" id="AppleGothic-108"/>
     <path d="M 4.09375 78.40625 
L 29.203125 78.40625 
Q 40 78.40625 46.90625 74.703125 
Q 56.203125 69.5 56.203125 58.09375 
Q 56.203125 47.09375 48.5 41.09375 
Q 41.5 35.5 30.5 35.5 
L 12 35.5 
L 12 0 
L 4.09375 0 
z
M 29.09375 71.5 
L 12 71.5 
L 12 42.40625 
L 29.703125 42.40625 
Q 36.703125 42.40625 41.796875 46.09375 
Q 47.5 50.296875 47.5 57.40625 
Q 47.5 65.40625 40.796875 68.90625 
Q 35.90625 71.5 29.09375 71.5 
z
" id="AppleGothic-80"/>
     <path d="M 12.59375 -14.703125 
L 8.59375 -14.703125 
Q 10.40625 -10.90625 11.296875 -7.84375 
Q 12.203125 -4.796875 12.59375 -1 
Q 10.40625 0 9.40625 1.203125 
Q 8.203125 2.5 8.203125 5.40625 
Q 8.203125 9 9.84375 11.25 
Q 11.5 13.5 13.796875 13.5 
Q 16.09375 13.5 17.390625 10.953125 
Q 18.703125 8.40625 18.703125 5.09375 
Q 18.703125 2.203125 18.140625 -0.75 
Q 17.59375 -3.703125 16.5 -6.703125 
Q 15.796875 -8.40625 14.84375 -10.34375 
Q 13.90625 -12.296875 12.59375 -14.703125 
z
" id="AppleGothic-44"/>
     <path d="M 4.90625 78.40625 
L 30.796875 78.40625 
Q 41.203125 78.40625 48 75 
Q 57.5 70.203125 57.5 59 
Q 57.5 51.296875 53.203125 46.390625 
Q 48.90625 41.5 39.40625 38.59375 
Q 41.09375 37.90625 42.390625 37.25 
Q 43.703125 36.59375 44.5 35.796875 
Q 48 32.796875 50 27 
L 60 0 
L 51.09375 0 
L 45.90625 16.40625 
Q 41.796875 28.703125 37.296875 32.5 
Q 33.40625 36.09375 24.40625 36.09375 
L 12.796875 36.09375 
L 12.796875 0 
L 4.90625 0 
z
M 32.296875 71.5 
L 12.796875 71.5 
L 12.796875 42.296875 
L 24.796875 42.296875 
Q 32 42.296875 36.953125 43.640625 
Q 41.90625 45 45 48 
Q 47.09375 49.90625 48.4375 52.703125 
Q 49.796875 55.5 49.796875 58.40625 
Q 49.796875 63.90625 45.296875 67.5 
Q 40.40625 71.5 32.296875 71.5 
z
" id="AppleGothic-82"/>
     <path d="M 11.5 4.796875 
L 11.5 -17.203125 
L 4.5 -17.203125 
L 4.5 53.5 
L 11 53.5 
L 11.40625 43.796875 
Q 14.703125 49.203125 19 51.953125 
Q 23.296875 54.703125 29.40625 54.703125 
Q 39.40625 54.703125 46 46.90625 
Q 49.40625 43 51.09375 38.140625 
Q 52.796875 33.296875 52.796875 27.296875 
Q 52.796875 14.90625 45.296875 6.796875 
Q 37.796875 -1.296875 27.40625 -1.296875 
Q 22.203125 -1.296875 17.796875 0.90625 
Q 16.5 1.40625 15 2.40625 
Q 13.5 3.40625 11.5 4.796875 
z
M 11.5 28.5 
L 11.5 12.5 
Q 13.09375 11 14.4375 9.953125 
Q 15.796875 8.90625 16.90625 8.203125 
Q 21.796875 5.296875 26.796875 5.296875 
Q 34.796875 5.296875 39.90625 11.59375 
Q 45.09375 18.203125 45.09375 27.59375 
Q 45.09375 36.40625 40.296875 42.296875 
Q 35.59375 48.203125 28.296875 48.203125 
Q 20.796875 48.203125 15.90625 41.703125 
Q 11.5 35.796875 11.5 28.5 
z
" id="AppleGothic-112"/>
     <path d="M 14.296875 -0.296875 
Q 11.90625 -0.296875 10.203125 1.703125 
Q 8.5 3.703125 8.5 6.59375 
Q 8.5 9.59375 10.25 11.640625 
Q 12 13.703125 14.296875 13.703125 
Q 16.5 13.703125 18.25 11.84375 
Q 20 10 20 6.796875 
Q 20 3.796875 18.296875 1.75 
Q 16.59375 -0.296875 14.296875 -0.296875 
z
" id="AppleGothic-46"/>
    </defs>
    <use xlink:href="#AppleGothic-67"/>
    <use x="68.499985" xlink:href="#AppleGothic-101"/>
    <use x="123.399979" xlink:href="#AppleGothic-110"/>
    <use x="179.299973" xlink:href="#AppleGothic-116"/>
    <use x="213.499969" xlink:href="#AppleGothic-101"/>
    <use x="268.399963" xlink:href="#AppleGothic-114"/>
    <use x="303.59996" xlink:href="#AppleGothic-115"/>
    <use x="353.199951" xlink:href="#AppleGothic-32"/>
    <use x="385.199936" xlink:href="#AppleGothic-102"/>
    <use x="419.199921" xlink:href="#AppleGothic-111"/>
    <use x="477.499908" xlink:href="#AppleGothic-114"/>
    <use x="512.699905" xlink:href="#AppleGothic-32"/>
    <use x="544.69989" xlink:href="#AppleGothic-68"/>
    <use x="613.199875" xlink:href="#AppleGothic-105"/>
    <use x="629.099869" xlink:href="#AppleGothic-115"/>
    <use x="678.69986" xlink:href="#AppleGothic-101"/>
    <use x="733.599854" xlink:href="#AppleGothic-97"/>
    <use x="790.099838" xlink:href="#AppleGothic-115"/>
    <use x="839.699829" xlink:href="#AppleGothic-101"/>
    <use x="894.599823" xlink:href="#AppleGothic-32"/>
    <use x="926.599808" xlink:href="#AppleGothic-67"/>
    <use x="995.099792" xlink:href="#AppleGothic-111"/>
    <use x="1053.39978" xlink:href="#AppleGothic-110"/>
    <use x="1109.299774" xlink:href="#AppleGothic-116"/>
    <use x="1143.499771" xlink:href="#AppleGothic-114"/>
    <use x="1178.699768" xlink:href="#AppleGothic-111"/>
    <use x="1236.999756" xlink:href="#AppleGothic-108"/>
    <use x="1253.699753" xlink:href="#AppleGothic-32"/>
    <use x="1285.699738" xlink:href="#AppleGothic-97"/>
    <use x="1342.199722" xlink:href="#AppleGothic-110"/>
    <use x="1398.099716" xlink:href="#AppleGothic-100"/>
    <use x="1452.099701" xlink:href="#AppleGothic-32"/>
    <use x="1484.099686" xlink:href="#AppleGothic-80"/>
    <use x="1544.399673" xlink:href="#AppleGothic-114"/>
    <use x="1579.59967" xlink:href="#AppleGothic-101"/>
    <use x="1634.499664" xlink:href="#AppleGothic-118"/>
    <use x="1688.699661" xlink:href="#AppleGothic-101"/>
    <use x="1743.599655" xlink:href="#AppleGothic-110"/>
    <use x="1799.499649" xlink:href="#AppleGothic-116"/>
    <use x="1833.699646" xlink:href="#AppleGothic-105"/>
    <use x="1849.59964" xlink:href="#AppleGothic-111"/>
    <use x="1907.899628" xlink:href="#AppleGothic-110"/>
    <use x="1963.799622" xlink:href="#AppleGothic-44"/>
    <use x="1992.099609" xlink:href="#AppleGothic-32"/>
    <use x="2024.099594" xlink:href="#AppleGothic-67"/>
    <use x="2092.599579" xlink:href="#AppleGothic-79"/>
    <use x="2170.19957" xlink:href="#AppleGothic-86"/>
    <use x="2241.299561" xlink:href="#AppleGothic-73"/>
    <use x="2262.799545" xlink:href="#AppleGothic-68"/>
    <use x="2331.29953" xlink:href="#AppleGothic-45"/>
    <use x="2381.299515" xlink:href="#AppleGothic-49"/>
    <use x="2449.2995" xlink:href="#AppleGothic-57"/>
    <use x="2517.299484" xlink:href="#AppleGothic-32"/>
    <use x="2549.299469" xlink:href="#AppleGothic-82"/>
    <use x="2613.299454" xlink:href="#AppleGothic-101"/>
    <use x="2668.199448" xlink:href="#AppleGothic-115"/>
    <use x="2717.799438" xlink:href="#AppleGothic-112"/>
    <use x="2773.199432" xlink:href="#AppleGothic-111"/>
    <use x="2831.49942" xlink:href="#AppleGothic-110"/>
    <use x="2887.399414" xlink:href="#AppleGothic-115"/>
    <use x="2936.999405" xlink:href="#AppleGothic-101"/>
    <use x="2991.899399" xlink:href="#AppleGothic-46"/>
    <use x="3026.399384" xlink:href="#AppleGothic-32"/>
   </g>
   <!-- US COVID-19 Cases and Deaths by State over Time (code 9mfq-cb36 from https://data.cdc.gov/resource/9mfq-cb36  -->
   <g transform="translate(116.3865 83.023575)scale(0.16 -0.16)">
    <defs>
     <path d="M 34.796875 82.203125 
L 41.40625 82.203125 
Q 36.59375 74.5 33.890625 69.890625 
Q 31.203125 65.296875 30.59375 63.796875 
Q 25.09375 51.296875 25.09375 35.5 
Q 25.09375 24.796875 27.40625 15.90625 
Q 29.40625 8.90625 33.40625 1.59375 
Q 33.59375 1.09375 35.546875 -2.046875 
Q 37.5 -5.203125 41.09375 -11.203125 
L 34.796875 -11.203125 
Q 32.796875 -8.296875 30.9375 -5.546875 
Q 29.09375 -2.796875 27.09375 0 
Q 24.703125 3.796875 22.953125 7.546875 
Q 21.203125 11.296875 19.90625 14.90625 
Q 16.703125 24.796875 16.703125 35.5 
Q 16.703125 46.296875 19.703125 55.59375 
Q 20.90625 59.203125 22.65625 62.84375 
Q 24.40625 66.5 26.796875 70.296875 
Q 28.796875 73.296875 30.796875 76.25 
Q 32.796875 79.203125 34.796875 82.203125 
z
" id="AppleGothic-40"/>
     <path d="M 42.59375 48.09375 
L 44.296875 53.5 
L 49.796875 53.5 
L 49.796875 -17.203125 
L 42.59375 -17.203125 
L 42.59375 9.09375 
Q 36.09375 -1.296875 25.203125 -1.296875 
Q 15.59375 -1.296875 8.59375 6.296875 
Q 1.296875 14.296875 1.296875 26.09375 
Q 1.296875 37.703125 8.296875 46.203125 
Q 15.5 54.703125 26.40625 54.703125 
Q 32.203125 54.703125 36.90625 52.203125 
Q 39.703125 51 42.59375 48.09375 
z
M 42.59375 26.40625 
L 42.59375 40.203125 
Q 39.40625 44 35.296875 46.09375 
Q 31.203125 48.203125 27.296875 48.203125 
Q 19.40625 48.203125 14.296875 41.796875 
Q 9.09375 35.203125 9.09375 26.203125 
Q 9.09375 16.59375 14.796875 10.5 
Q 19.703125 5.296875 26 5.296875 
Q 32 5.296875 36.90625 10.296875 
Q 42.59375 16.296875 42.59375 26.40625 
z
" id="AppleGothic-113"/>
     <path d="M 8.59375 5.203125 
L 8.59375 13.59375 
Q 13.796875 9.703125 19.296875 7.546875 
Q 24.796875 5.40625 30.796875 5.40625 
Q 39.40625 5.40625 44.703125 10.40625 
Q 50.296875 15.5 50.296875 22.203125 
Q 50.296875 29.203125 44.40625 32.796875 
Q 39.296875 36 30.703125 36 
L 15.5 36 
L 15.5 42.203125 
L 25.90625 42.203125 
Q 35.90625 42.203125 41.59375 45.75 
Q 47.296875 49.296875 47.296875 56 
Q 47.296875 61.5 43 65.203125 
Q 38.40625 69.203125 30.90625 69.203125 
Q 27.90625 69.203125 24.953125 68.640625 
Q 22 68.09375 19.09375 66.90625 
Q 13.90625 64.703125 8.296875 60.5 
L 8.296875 69.09375 
Q 11.5 70.796875 14.25 72 
Q 17 73.203125 19.59375 74 
Q 25.40625 75.90625 31.59375 75.90625 
Q 41.40625 75.90625 47.90625 70.796875 
Q 54.5 65.796875 54.5 56.90625 
Q 54.5 49.5 49.5 44.703125 
Q 46.5 41.796875 41.296875 39.90625 
Q 44.90625 39.40625 47.703125 38.25 
Q 50.5 37.09375 52.59375 35.40625 
Q 58.09375 30.796875 58.09375 22.40625 
Q 58.09375 12.703125 50.296875 5.703125 
Q 42.40625 -1.296875 30.703125 -1.296875 
Q 24.203125 -1.296875 17.59375 1.09375 
Q 16 1.59375 13.75 2.59375 
Q 11.5 3.59375 8.59375 5.203125 
z
" id="AppleGothic-51"/>
     <path d="M 57.796875 71.203125 
L 57.796875 62.703125 
Q 56 64.09375 54.296875 65.046875 
Q 52.59375 66 50.90625 66.796875 
Q 48.203125 68.09375 45.59375 68.640625 
Q 43 69.203125 40.40625 69.203125 
Q 38.59375 69.203125 36.75 68.890625 
Q 34.90625 68.59375 33.09375 67.796875 
Q 26.09375 64.90625 21.796875 58.40625 
Q 15.796875 49.203125 15.796875 34.203125 
Q 20.5 38.90625 24.5 41.5 
Q 31.59375 45.796875 39.59375 45.796875 
Q 49.40625 45.796875 56 40.09375 
Q 63.09375 33.796875 63.09375 23.296875 
Q 63.09375 12.59375 55.59375 5.59375 
Q 48.09375 -1.296875 37.40625 -1.296875 
Q 26.09375 -1.296875 17.90625 7.09375 
Q 8.09375 17 8.09375 35.203125 
Q 8.09375 53.296875 17.5 64.59375 
Q 26.796875 75.90625 40.703125 75.90625 
Q 45.90625 75.90625 50.40625 74.40625 
Q 51.703125 73.90625 53.546875 73.15625 
Q 55.40625 72.40625 57.796875 71.203125 
z
M 16.59375 26.59375 
Q 18 18 23.40625 12 
Q 29.40625 5.40625 37.796875 5.40625 
Q 45.296875 5.40625 50.203125 10.296875 
Q 55.296875 15.203125 55.296875 22.796875 
Q 55.296875 30 50.40625 34.59375 
Q 45.59375 39.09375 39 39.09375 
Q 31.09375 39.09375 24.09375 34 
Q 22.09375 32.5 20.1875 30.703125 
Q 18.296875 28.90625 16.59375 26.59375 
z
" id="AppleGothic-54"/>
     <path d="M 24.796875 39.90625 
Q 22.40625 39.90625 21.203125 41.90625 
Q 20 43.90625 20 46.796875 
Q 20 49.796875 21.25 51.84375 
Q 22.5 53.90625 24.796875 53.90625 
Q 26.90625 53.90625 28.203125 52.046875 
Q 29.5 50.203125 29.5 47 
Q 29.5 44 28.296875 41.953125 
Q 27.09375 39.90625 24.796875 39.90625 
z
M 24.796875 -0.296875 
Q 22.40625 -0.296875 21.203125 1.703125 
Q 20 3.703125 20 6.59375 
Q 20 9.59375 21.25 11.640625 
Q 22.5 13.703125 24.796875 13.703125 
Q 26.90625 13.703125 28.203125 11.84375 
Q 29.5 10 29.5 6.796875 
Q 29.5 3.796875 28.296875 1.75 
Q 27.09375 -0.296875 24.796875 -0.296875 
z
" id="AppleGothic-58"/>
     <path d="M 30.703125 78.40625 
L 37 78.40625 
L 7.703125 -10.5 
L 1.40625 -10.5 
z
" id="AppleGothic-47"/>
     <path d="M 44.09375 47.5 
L 46.09375 53.5 
L 51.40625 53.5 
L 51.40625 5.09375 
Q 51.40625 -7.40625 45.296875 -13.90625 
Q 39.203125 -20.40625 26.40625 -20.40625 
Q 21.203125 -20.40625 16.546875 -18.546875 
Q 11.90625 -16.703125 6.796875 -12.796875 
L 6.796875 -4 
Q 10 -7 13.09375 -9.046875 
Q 16.203125 -11.09375 19.203125 -12.203125 
Q 22.703125 -13.5 26.40625 -13.5 
Q 34.296875 -13.5 38.703125 -9.90625 
Q 44.09375 -5.5 44.09375 4.203125 
L 44.09375 10.796875 
Q 40.296875 4.5 34.703125 1.90625 
Q 30.90625 0.09375 26.296875 0.09375 
Q 16.40625 0.09375 9.703125 8 
Q 3.09375 16.09375 3.09375 26.703125 
Q 3.09375 37.296875 9.296875 45.40625 
Q 16.5 54.703125 27.703125 54.703125 
Q 33.296875 54.703125 38.296875 52 
Q 39.796875 51.09375 41.25 50 
Q 42.703125 48.90625 44.09375 47.5 
z
M 44.09375 25.90625 
L 44.09375 40.59375 
Q 42.40625 42.5 40.65625 43.796875 
Q 38.90625 45.09375 37.203125 46.09375 
Q 35.203125 47.203125 33.09375 47.703125 
Q 31 48.203125 28.796875 48.203125 
Q 21.296875 48.203125 16.40625 42.90625 
Q 10.90625 36.90625 10.90625 27.09375 
Q 10.90625 18.203125 15.5 12.40625 
Q 20 6.703125 27.203125 6.703125 
Q 34.296875 6.703125 39.203125 12.203125 
Q 44.09375 17.5 44.09375 25.90625 
z
" id="AppleGothic-103"/>
     <path d="M 4.09375 53.5 
L 11.40625 53.5 
L 11.40625 19.40625 
Q 11.40625 13.703125 14.703125 9.796875 
Q 18.296875 5.296875 24.90625 5.296875 
Q 32.5 5.296875 37.90625 11.40625 
Q 43.5 17.796875 43.5 25.5 
L 43.5 53.5 
L 50.703125 53.5 
L 50.703125 0 
L 44.40625 0 
L 43.90625 9.09375 
Q 42.296875 6.90625 40.5 5.15625 
Q 38.703125 3.40625 36.59375 2.09375 
Q 31 -1.296875 24.296875 -1.296875 
Q 15.09375 -1.296875 9.59375 4.40625 
Q 4.09375 10.203125 4.09375 18.5 
z
" id="AppleGothic-117"/>
    </defs>
    <use xlink:href="#AppleGothic-85"/>
    <use x="73.499985" xlink:href="#AppleGothic-83"/>
    <use x="136.699982" xlink:href="#AppleGothic-32"/>
    <use x="168.699966" xlink:href="#AppleGothic-67"/>
    <use x="237.199951" xlink:href="#AppleGothic-79"/>
    <use x="314.799942" xlink:href="#AppleGothic-86"/>
    <use x="385.899933" xlink:href="#AppleGothic-73"/>
    <use x="407.399918" xlink:href="#AppleGothic-68"/>
    <use x="475.899902" xlink:href="#AppleGothic-45"/>
    <use x="525.899887" xlink:href="#AppleGothic-49"/>
    <use x="593.899872" xlink:href="#AppleGothic-57"/>
    <use x="661.899857" xlink:href="#AppleGothic-32"/>
    <use x="693.899841" xlink:href="#AppleGothic-67"/>
    <use x="762.399826" xlink:href="#AppleGothic-97"/>
    <use x="818.899811" xlink:href="#AppleGothic-115"/>
    <use x="868.499802" xlink:href="#AppleGothic-101"/>
    <use x="923.399796" xlink:href="#AppleGothic-115"/>
    <use x="972.999786" xlink:href="#AppleGothic-32"/>
    <use x="1004.999771" xlink:href="#AppleGothic-97"/>
    <use x="1061.499756" xlink:href="#AppleGothic-110"/>
    <use x="1117.39975" xlink:href="#AppleGothic-100"/>
    <use x="1171.399734" xlink:href="#AppleGothic-32"/>
    <use x="1203.399719" xlink:href="#AppleGothic-68"/>
    <use x="1271.899704" xlink:href="#AppleGothic-101"/>
    <use x="1326.799698" xlink:href="#AppleGothic-97"/>
    <use x="1383.299683" xlink:href="#AppleGothic-116"/>
    <use x="1417.49968" xlink:href="#AppleGothic-104"/>
    <use x="1469.699677" xlink:href="#AppleGothic-115"/>
    <use x="1519.299667" xlink:href="#AppleGothic-32"/>
    <use x="1551.299652" xlink:href="#AppleGothic-98"/>
    <use x="1607.499649" xlink:href="#AppleGothic-121"/>
    <use x="1663.199646" xlink:href="#AppleGothic-32"/>
    <use x="1695.199631" xlink:href="#AppleGothic-83"/>
    <use x="1758.399628" xlink:href="#AppleGothic-116"/>
    <use x="1792.599625" xlink:href="#AppleGothic-97"/>
    <use x="1849.099609" xlink:href="#AppleGothic-116"/>
    <use x="1883.299606" xlink:href="#AppleGothic-101"/>
    <use x="1938.1996" xlink:href="#AppleGothic-32"/>
    <use x="1970.199585" xlink:href="#AppleGothic-111"/>
    <use x="2028.499573" xlink:href="#AppleGothic-118"/>
    <use x="2082.69957" xlink:href="#AppleGothic-101"/>
    <use x="2137.599564" xlink:href="#AppleGothic-114"/>
    <use x="2172.799561" xlink:href="#AppleGothic-32"/>
    <use x="2204.799545" xlink:href="#AppleGothic-84"/>
    <use x="2270.899536" xlink:href="#AppleGothic-105"/>
    <use x="2286.79953" xlink:href="#AppleGothic-109"/>
    <use x="2376.099518" xlink:href="#AppleGothic-101"/>
    <use x="2430.999512" xlink:href="#AppleGothic-32"/>
    <use x="2462.999496" xlink:href="#AppleGothic-40"/>
    <use x="2512.999481" xlink:href="#AppleGothic-99"/>
    <use x="2564.899475" xlink:href="#AppleGothic-111"/>
    <use x="2623.199463" xlink:href="#AppleGothic-100"/>
    <use x="2677.199448" xlink:href="#AppleGothic-101"/>
    <use x="2732.099442" xlink:href="#AppleGothic-32"/>
    <use x="2764.099426" xlink:href="#AppleGothic-57"/>
    <use x="2832.099411" xlink:href="#AppleGothic-109"/>
    <use x="2921.399399" xlink:href="#AppleGothic-102"/>
    <use x="2955.399384" xlink:href="#AppleGothic-113"/>
    <use x="3010.09938" xlink:href="#AppleGothic-45"/>
    <use x="3060.099365" xlink:href="#AppleGothic-99"/>
    <use x="3111.999359" xlink:href="#AppleGothic-98"/>
    <use x="3168.199356" xlink:href="#AppleGothic-51"/>
    <use x="3236.199341" xlink:href="#AppleGothic-54"/>
    <use x="3304.199326" xlink:href="#AppleGothic-32"/>
    <use x="3336.19931" xlink:href="#AppleGothic-102"/>
    <use x="3370.199295" xlink:href="#AppleGothic-114"/>
    <use x="3405.399292" xlink:href="#AppleGothic-111"/>
    <use x="3463.69928" xlink:href="#AppleGothic-109"/>
    <use x="3552.999268" xlink:href="#AppleGothic-32"/>
    <use x="3584.999252" xlink:href="#AppleGothic-104"/>
    <use x="3637.199249" xlink:href="#AppleGothic-116"/>
    <use x="3671.399246" xlink:href="#AppleGothic-116"/>
    <use x="3705.599243" xlink:href="#AppleGothic-112"/>
    <use x="3760.999237" xlink:href="#AppleGothic-115"/>
    <use x="3810.599228" xlink:href="#AppleGothic-58"/>
    <use x="3860.599213" xlink:href="#AppleGothic-47"/>
    <use x="3910.599197" xlink:href="#AppleGothic-47"/>
    <use x="3960.599182" xlink:href="#AppleGothic-100"/>
    <use x="4014.599167" xlink:href="#AppleGothic-97"/>
    <use x="4071.099152" xlink:href="#AppleGothic-116"/>
    <use x="4105.299149" xlink:href="#AppleGothic-97"/>
    <use x="4161.799133" xlink:href="#AppleGothic-46"/>
    <use x="4196.299118" xlink:href="#AppleGothic-99"/>
    <use x="4248.199112" xlink:href="#AppleGothic-100"/>
    <use x="4302.199097" xlink:href="#AppleGothic-99"/>
    <use x="4354.099091" xlink:href="#AppleGothic-46"/>
    <use x="4388.599075" xlink:href="#AppleGothic-103"/>
    <use x="4444.799072" xlink:href="#AppleGothic-111"/>
    <use x="4503.09906" xlink:href="#AppleGothic-118"/>
    <use x="4557.299057" xlink:href="#AppleGothic-47"/>
    <use x="4607.299042" xlink:href="#AppleGothic-114"/>
    <use x="4642.499039" xlink:href="#AppleGothic-101"/>
    <use x="4697.399033" xlink:href="#AppleGothic-115"/>
    <use x="4746.999023" xlink:href="#AppleGothic-111"/>
    <use x="4805.299011" xlink:href="#AppleGothic-117"/>
    <use x="4860.798996" xlink:href="#AppleGothic-114"/>
    <use x="4895.998993" xlink:href="#AppleGothic-99"/>
    <use x="4947.898987" xlink:href="#AppleGothic-101"/>
    <use x="5002.798981" xlink:href="#AppleGothic-47"/>
    <use x="5052.798965" xlink:href="#AppleGothic-57"/>
    <use x="5120.79895" xlink:href="#AppleGothic-109"/>
    <use x="5210.098938" xlink:href="#AppleGothic-102"/>
    <use x="5244.098923" xlink:href="#AppleGothic-113"/>
    <use x="5298.79892" xlink:href="#AppleGothic-45"/>
    <use x="5348.798904" xlink:href="#AppleGothic-99"/>
    <use x="5400.698898" xlink:href="#AppleGothic-98"/>
    <use x="5456.898895" xlink:href="#AppleGothic-51"/>
    <use x="5524.89888" xlink:href="#AppleGothic-54"/>
    <use x="5592.898865" xlink:href="#AppleGothic-32"/>
   </g>
   <!-- Latest Record date =  12/01/2020 -->
   <g transform="translate(116.3865 101.342575)scale(0.16 -0.16)">
    <defs>
     <path d="M 5.203125 78.40625 
L 13.09375 78.40625 
L 13.09375 6.90625 
L 51.796875 6.90625 
L 51.796875 0 
L 5.203125 0 
z
" id="AppleGothic-76"/>
     <path d="M 7.296875 53.703125 
L 68.09375 53.703125 
L 68.09375 47.296875 
L 7.296875 47.296875 
z
M 7.296875 27.09375 
L 68.09375 27.09375 
L 68.09375 21 
L 7.296875 21 
z
" id="AppleGothic-61"/>
     <path d="M 17.203125 6.703125 
L 61.59375 6.703125 
L 61.59375 0 
L 10.203125 0 
L 10.203125 3.203125 
Q 10.203125 15.90625 21 26 
Q 26.09375 29.59375 31.09375 33.1875 
Q 36.09375 36.796875 41.203125 40.5 
Q 52.09375 48.40625 52.09375 56.203125 
Q 52.09375 62.40625 47.09375 65.90625 
Q 44.796875 67.59375 42.09375 68.390625 
Q 39.40625 69.203125 36.203125 69.203125 
Q 31.5 69.203125 27.203125 68 
Q 20.703125 66 13.796875 61.09375 
L 13.796875 69.296875 
Q 20.703125 72.796875 26.046875 74.34375 
Q 31.40625 75.90625 36.203125 75.90625 
Q 46.296875 75.90625 53.203125 70.703125 
Q 60 65.59375 60 56.59375 
Q 60 46.796875 49.5 38.09375 
Q 44.5 34.59375 39.546875 31.25 
Q 34.59375 27.90625 29.59375 24.40625 
Q 18.40625 16 17.203125 6.703125 
z
" id="AppleGothic-50"/>
     <path d="M 34.796875 -1.296875 
Q 22.09375 -1.296875 14.59375 9 
Q 7.203125 19.203125 7.203125 37.296875 
Q 7.203125 55.5 15.203125 65.90625 
Q 22.703125 75.90625 34.703125 75.90625 
Q 47.296875 75.90625 54.40625 65.203125 
Q 61.796875 54.59375 61.796875 37.40625 
Q 61.796875 19.5 54.09375 9.09375 
Q 46.5 -1.296875 34.796875 -1.296875 
z
M 34 5.40625 
Q 44.703125 5.40625 50 15.5 
Q 54.09375 24 54.09375 37.5 
Q 54.09375 51.796875 49.40625 60.296875 
Q 44.09375 69.203125 34.59375 69.203125 
Q 24.59375 69.203125 19.5 59.703125 
Q 15 51.296875 15 37.09375 
Q 15 23.09375 19.5 14.703125 
Q 24.59375 5.40625 34 5.40625 
z
" id="AppleGothic-48"/>
    </defs>
    <use xlink:href="#AppleGothic-76"/>
    <use x="55.199997" xlink:href="#AppleGothic-97"/>
    <use x="111.699982" xlink:href="#AppleGothic-116"/>
    <use x="145.899979" xlink:href="#AppleGothic-101"/>
    <use x="200.799973" xlink:href="#AppleGothic-115"/>
    <use x="250.399963" xlink:href="#AppleGothic-116"/>
    <use x="284.59996" xlink:href="#AppleGothic-32"/>
    <use x="316.599945" xlink:href="#AppleGothic-82"/>
    <use x="380.59993" xlink:href="#AppleGothic-101"/>
    <use x="435.499924" xlink:href="#AppleGothic-99"/>
    <use x="487.399918" xlink:href="#AppleGothic-111"/>
    <use x="545.699905" xlink:href="#AppleGothic-114"/>
    <use x="580.899902" xlink:href="#AppleGothic-100"/>
    <use x="634.899887" xlink:href="#AppleGothic-32"/>
    <use x="666.899872" xlink:href="#AppleGothic-100"/>
    <use x="720.899857" xlink:href="#AppleGothic-97"/>
    <use x="777.399841" xlink:href="#AppleGothic-116"/>
    <use x="811.599838" xlink:href="#AppleGothic-101"/>
    <use x="866.499832" xlink:href="#AppleGothic-32"/>
    <use x="898.499817" xlink:href="#AppleGothic-61"/>
    <use x="975.299805" xlink:href="#AppleGothic-32"/>
    <use x="1007.299789" xlink:href="#AppleGothic-32"/>
    <use x="1039.299774" xlink:href="#AppleGothic-49"/>
    <use x="1107.299759" xlink:href="#AppleGothic-50"/>
    <use x="1175.299744" xlink:href="#AppleGothic-47"/>
    <use x="1225.299728" xlink:href="#AppleGothic-48"/>
    <use x="1293.299713" xlink:href="#AppleGothic-49"/>
    <use x="1361.299698" xlink:href="#AppleGothic-47"/>
    <use x="1411.299683" xlink:href="#AppleGothic-50"/>
    <use x="1479.299667" xlink:href="#AppleGothic-48"/>
    <use x="1547.299652" xlink:href="#AppleGothic-50"/>
    <use x="1615.299637" xlink:href="#AppleGothic-48"/>
   </g>
   <!-- Total Cases Logged =  13,626,022 -->
   <g transform="translate(116.3865 119.398075)scale(0.16 -0.16)">
    <use xlink:href="#AppleGothic-84"/>
    <use x="66.099991" xlink:href="#AppleGothic-111"/>
    <use x="124.399979" xlink:href="#AppleGothic-116"/>
    <use x="158.599976" xlink:href="#AppleGothic-97"/>
    <use x="215.09996" xlink:href="#AppleGothic-108"/>
    <use x="231.799957" xlink:href="#AppleGothic-32"/>
    <use x="263.799942" xlink:href="#AppleGothic-67"/>
    <use x="332.299927" xlink:href="#AppleGothic-97"/>
    <use x="388.799911" xlink:href="#AppleGothic-115"/>
    <use x="438.399902" xlink:href="#AppleGothic-101"/>
    <use x="493.299896" xlink:href="#AppleGothic-115"/>
    <use x="542.899887" xlink:href="#AppleGothic-32"/>
    <use x="574.899872" xlink:href="#AppleGothic-76"/>
    <use x="630.099869" xlink:href="#AppleGothic-111"/>
    <use x="688.399857" xlink:href="#AppleGothic-103"/>
    <use x="744.599854" xlink:href="#AppleGothic-103"/>
    <use x="800.79985" xlink:href="#AppleGothic-101"/>
    <use x="855.699844" xlink:href="#AppleGothic-100"/>
    <use x="909.699829" xlink:href="#AppleGothic-32"/>
    <use x="941.699814" xlink:href="#AppleGothic-61"/>
    <use x="1018.499802" xlink:href="#AppleGothic-32"/>
    <use x="1050.499786" xlink:href="#AppleGothic-32"/>
    <use x="1082.499771" xlink:href="#AppleGothic-49"/>
    <use x="1150.499756" xlink:href="#AppleGothic-51"/>
    <use x="1218.499741" xlink:href="#AppleGothic-44"/>
    <use x="1246.799728" xlink:href="#AppleGothic-54"/>
    <use x="1314.799713" xlink:href="#AppleGothic-50"/>
    <use x="1382.799698" xlink:href="#AppleGothic-54"/>
    <use x="1450.799683" xlink:href="#AppleGothic-44"/>
    <use x="1479.09967" xlink:href="#AppleGothic-48"/>
    <use x="1547.099655" xlink:href="#AppleGothic-50"/>
    <use x="1615.09964" xlink:href="#AppleGothic-50"/>
   </g>
   <!-- Total Deaths Logged = 269,763 -->
   <g transform="translate(116.3865 137.735075)scale(0.16 -0.16)">
    <defs>
     <path d="M 9.296875 74.59375 
L 59.40625 74.59375 
L 59.40625 68.90625 
L 27.09375 0 
L 19.296875 0 
L 51.203125 68 
L 9.296875 68 
z
" id="AppleGothic-55"/>
    </defs>
    <use xlink:href="#AppleGothic-84"/>
    <use x="66.099991" xlink:href="#AppleGothic-111"/>
    <use x="124.399979" xlink:href="#AppleGothic-116"/>
    <use x="158.599976" xlink:href="#AppleGothic-97"/>
    <use x="215.09996" xlink:href="#AppleGothic-108"/>
    <use x="231.799957" xlink:href="#AppleGothic-32"/>
    <use x="263.799942" xlink:href="#AppleGothic-68"/>
    <use x="332.299927" xlink:href="#AppleGothic-101"/>
    <use x="387.199921" xlink:href="#AppleGothic-97"/>
    <use x="443.699905" xlink:href="#AppleGothic-116"/>
    <use x="477.899902" xlink:href="#AppleGothic-104"/>
    <use x="530.099899" xlink:href="#AppleGothic-115"/>
    <use x="579.69989" xlink:href="#AppleGothic-32"/>
    <use x="611.699875" xlink:href="#AppleGothic-76"/>
    <use x="666.899872" xlink:href="#AppleGothic-111"/>
    <use x="725.19986" xlink:href="#AppleGothic-103"/>
    <use x="781.399857" xlink:href="#AppleGothic-103"/>
    <use x="837.599854" xlink:href="#AppleGothic-101"/>
    <use x="892.499847" xlink:href="#AppleGothic-100"/>
    <use x="946.499832" xlink:href="#AppleGothic-32"/>
    <use x="978.499817" xlink:href="#AppleGothic-61"/>
    <use x="1055.299805" xlink:href="#AppleGothic-32"/>
    <use x="1087.299789" xlink:href="#AppleGothic-50"/>
    <use x="1155.299774" xlink:href="#AppleGothic-54"/>
    <use x="1223.299759" xlink:href="#AppleGothic-57"/>
    <use x="1291.299744" xlink:href="#AppleGothic-44"/>
    <use x="1319.599731" xlink:href="#AppleGothic-55"/>
    <use x="1387.599716" xlink:href="#AppleGothic-54"/>
    <use x="1455.599701" xlink:href="#AppleGothic-51"/>
   </g>
  </g>
  <g id="text_32">
   <!-- &lt;  deaths logged per day (7-day moving average) -->
   <g style="fill:#ff0000;" transform="translate(480.6735 266.588967)scale(0.16 -0.16)">
    <defs>
     <path d="M 14 37 
L 40 -5.203125 
L 36.40625 -8 
L 8.203125 37 
L 36.40625 82 
L 40 79.203125 
z
" id="AppleGothic-60"/>
     <path d="M 34.703125 35.5 
Q 34.703125 24.796875 31.5 15 
Q 29.09375 7.796875 24.296875 0.09375 
Q 22.296875 -2.796875 20.390625 -5.546875 
Q 18.5 -8.296875 16.59375 -11.203125 
L 10.296875 -11.203125 
Q 12.203125 -8 14.09375 -4.84375 
Q 16 -1.703125 18 1.5 
Q 20 5.203125 21.5 8.703125 
Q 23 12.203125 23.90625 15.703125 
Q 26.296875 24.40625 26.296875 35.5 
Q 26.296875 41.40625 25.640625 46.453125 
Q 25 51.5 23.703125 56 
Q 22.796875 59.40625 21.1875 62.953125 
Q 19.59375 66.5 17.5 70.296875 
Q 15.5 73.296875 13.640625 76.25 
Q 11.796875 79.203125 10 82.203125 
L 16.59375 82.203125 
Q 18.59375 79.203125 20.546875 76.25 
Q 22.5 73.296875 24.5 70.40625 
Q 26.90625 66.5 28.703125 62.84375 
Q 30.5 59.203125 31.59375 55.703125 
Q 34.703125 46.5 34.703125 35.5 
z
" id="AppleGothic-41"/>
    </defs>
    <use xlink:href="#AppleGothic-60"/>
    <use x="49.999985" xlink:href="#AppleGothic-32"/>
    <use x="81.999969" xlink:href="#AppleGothic-32"/>
    <use x="113.999954" xlink:href="#AppleGothic-100"/>
    <use x="167.999939" xlink:href="#AppleGothic-101"/>
    <use x="222.899933" xlink:href="#AppleGothic-97"/>
    <use x="279.399918" xlink:href="#AppleGothic-116"/>
    <use x="313.599915" xlink:href="#AppleGothic-104"/>
    <use x="365.799911" xlink:href="#AppleGothic-115"/>
    <use x="415.399902" xlink:href="#AppleGothic-32"/>
    <use x="447.399887" xlink:href="#AppleGothic-108"/>
    <use x="464.099884" xlink:href="#AppleGothic-111"/>
    <use x="522.399872" xlink:href="#AppleGothic-103"/>
    <use x="578.599869" xlink:href="#AppleGothic-103"/>
    <use x="634.799866" xlink:href="#AppleGothic-101"/>
    <use x="689.69986" xlink:href="#AppleGothic-100"/>
    <use x="743.699844" xlink:href="#AppleGothic-32"/>
    <use x="775.699829" xlink:href="#AppleGothic-112"/>
    <use x="831.099823" xlink:href="#AppleGothic-101"/>
    <use x="885.999817" xlink:href="#AppleGothic-114"/>
    <use x="921.199814" xlink:href="#AppleGothic-32"/>
    <use x="953.199799" xlink:href="#AppleGothic-100"/>
    <use x="1007.199783" xlink:href="#AppleGothic-97"/>
    <use x="1063.699768" xlink:href="#AppleGothic-121"/>
    <use x="1119.399765" xlink:href="#AppleGothic-32"/>
    <use x="1151.39975" xlink:href="#AppleGothic-40"/>
    <use x="1201.399734" xlink:href="#AppleGothic-55"/>
    <use x="1269.399719" xlink:href="#AppleGothic-45"/>
    <use x="1319.399704" xlink:href="#AppleGothic-100"/>
    <use x="1373.399689" xlink:href="#AppleGothic-97"/>
    <use x="1429.899673" xlink:href="#AppleGothic-121"/>
    <use x="1485.59967" xlink:href="#AppleGothic-32"/>
    <use x="1517.599655" xlink:href="#AppleGothic-109"/>
    <use x="1606.899643" xlink:href="#AppleGothic-111"/>
    <use x="1665.199631" xlink:href="#AppleGothic-118"/>
    <use x="1719.399628" xlink:href="#AppleGothic-105"/>
    <use x="1735.299622" xlink:href="#AppleGothic-110"/>
    <use x="1791.199615" xlink:href="#AppleGothic-103"/>
    <use x="1847.399612" xlink:href="#AppleGothic-32"/>
    <use x="1879.399597" xlink:href="#AppleGothic-97"/>
    <use x="1935.899582" xlink:href="#AppleGothic-118"/>
    <use x="1990.099579" xlink:href="#AppleGothic-101"/>
    <use x="2044.999573" xlink:href="#AppleGothic-114"/>
    <use x="2080.19957" xlink:href="#AppleGothic-97"/>
    <use x="2136.699554" xlink:href="#AppleGothic-103"/>
    <use x="2192.899551" xlink:href="#AppleGothic-101"/>
    <use x="2247.799545" xlink:href="#AppleGothic-41"/>
   </g>
  </g>
  <g id="text_33">
   <!-- cases logged per day   &gt; -->
   <g style="fill:#0000ff;" transform="translate(154.7325 514.488804)scale(0.16 -0.16)">
    <defs>
     <path d="M 10 79.203125 
L 13.59375 82 
L 41.796875 37 
L 13.59375 -8 
L 10 -5.203125 
L 36 37 
z
" id="AppleGothic-62"/>
    </defs>
    <use xlink:href="#AppleGothic-99"/>
    <use x="51.899994" xlink:href="#AppleGothic-97"/>
    <use x="108.399979" xlink:href="#AppleGothic-115"/>
    <use x="157.999969" xlink:href="#AppleGothic-101"/>
    <use x="212.899963" xlink:href="#AppleGothic-115"/>
    <use x="262.499954" xlink:href="#AppleGothic-32"/>
    <use x="294.499939" xlink:href="#AppleGothic-108"/>
    <use x="311.199936" xlink:href="#AppleGothic-111"/>
    <use x="369.499924" xlink:href="#AppleGothic-103"/>
    <use x="425.699921" xlink:href="#AppleGothic-103"/>
    <use x="481.899918" xlink:href="#AppleGothic-101"/>
    <use x="536.799911" xlink:href="#AppleGothic-100"/>
    <use x="590.799896" xlink:href="#AppleGothic-32"/>
    <use x="622.799881" xlink:href="#AppleGothic-112"/>
    <use x="678.199875" xlink:href="#AppleGothic-101"/>
    <use x="733.099869" xlink:href="#AppleGothic-114"/>
    <use x="768.299866" xlink:href="#AppleGothic-32"/>
    <use x="800.29985" xlink:href="#AppleGothic-100"/>
    <use x="854.299835" xlink:href="#AppleGothic-97"/>
    <use x="910.79982" xlink:href="#AppleGothic-121"/>
    <use x="966.499817" xlink:href="#AppleGothic-32"/>
    <use x="998.499802" xlink:href="#AppleGothic-32"/>
    <use x="1030.499786" xlink:href="#AppleGothic-32"/>
    <use x="1062.499771" xlink:href="#AppleGothic-62"/>
   </g>
  </g>
 </g>
 <defs>
  <clipPath id="pe881d60fcf">
   <rect height="550.924638" width="958.65" x="106.8" y="41.275362"/>
  </clipPath>
 </defs>
</svg>
