<?xml version="1.0" encoding="utf-8" standalone="no"?>
<!DOCTYPE svg PUBLIC "-//W3C//DTD SVG 1.1//EN"
  "http://www.w3.org/Graphics/SVG/1.1/DTD/svg11.dtd">
<!-- Created with matplotlib (https://matplotlib.org/) -->
<svg height="648pt" version="1.1" viewBox="0 0 1152 648" width="1152pt" xmlns="http://www.w3.org/2000/svg" xmlns:xlink="http://www.w3.org/1999/xlink">
 <metadata>
  <rdf:RDF xmlns:cc="http://creativecommons.org/ns#" xmlns:dc="http://purl.org/dc/elements/1.1/" xmlns:rdf="http://www.w3.org/1999/02/22-rdf-syntax-ns#">
   <cc:Work>
    <dc:type rdf:resource="http://purl.org/dc/dcmitype/StillImage"/>
    <dc:date>2020-11-23T12:43:36.331922</dc:date>
    <dc:format>image/svg+xml</dc:format>
    <dc:creator>
     <cc:Agent>
      <dc:title>Matplotlib v3.3.3, https://matplotlib.org/</dc:title>
     </cc:Agent>
    </dc:creator>
   </cc:Work>
  </rdf:RDF>
 </metadata>
 <defs>
  <style type="text/css">*{stroke-linecap:butt;stroke-linejoin:round;}</style>
 </defs>
 <g id="figure_1">
  <g id="patch_1">
   <path d="M 0 648 
L 1152 648 
L 1152 0 
L 0 0 
z
" style="fill:none;"/>
  </g>
  <g id="axes_1">
   <g id="patch_2">
    <path d="M 106.8 592.2 
L 1055.2 592.2 
L 1055.2 40.6 
L 106.8 40.6 
z
" style="fill:none;"/>
   </g>
   <g id="matplotlib.axis_1">
    <g id="xtick_1">
     <g id="line2d_1">
      <path clip-path="url(#p61be435bfd)" d="M 149.909091 592.2 
L 149.909091 40.6 
" style="fill:none;stroke:#c0c0c0;stroke-linecap:square;stroke-width:0.8;"/>
     </g>
     <g id="line2d_2">
      <defs>
       <path d="M 0 0 
L 0 3.5 
" id="mc1b739e4d7" style="stroke:#000000;stroke-width:0.8;"/>
      </defs>
      <g>
       <use style="stroke:#000000;stroke-width:0.8;" x="149.909091" xlink:href="#mc1b739e4d7" y="592.2"/>
      </g>
     </g>
     <g id="text_1">
      <!-- 2020-01 -->
      <g transform="translate(116.482841 611.3575)scale(0.16 -0.16)">
       <defs>
        <path d="M 19.1875 8.296875 
L 53.609375 8.296875 
L 53.609375 0 
L 7.328125 0 
L 7.328125 8.296875 
Q 12.9375 14.109375 22.625 23.890625 
Q 32.328125 33.6875 34.8125 36.53125 
Q 39.546875 41.84375 41.421875 45.53125 
Q 43.3125 49.21875 43.3125 52.78125 
Q 43.3125 58.59375 39.234375 62.25 
Q 35.15625 65.921875 28.609375 65.921875 
Q 23.96875 65.921875 18.8125 64.3125 
Q 13.671875 62.703125 7.8125 59.421875 
L 7.8125 69.390625 
Q 13.765625 71.78125 18.9375 73 
Q 24.125 74.21875 28.421875 74.21875 
Q 39.75 74.21875 46.484375 68.546875 
Q 53.21875 62.890625 53.21875 53.421875 
Q 53.21875 48.921875 51.53125 44.890625 
Q 49.859375 40.875 45.40625 35.40625 
Q 44.1875 33.984375 37.640625 27.21875 
Q 31.109375 20.453125 19.1875 8.296875 
z
" id="DejaVuSans-50"/>
        <path d="M 31.78125 66.40625 
Q 24.171875 66.40625 20.328125 58.90625 
Q 16.5 51.421875 16.5 36.375 
Q 16.5 21.390625 20.328125 13.890625 
Q 24.171875 6.390625 31.78125 6.390625 
Q 39.453125 6.390625 43.28125 13.890625 
Q 47.125 21.390625 47.125 36.375 
Q 47.125 51.421875 43.28125 58.90625 
Q 39.453125 66.40625 31.78125 66.40625 
z
M 31.78125 74.21875 
Q 44.046875 74.21875 50.515625 64.515625 
Q 56.984375 54.828125 56.984375 36.375 
Q 56.984375 17.96875 50.515625 8.265625 
Q 44.046875 -1.421875 31.78125 -1.421875 
Q 19.53125 -1.421875 13.0625 8.265625 
Q 6.59375 17.96875 6.59375 36.375 
Q 6.59375 54.828125 13.0625 64.515625 
Q 19.53125 74.21875 31.78125 74.21875 
z
" id="DejaVuSans-48"/>
        <path d="M 4.890625 31.390625 
L 31.203125 31.390625 
L 31.203125 23.390625 
L 4.890625 23.390625 
z
" id="DejaVuSans-45"/>
        <path d="M 12.40625 8.296875 
L 28.515625 8.296875 
L 28.515625 63.921875 
L 10.984375 60.40625 
L 10.984375 69.390625 
L 28.421875 72.90625 
L 38.28125 72.90625 
L 38.28125 8.296875 
L 54.390625 8.296875 
L 54.390625 0 
L 12.40625 0 
z
" id="DejaVuSans-49"/>
       </defs>
       <use xlink:href="#DejaVuSans-50"/>
       <use x="63.623047" xlink:href="#DejaVuSans-48"/>
       <use x="127.246094" xlink:href="#DejaVuSans-50"/>
       <use x="190.869141" xlink:href="#DejaVuSans-48"/>
       <use x="254.492188" xlink:href="#DejaVuSans-45"/>
       <use x="290.576172" xlink:href="#DejaVuSans-48"/>
       <use x="354.199219" xlink:href="#DejaVuSans-49"/>
      </g>
     </g>
    </g>
    <g id="xtick_2">
     <g id="line2d_3">
      <path clip-path="url(#p61be435bfd)" d="M 242.392262 592.2 
L 242.392262 40.6 
" style="fill:none;stroke:#c0c0c0;stroke-linecap:square;stroke-width:0.8;"/>
     </g>
     <g id="line2d_4">
      <g>
       <use style="stroke:#000000;stroke-width:0.8;" x="242.392262" xlink:href="#mc1b739e4d7" y="592.2"/>
      </g>
     </g>
     <g id="text_2">
      <!-- 2020-02 -->
      <g transform="translate(208.966012 611.3575)scale(0.16 -0.16)">
       <use xlink:href="#DejaVuSans-50"/>
       <use x="63.623047" xlink:href="#DejaVuSans-48"/>
       <use x="127.246094" xlink:href="#DejaVuSans-50"/>
       <use x="190.869141" xlink:href="#DejaVuSans-48"/>
       <use x="254.492188" xlink:href="#DejaVuSans-45"/>
       <use x="290.576172" xlink:href="#DejaVuSans-48"/>
       <use x="354.199219" xlink:href="#DejaVuSans-50"/>
      </g>
     </g>
    </g>
    <g id="xtick_3">
     <g id="line2d_5">
      <path clip-path="url(#p61be435bfd)" d="M 328.908776 592.2 
L 328.908776 40.6 
" style="fill:none;stroke:#c0c0c0;stroke-linecap:square;stroke-width:0.8;"/>
     </g>
     <g id="line2d_6">
      <g>
       <use style="stroke:#000000;stroke-width:0.8;" x="328.908776" xlink:href="#mc1b739e4d7" y="592.2"/>
      </g>
     </g>
     <g id="text_3">
      <!-- 2020-03 -->
      <g transform="translate(295.482526 611.3575)scale(0.16 -0.16)">
       <defs>
        <path d="M 40.578125 39.3125 
Q 47.65625 37.796875 51.625 33 
Q 55.609375 28.21875 55.609375 21.1875 
Q 55.609375 10.40625 48.1875 4.484375 
Q 40.765625 -1.421875 27.09375 -1.421875 
Q 22.515625 -1.421875 17.65625 -0.515625 
Q 12.796875 0.390625 7.625 2.203125 
L 7.625 11.71875 
Q 11.71875 9.328125 16.59375 8.109375 
Q 21.484375 6.890625 26.8125 6.890625 
Q 36.078125 6.890625 40.9375 10.546875 
Q 45.796875 14.203125 45.796875 21.1875 
Q 45.796875 27.640625 41.28125 31.265625 
Q 36.765625 34.90625 28.71875 34.90625 
L 20.21875 34.90625 
L 20.21875 43.015625 
L 29.109375 43.015625 
Q 36.375 43.015625 40.234375 45.921875 
Q 44.09375 48.828125 44.09375 54.296875 
Q 44.09375 59.90625 40.109375 62.90625 
Q 36.140625 65.921875 28.71875 65.921875 
Q 24.65625 65.921875 20.015625 65.03125 
Q 15.375 64.15625 9.8125 62.3125 
L 9.8125 71.09375 
Q 15.4375 72.65625 20.34375 73.4375 
Q 25.25 74.21875 29.59375 74.21875 
Q 40.828125 74.21875 47.359375 69.109375 
Q 53.90625 64.015625 53.90625 55.328125 
Q 53.90625 49.265625 50.4375 45.09375 
Q 46.96875 40.921875 40.578125 39.3125 
z
" id="DejaVuSans-51"/>
       </defs>
       <use xlink:href="#DejaVuSans-50"/>
       <use x="63.623047" xlink:href="#DejaVuSans-48"/>
       <use x="127.246094" xlink:href="#DejaVuSans-50"/>
       <use x="190.869141" xlink:href="#DejaVuSans-48"/>
       <use x="254.492188" xlink:href="#DejaVuSans-45"/>
       <use x="290.576172" xlink:href="#DejaVuSans-48"/>
       <use x="354.199219" xlink:href="#DejaVuSans-51"/>
      </g>
     </g>
    </g>
    <g id="xtick_4">
     <g id="line2d_7">
      <path clip-path="url(#p61be435bfd)" d="M 421.391947 592.2 
L 421.391947 40.6 
" style="fill:none;stroke:#c0c0c0;stroke-linecap:square;stroke-width:0.8;"/>
     </g>
     <g id="line2d_8">
      <g>
       <use style="stroke:#000000;stroke-width:0.8;" x="421.391947" xlink:href="#mc1b739e4d7" y="592.2"/>
      </g>
     </g>
     <g id="text_4">
      <!-- 2020-04 -->
      <g transform="translate(387.965697 611.3575)scale(0.16 -0.16)">
       <defs>
        <path d="M 37.796875 64.3125 
L 12.890625 25.390625 
L 37.796875 25.390625 
z
M 35.203125 72.90625 
L 47.609375 72.90625 
L 47.609375 25.390625 
L 58.015625 25.390625 
L 58.015625 17.1875 
L 47.609375 17.1875 
L 47.609375 0 
L 37.796875 0 
L 37.796875 17.1875 
L 4.890625 17.1875 
L 4.890625 26.703125 
z
" id="DejaVuSans-52"/>
       </defs>
       <use xlink:href="#DejaVuSans-50"/>
       <use x="63.623047" xlink:href="#DejaVuSans-48"/>
       <use x="127.246094" xlink:href="#DejaVuSans-50"/>
       <use x="190.869141" xlink:href="#DejaVuSans-48"/>
       <use x="254.492188" xlink:href="#DejaVuSans-45"/>
       <use x="290.576172" xlink:href="#DejaVuSans-48"/>
       <use x="354.199219" xlink:href="#DejaVuSans-52"/>
      </g>
     </g>
    </g>
    <g id="xtick_5">
     <g id="line2d_9">
      <path clip-path="url(#p61be435bfd)" d="M 510.89179 592.2 
L 510.89179 40.6 
" style="fill:none;stroke:#c0c0c0;stroke-linecap:square;stroke-width:0.8;"/>
     </g>
     <g id="line2d_10">
      <g>
       <use style="stroke:#000000;stroke-width:0.8;" x="510.89179" xlink:href="#mc1b739e4d7" y="592.2"/>
      </g>
     </g>
     <g id="text_5">
      <!-- 2020-05 -->
      <g transform="translate(477.46554 611.3575)scale(0.16 -0.16)">
       <defs>
        <path d="M 10.796875 72.90625 
L 49.515625 72.90625 
L 49.515625 64.59375 
L 19.828125 64.59375 
L 19.828125 46.734375 
Q 21.96875 47.46875 24.109375 47.828125 
Q 26.265625 48.1875 28.421875 48.1875 
Q 40.625 48.1875 47.75 41.5 
Q 54.890625 34.8125 54.890625 23.390625 
Q 54.890625 11.625 47.5625 5.09375 
Q 40.234375 -1.421875 26.90625 -1.421875 
Q 22.3125 -1.421875 17.546875 -0.640625 
Q 12.796875 0.140625 7.71875 1.703125 
L 7.71875 11.625 
Q 12.109375 9.234375 16.796875 8.0625 
Q 21.484375 6.890625 26.703125 6.890625 
Q 35.15625 6.890625 40.078125 11.328125 
Q 45.015625 15.765625 45.015625 23.390625 
Q 45.015625 31 40.078125 35.4375 
Q 35.15625 39.890625 26.703125 39.890625 
Q 22.75 39.890625 18.8125 39.015625 
Q 14.890625 38.140625 10.796875 36.28125 
z
" id="DejaVuSans-53"/>
       </defs>
       <use xlink:href="#DejaVuSans-50"/>
       <use x="63.623047" xlink:href="#DejaVuSans-48"/>
       <use x="127.246094" xlink:href="#DejaVuSans-50"/>
       <use x="190.869141" xlink:href="#DejaVuSans-48"/>
       <use x="254.492188" xlink:href="#DejaVuSans-45"/>
       <use x="290.576172" xlink:href="#DejaVuSans-48"/>
       <use x="354.199219" xlink:href="#DejaVuSans-53"/>
      </g>
     </g>
    </g>
    <g id="xtick_6">
     <g id="line2d_11">
      <path clip-path="url(#p61be435bfd)" d="M 603.374961 592.2 
L 603.374961 40.6 
" style="fill:none;stroke:#c0c0c0;stroke-linecap:square;stroke-width:0.8;"/>
     </g>
     <g id="line2d_12">
      <g>
       <use style="stroke:#000000;stroke-width:0.8;" x="603.374961" xlink:href="#mc1b739e4d7" y="592.2"/>
      </g>
     </g>
     <g id="text_6">
      <!-- 2020-06 -->
      <g transform="translate(569.948711 611.3575)scale(0.16 -0.16)">
       <defs>
        <path d="M 33.015625 40.375 
Q 26.375 40.375 22.484375 35.828125 
Q 18.609375 31.296875 18.609375 23.390625 
Q 18.609375 15.53125 22.484375 10.953125 
Q 26.375 6.390625 33.015625 6.390625 
Q 39.65625 6.390625 43.53125 10.953125 
Q 47.40625 15.53125 47.40625 23.390625 
Q 47.40625 31.296875 43.53125 35.828125 
Q 39.65625 40.375 33.015625 40.375 
z
M 52.59375 71.296875 
L 52.59375 62.3125 
Q 48.875 64.0625 45.09375 64.984375 
Q 41.3125 65.921875 37.59375 65.921875 
Q 27.828125 65.921875 22.671875 59.328125 
Q 17.53125 52.734375 16.796875 39.40625 
Q 19.671875 43.65625 24.015625 45.921875 
Q 28.375 48.1875 33.59375 48.1875 
Q 44.578125 48.1875 50.953125 41.515625 
Q 57.328125 34.859375 57.328125 23.390625 
Q 57.328125 12.15625 50.6875 5.359375 
Q 44.046875 -1.421875 33.015625 -1.421875 
Q 20.359375 -1.421875 13.671875 8.265625 
Q 6.984375 17.96875 6.984375 36.375 
Q 6.984375 53.65625 15.1875 63.9375 
Q 23.390625 74.21875 37.203125 74.21875 
Q 40.921875 74.21875 44.703125 73.484375 
Q 48.484375 72.75 52.59375 71.296875 
z
" id="DejaVuSans-54"/>
       </defs>
       <use xlink:href="#DejaVuSans-50"/>
       <use x="63.623047" xlink:href="#DejaVuSans-48"/>
       <use x="127.246094" xlink:href="#DejaVuSans-50"/>
       <use x="190.869141" xlink:href="#DejaVuSans-48"/>
       <use x="254.492188" xlink:href="#DejaVuSans-45"/>
       <use x="290.576172" xlink:href="#DejaVuSans-48"/>
       <use x="354.199219" xlink:href="#DejaVuSans-54"/>
      </g>
     </g>
    </g>
    <g id="xtick_7">
     <g id="line2d_13">
      <path clip-path="url(#p61be435bfd)" d="M 692.874803 592.2 
L 692.874803 40.6 
" style="fill:none;stroke:#c0c0c0;stroke-linecap:square;stroke-width:0.8;"/>
     </g>
     <g id="line2d_14">
      <g>
       <use style="stroke:#000000;stroke-width:0.8;" x="692.874803" xlink:href="#mc1b739e4d7" y="592.2"/>
      </g>
     </g>
     <g id="text_7">
      <!-- 2020-07 -->
      <g transform="translate(659.448553 611.3575)scale(0.16 -0.16)">
       <defs>
        <path d="M 8.203125 72.90625 
L 55.078125 72.90625 
L 55.078125 68.703125 
L 28.609375 0 
L 18.3125 0 
L 43.21875 64.59375 
L 8.203125 64.59375 
z
" id="DejaVuSans-55"/>
       </defs>
       <use xlink:href="#DejaVuSans-50"/>
       <use x="63.623047" xlink:href="#DejaVuSans-48"/>
       <use x="127.246094" xlink:href="#DejaVuSans-50"/>
       <use x="190.869141" xlink:href="#DejaVuSans-48"/>
       <use x="254.492188" xlink:href="#DejaVuSans-45"/>
       <use x="290.576172" xlink:href="#DejaVuSans-48"/>
       <use x="354.199219" xlink:href="#DejaVuSans-55"/>
      </g>
     </g>
    </g>
    <g id="xtick_8">
     <g id="line2d_15">
      <path clip-path="url(#p61be435bfd)" d="M 785.357974 592.2 
L 785.357974 40.6 
" style="fill:none;stroke:#c0c0c0;stroke-linecap:square;stroke-width:0.8;"/>
     </g>
     <g id="line2d_16">
      <g>
       <use style="stroke:#000000;stroke-width:0.8;" x="785.357974" xlink:href="#mc1b739e4d7" y="592.2"/>
      </g>
     </g>
     <g id="text_8">
      <!-- 2020-08 -->
      <g transform="translate(751.931724 611.3575)scale(0.16 -0.16)">
       <defs>
        <path d="M 31.78125 34.625 
Q 24.75 34.625 20.71875 30.859375 
Q 16.703125 27.09375 16.703125 20.515625 
Q 16.703125 13.921875 20.71875 10.15625 
Q 24.75 6.390625 31.78125 6.390625 
Q 38.8125 6.390625 42.859375 10.171875 
Q 46.921875 13.96875 46.921875 20.515625 
Q 46.921875 27.09375 42.890625 30.859375 
Q 38.875 34.625 31.78125 34.625 
z
M 21.921875 38.8125 
Q 15.578125 40.375 12.03125 44.71875 
Q 8.5 49.078125 8.5 55.328125 
Q 8.5 64.0625 14.71875 69.140625 
Q 20.953125 74.21875 31.78125 74.21875 
Q 42.671875 74.21875 48.875 69.140625 
Q 55.078125 64.0625 55.078125 55.328125 
Q 55.078125 49.078125 51.53125 44.71875 
Q 48 40.375 41.703125 38.8125 
Q 48.828125 37.15625 52.796875 32.3125 
Q 56.78125 27.484375 56.78125 20.515625 
Q 56.78125 9.90625 50.3125 4.234375 
Q 43.84375 -1.421875 31.78125 -1.421875 
Q 19.734375 -1.421875 13.25 4.234375 
Q 6.78125 9.90625 6.78125 20.515625 
Q 6.78125 27.484375 10.78125 32.3125 
Q 14.796875 37.15625 21.921875 38.8125 
z
M 18.3125 54.390625 
Q 18.3125 48.734375 21.84375 45.5625 
Q 25.390625 42.390625 31.78125 42.390625 
Q 38.140625 42.390625 41.71875 45.5625 
Q 45.3125 48.734375 45.3125 54.390625 
Q 45.3125 60.0625 41.71875 63.234375 
Q 38.140625 66.40625 31.78125 66.40625 
Q 25.390625 66.40625 21.84375 63.234375 
Q 18.3125 60.0625 18.3125 54.390625 
z
" id="DejaVuSans-56"/>
       </defs>
       <use xlink:href="#DejaVuSans-50"/>
       <use x="63.623047" xlink:href="#DejaVuSans-48"/>
       <use x="127.246094" xlink:href="#DejaVuSans-50"/>
       <use x="190.869141" xlink:href="#DejaVuSans-48"/>
       <use x="254.492188" xlink:href="#DejaVuSans-45"/>
       <use x="290.576172" xlink:href="#DejaVuSans-48"/>
       <use x="354.199219" xlink:href="#DejaVuSans-56"/>
      </g>
     </g>
    </g>
    <g id="xtick_9">
     <g id="line2d_17">
      <path clip-path="url(#p61be435bfd)" d="M 877.841145 592.2 
L 877.841145 40.6 
" style="fill:none;stroke:#c0c0c0;stroke-linecap:square;stroke-width:0.8;"/>
     </g>
     <g id="line2d_18">
      <g>
       <use style="stroke:#000000;stroke-width:0.8;" x="877.841145" xlink:href="#mc1b739e4d7" y="592.2"/>
      </g>
     </g>
     <g id="text_9">
      <!-- 2020-09 -->
      <g transform="translate(844.414895 611.3575)scale(0.16 -0.16)">
       <defs>
        <path d="M 10.984375 1.515625 
L 10.984375 10.5 
Q 14.703125 8.734375 18.5 7.8125 
Q 22.3125 6.890625 25.984375 6.890625 
Q 35.75 6.890625 40.890625 13.453125 
Q 46.046875 20.015625 46.78125 33.40625 
Q 43.953125 29.203125 39.59375 26.953125 
Q 35.25 24.703125 29.984375 24.703125 
Q 19.046875 24.703125 12.671875 31.3125 
Q 6.296875 37.9375 6.296875 49.421875 
Q 6.296875 60.640625 12.9375 67.421875 
Q 19.578125 74.21875 30.609375 74.21875 
Q 43.265625 74.21875 49.921875 64.515625 
Q 56.59375 54.828125 56.59375 36.375 
Q 56.59375 19.140625 48.40625 8.859375 
Q 40.234375 -1.421875 26.421875 -1.421875 
Q 22.703125 -1.421875 18.890625 -0.6875 
Q 15.09375 0.046875 10.984375 1.515625 
z
M 30.609375 32.421875 
Q 37.25 32.421875 41.125 36.953125 
Q 45.015625 41.5 45.015625 49.421875 
Q 45.015625 57.28125 41.125 61.84375 
Q 37.25 66.40625 30.609375 66.40625 
Q 23.96875 66.40625 20.09375 61.84375 
Q 16.21875 57.28125 16.21875 49.421875 
Q 16.21875 41.5 20.09375 36.953125 
Q 23.96875 32.421875 30.609375 32.421875 
z
" id="DejaVuSans-57"/>
       </defs>
       <use xlink:href="#DejaVuSans-50"/>
       <use x="63.623047" xlink:href="#DejaVuSans-48"/>
       <use x="127.246094" xlink:href="#DejaVuSans-50"/>
       <use x="190.869141" xlink:href="#DejaVuSans-48"/>
       <use x="254.492188" xlink:href="#DejaVuSans-45"/>
       <use x="290.576172" xlink:href="#DejaVuSans-48"/>
       <use x="354.199219" xlink:href="#DejaVuSans-57"/>
      </g>
     </g>
    </g>
    <g id="xtick_10">
     <g id="line2d_19">
      <path clip-path="url(#p61be435bfd)" d="M 967.340988 592.2 
L 967.340988 40.6 
" style="fill:none;stroke:#c0c0c0;stroke-linecap:square;stroke-width:0.8;"/>
     </g>
     <g id="line2d_20">
      <g>
       <use style="stroke:#000000;stroke-width:0.8;" x="967.340988" xlink:href="#mc1b739e4d7" y="592.2"/>
      </g>
     </g>
     <g id="text_10">
      <!-- 2020-10 -->
      <g transform="translate(933.914738 611.3575)scale(0.16 -0.16)">
       <use xlink:href="#DejaVuSans-50"/>
       <use x="63.623047" xlink:href="#DejaVuSans-48"/>
       <use x="127.246094" xlink:href="#DejaVuSans-50"/>
       <use x="190.869141" xlink:href="#DejaVuSans-48"/>
       <use x="254.492188" xlink:href="#DejaVuSans-45"/>
       <use x="290.576172" xlink:href="#DejaVuSans-49"/>
       <use x="354.199219" xlink:href="#DejaVuSans-48"/>
      </g>
     </g>
    </g>
    <g id="text_11">
     <!-- date -->
     <g transform="translate(561.039063 634.36625)scale(0.2 -0.2)">
      <defs>
       <path d="M 41.90625 78.40625 
L 49.59375 78.40625 
L 49.59375 0 
L 42.703125 0 
L 42 8.703125 
Q 40.59375 6.703125 39.1875 5.140625 
Q 37.796875 3.59375 36.40625 2.5 
Q 31.40625 -1.296875 24.796875 -1.296875 
Q 14.5 -1.296875 7.703125 6.703125 
Q 1 14.703125 1 26.09375 
Q 1 37.90625 8.09375 46.203125 
Q 15.296875 54.703125 26.09375 54.703125 
Q 30.59375 54.703125 34.5 53.09375 
Q 35.90625 52.5 37.75 51.5 
Q 39.59375 50.5 41.90625 49.09375 
z
M 41.90625 25.90625 
L 41.90625 41.296875 
Q 37.203125 45.40625 33.703125 46.796875 
Q 30.203125 48.203125 26.90625 48.203125 
Q 18.703125 48.203125 13.59375 41.296875 
Q 8.796875 34.796875 8.796875 26.203125 
Q 8.796875 17 14.09375 10.90625 
Q 19 5.296875 25.703125 5.296875 
Q 32.296875 5.296875 37.09375 11.09375 
Q 41.90625 16.90625 41.90625 25.90625 
z
" id="AppleGothic-100"/>
       <path d="M 46.09375 34.59375 
L 46.09375 9.40625 
Q 46.09375 7.703125 46.84375 6.453125 
Q 47.59375 5.203125 49.59375 5.203125 
Q 50.203125 5.203125 50.59375 5.25 
Q 51 5.296875 51.40625 5.40625 
Q 52 5.59375 52.453125 5.796875 
Q 52.90625 6 53.203125 6.09375 
L 53.203125 0.5 
Q 51.40625 -0.09375 49.59375 -0.34375 
Q 47.796875 -0.59375 46.796875 -0.59375 
Q 41.703125 -0.59375 40.09375 2.09375 
Q 38.796875 3.796875 38.796875 9.40625 
Q 37.5 7.203125 36.203125 5.546875 
Q 34.90625 3.90625 33.59375 2.796875 
Q 28.40625 -1.296875 21.5 -1.296875 
Q 14.203125 -1.296875 8.796875 3 
Q 3.203125 7.59375 3.203125 14.703125 
Q 3.203125 23.59375 12.203125 27.796875 
Q 15.5 29.40625 20.953125 30.59375 
Q 26.40625 31.796875 34 32.796875 
L 38.796875 33.296875 
Q 38.796875 40.296875 35.25 44.25 
Q 31.703125 48.203125 24.796875 48.203125 
Q 22.203125 48.203125 19.640625 47.546875 
Q 17.09375 46.90625 14.5 45.5 
Q 13.09375 44.703125 11.390625 43.59375 
Q 9.703125 42.5 7.703125 40.796875 
L 7.703125 49 
Q 16.203125 54.703125 26 54.703125 
Q 36 54.703125 41.40625 48.40625 
Q 46.09375 42.90625 46.09375 34.59375 
z
M 38.796875 24.09375 
L 38.796875 27.296875 
L 35.40625 26.90625 
Q 22.90625 25.59375 17.796875 23.40625 
Q 11 20.703125 11 14.59375 
Q 11 12.796875 11.796875 11.140625 
Q 12.59375 9.5 14 8.203125 
Q 15.40625 6.90625 17.453125 6.09375 
Q 19.5 5.296875 22 5.296875 
Q 28.796875 5.296875 33.90625 10.796875 
Q 38.796875 16.40625 38.796875 24.09375 
z
" id="AppleGothic-97"/>
       <path d="M 10.796875 69.296875 
L 17.40625 69.296875 
L 17.40625 53.59375 
L 31.5 53.59375 
L 31.5 47.09375 
L 17.40625 47.09375 
L 17.40625 13.09375 
Q 17.40625 8.90625 18.953125 7.09375 
Q 20.5 5.296875 24.296875 5.296875 
Q 26.5 5.296875 28.046875 5.796875 
Q 29.59375 6.296875 31.5 7.09375 
L 31.5 0.59375 
Q 29.90625 0.09375 27.65625 -0.34375 
Q 25.40625 -0.796875 23.09375 -0.796875 
Q 17.09375 -0.796875 13.796875 1.90625 
Q 10.09375 4.703125 10.09375 10.90625 
L 10.09375 47.09375 
L 1.09375 47.09375 
L 1.09375 53.59375 
L 10.09375 53.59375 
z
" id="AppleGothic-116"/>
       <path d="M 51.5 28.90625 
L 10.796875 28.90625 
Q 10.796875 17.40625 16.140625 11.34375 
Q 21.5 5.296875 30.203125 5.296875 
Q 36.796875 5.296875 42.90625 9.5 
Q 44.59375 10.59375 46.5 12.25 
Q 48.40625 13.90625 50.59375 16.09375 
L 50.59375 7.40625 
Q 48.203125 5.59375 46.140625 4.25 
Q 44.09375 2.90625 42.296875 2 
Q 36 -1.296875 29.703125 -1.296875 
Q 18.796875 -1.296875 11.203125 6.203125 
Q 3 14.09375 3 26.703125 
Q 3 38.59375 10.40625 46.59375 
Q 17.90625 54.703125 28.90625 54.703125 
Q 39.59375 54.703125 45.90625 46.90625 
Q 51.5 39.796875 51.5 28.90625 
z
M 11.796875 35 
L 43.09375 35 
Q 41.90625 41.796875 37.953125 45.140625 
Q 34 48.5 28.40625 48.5 
Q 22.203125 48.5 17.90625 44.59375 
Q 13.90625 41 11.796875 35 
z
" id="AppleGothic-101"/>
      </defs>
      <use xlink:href="#AppleGothic-100"/>
      <use x="53.999985" xlink:href="#AppleGothic-97"/>
      <use x="110.499969" xlink:href="#AppleGothic-116"/>
      <use x="144.699966" xlink:href="#AppleGothic-101"/>
     </g>
    </g>
   </g>
   <g id="matplotlib.axis_2">
    <g id="ytick_1">
     <g id="line2d_21">
      <defs>
       <path d="M 0 0 
L -3.5 0 
" id="m7978613a21" style="stroke:#0000ff;stroke-width:0.8;"/>
      </defs>
      <g>
       <use style="fill:#0000ff;stroke:#0000ff;stroke-width:0.8;" x="106.8" xlink:href="#m7978613a21" y="567.130498"/>
      </g>
     </g>
     <g id="text_12">
      <!-- 0 -->
      <g style="fill:#0000ff;" transform="translate(89.62 573.209248)scale(0.16 -0.16)">
       <use xlink:href="#DejaVuSans-48"/>
      </g>
     </g>
    </g>
    <g id="ytick_2">
     <g id="line2d_22">
      <g>
       <use style="fill:#0000ff;stroke:#0000ff;stroke-width:0.8;" x="106.8" xlink:href="#m7978613a21" y="502.627685"/>
      </g>
     </g>
     <g id="text_13">
      <!-- 20,000 -->
      <g style="fill:#0000ff;" transform="translate(43.815 508.706435)scale(0.16 -0.16)">
       <defs>
        <path d="M 11.71875 12.40625 
L 22.015625 12.40625 
L 22.015625 4 
L 14.015625 -11.625 
L 7.71875 -11.625 
L 11.71875 4 
z
" id="DejaVuSans-44"/>
       </defs>
       <use xlink:href="#DejaVuSans-50"/>
       <use x="63.623047" xlink:href="#DejaVuSans-48"/>
       <use x="127.246094" xlink:href="#DejaVuSans-44"/>
       <use x="159.033203" xlink:href="#DejaVuSans-48"/>
       <use x="222.65625" xlink:href="#DejaVuSans-48"/>
       <use x="286.279297" xlink:href="#DejaVuSans-48"/>
      </g>
     </g>
    </g>
    <g id="ytick_3">
     <g id="line2d_23">
      <g>
       <use style="fill:#0000ff;stroke:#0000ff;stroke-width:0.8;" x="106.8" xlink:href="#m7978613a21" y="438.124871"/>
      </g>
     </g>
     <g id="text_14">
      <!-- 40,000 -->
      <g style="fill:#0000ff;" transform="translate(43.815 444.203621)scale(0.16 -0.16)">
       <use xlink:href="#DejaVuSans-52"/>
       <use x="63.623047" xlink:href="#DejaVuSans-48"/>
       <use x="127.246094" xlink:href="#DejaVuSans-44"/>
       <use x="159.033203" xlink:href="#DejaVuSans-48"/>
       <use x="222.65625" xlink:href="#DejaVuSans-48"/>
       <use x="286.279297" xlink:href="#DejaVuSans-48"/>
      </g>
     </g>
    </g>
    <g id="ytick_4">
     <g id="line2d_24">
      <g>
       <use style="fill:#0000ff;stroke:#0000ff;stroke-width:0.8;" x="106.8" xlink:href="#m7978613a21" y="373.622058"/>
      </g>
     </g>
     <g id="text_15">
      <!-- 60,000 -->
      <g style="fill:#0000ff;" transform="translate(43.815 379.700808)scale(0.16 -0.16)">
       <use xlink:href="#DejaVuSans-54"/>
       <use x="63.623047" xlink:href="#DejaVuSans-48"/>
       <use x="127.246094" xlink:href="#DejaVuSans-44"/>
       <use x="159.033203" xlink:href="#DejaVuSans-48"/>
       <use x="222.65625" xlink:href="#DejaVuSans-48"/>
       <use x="286.279297" xlink:href="#DejaVuSans-48"/>
      </g>
     </g>
    </g>
    <g id="ytick_5">
     <g id="line2d_25">
      <g>
       <use style="fill:#0000ff;stroke:#0000ff;stroke-width:0.8;" x="106.8" xlink:href="#m7978613a21" y="309.119245"/>
      </g>
     </g>
     <g id="text_16">
      <!-- 80,000 -->
      <g style="fill:#0000ff;" transform="translate(43.815 315.197995)scale(0.16 -0.16)">
       <use xlink:href="#DejaVuSans-56"/>
       <use x="63.623047" xlink:href="#DejaVuSans-48"/>
       <use x="127.246094" xlink:href="#DejaVuSans-44"/>
       <use x="159.033203" xlink:href="#DejaVuSans-48"/>
       <use x="222.65625" xlink:href="#DejaVuSans-48"/>
       <use x="286.279297" xlink:href="#DejaVuSans-48"/>
      </g>
     </g>
    </g>
    <g id="ytick_6">
     <g id="line2d_26">
      <g>
       <use style="fill:#0000ff;stroke:#0000ff;stroke-width:0.8;" x="106.8" xlink:href="#m7978613a21" y="244.616432"/>
      </g>
     </g>
     <g id="text_17">
      <!-- 100,000 -->
      <g style="fill:#0000ff;" transform="translate(33.635 250.695182)scale(0.16 -0.16)">
       <use xlink:href="#DejaVuSans-49"/>
       <use x="63.623047" xlink:href="#DejaVuSans-48"/>
       <use x="127.246094" xlink:href="#DejaVuSans-48"/>
       <use x="190.869141" xlink:href="#DejaVuSans-44"/>
       <use x="222.65625" xlink:href="#DejaVuSans-48"/>
       <use x="286.279297" xlink:href="#DejaVuSans-48"/>
       <use x="349.902344" xlink:href="#DejaVuSans-48"/>
      </g>
     </g>
    </g>
    <g id="ytick_7">
     <g id="line2d_27">
      <g>
       <use style="fill:#0000ff;stroke:#0000ff;stroke-width:0.8;" x="106.8" xlink:href="#m7978613a21" y="180.113619"/>
      </g>
     </g>
     <g id="text_18">
      <!-- 120,000 -->
      <g style="fill:#0000ff;" transform="translate(33.635 186.192369)scale(0.16 -0.16)">
       <use xlink:href="#DejaVuSans-49"/>
       <use x="63.623047" xlink:href="#DejaVuSans-50"/>
       <use x="127.246094" xlink:href="#DejaVuSans-48"/>
       <use x="190.869141" xlink:href="#DejaVuSans-44"/>
       <use x="222.65625" xlink:href="#DejaVuSans-48"/>
       <use x="286.279297" xlink:href="#DejaVuSans-48"/>
       <use x="349.902344" xlink:href="#DejaVuSans-48"/>
      </g>
     </g>
    </g>
    <g id="ytick_8">
     <g id="line2d_28">
      <g>
       <use style="fill:#0000ff;stroke:#0000ff;stroke-width:0.8;" x="106.8" xlink:href="#m7978613a21" y="115.610805"/>
      </g>
     </g>
     <g id="text_19">
      <!-- 140,000 -->
      <g style="fill:#0000ff;" transform="translate(33.635 121.689555)scale(0.16 -0.16)">
       <use xlink:href="#DejaVuSans-49"/>
       <use x="63.623047" xlink:href="#DejaVuSans-52"/>
       <use x="127.246094" xlink:href="#DejaVuSans-48"/>
       <use x="190.869141" xlink:href="#DejaVuSans-44"/>
       <use x="222.65625" xlink:href="#DejaVuSans-48"/>
       <use x="286.279297" xlink:href="#DejaVuSans-48"/>
       <use x="349.902344" xlink:href="#DejaVuSans-48"/>
      </g>
     </g>
    </g>
    <g id="ytick_9">
     <g id="line2d_29">
      <g>
       <use style="fill:#0000ff;stroke:#0000ff;stroke-width:0.8;" x="106.8" xlink:href="#m7978613a21" y="51.107992"/>
      </g>
     </g>
     <g id="text_20">
      <!-- 160,000 -->
      <g style="fill:#0000ff;" transform="translate(33.635 57.186742)scale(0.16 -0.16)">
       <use xlink:href="#DejaVuSans-49"/>
       <use x="63.623047" xlink:href="#DejaVuSans-54"/>
       <use x="127.246094" xlink:href="#DejaVuSans-48"/>
       <use x="190.869141" xlink:href="#DejaVuSans-44"/>
       <use x="222.65625" xlink:href="#DejaVuSans-48"/>
       <use x="286.279297" xlink:href="#DejaVuSans-48"/>
       <use x="349.902344" xlink:href="#DejaVuSans-48"/>
      </g>
     </g>
    </g>
    <g id="text_21">
     <!-- cases -->
     <g style="fill:#0000ff;" transform="translate(26.194375 342.65)rotate(-90)scale(0.2 -0.2)">
      <defs>
       <path d="M 48.203125 48.796875 
L 48.203125 39.40625 
Q 42.59375 44.703125 36.703125 47 
Q 35 47.703125 33.203125 47.953125 
Q 31.40625 48.203125 29.59375 48.203125 
Q 21.296875 48.203125 16 42 
Q 10.703125 35.59375 10.703125 26.796875 
Q 10.703125 17.796875 16.203125 11.40625 
Q 21.703125 5.296875 30 5.296875 
Q 35.203125 5.296875 39.5 7.546875 
Q 43.796875 9.796875 48.203125 14.296875 
L 48.203125 4.796875 
Q 42.90625 1.5 38.59375 0.09375 
Q 34.296875 -1.296875 29.90625 -1.296875 
Q 18.703125 -1.296875 10.703125 6.703125 
Q 2.90625 15 2.90625 26.703125 
Q 2.90625 38.203125 10.59375 46.5 
Q 18.40625 54.703125 30 54.703125 
Q 35.90625 54.703125 41 52.703125 
Q 44 51.59375 48.203125 48.796875 
z
" id="AppleGothic-99"/>
       <path d="M 3.5 4.59375 
L 3.5 13.296875 
Q 9.703125 8.296875 16.09375 6.296875 
Q 18 5.796875 19.796875 5.546875 
Q 21.59375 5.296875 23.5 5.296875 
Q 29.59375 5.296875 33.59375 8.09375 
Q 37.703125 11.09375 37.703125 14.796875 
Q 37.703125 16.796875 36.203125 18.90625 
Q 34.09375 21.5 25 23.59375 
Q 14.203125 26.296875 10.59375 28.09375 
Q 3.59375 32.09375 3.59375 39.296875 
Q 3.59375 46 9.40625 50.296875 
Q 15.296875 54.703125 24.09375 54.703125 
Q 28.09375 54.703125 31.296875 54 
Q 34.5 53.296875 37.296875 52.140625 
Q 40.09375 51 42.5 49.296875 
L 42.5 40.59375 
Q 38.296875 44.09375 33.6875 46.140625 
Q 29.09375 48.203125 24 48.203125 
Q 18.90625 48.203125 15.203125 45.90625 
Q 11.40625 43.59375 11.40625 39.90625 
Q 11.40625 35 20.40625 32.09375 
Q 24.59375 30.90625 28.6875 29.703125 
Q 32.796875 28.5 37 27.296875 
Q 46.09375 23.40625 46.09375 15.5 
Q 46.09375 8.796875 39.796875 3.703125 
Q 33.40625 -1.296875 23.90625 -1.296875 
Q 19.703125 -1.296875 15.703125 -0.40625 
Q 9.296875 1 3.5 4.59375 
z
" id="AppleGothic-115"/>
      </defs>
      <use xlink:href="#AppleGothic-99"/>
      <use x="51.899994" xlink:href="#AppleGothic-97"/>
      <use x="108.399979" xlink:href="#AppleGothic-115"/>
      <use x="157.999969" xlink:href="#AppleGothic-101"/>
      <use x="212.899963" xlink:href="#AppleGothic-115"/>
     </g>
    </g>
   </g>
   <g id="line2d_30">
    <path clip-path="url(#p61be435bfd)" d="M 149.909091 567.091796 
L 161.842403 567.127273 
L 308.02548 567.027293 
L 311.008808 566.924089 
L 319.958792 566.975691 
L 322.94212 566.811209 
L 325.925448 566.898288 
L 328.908776 566.382265 
L 331.892104 566.61125 
L 334.875433 566.408066 
L 337.858761 566.430642 
L 340.842089 566.317762 
L 343.825417 565.988798 
L 346.808745 566.050076 
L 349.792073 565.721111 
L 352.775401 564.518134 
L 355.758729 563.718299 
L 358.742057 563.711849 
L 361.725385 562.534672 
L 364.708713 560.76407 
L 367.692042 560.77052 
L 370.67537 557.619558 
L 373.658698 551.272481 
L 376.642026 552.078766 
L 379.625354 549.011658 
L 382.608682 550.530699 
L 385.59201 545.402725 
L 388.575338 553.223691 
L 391.558666 553.359147 
L 394.541994 539.581346 
L 397.525322 510.087435 
L 400.508651 529.80917 
L 403.491979 534.901667 
L 406.475307 525.181093 
L 409.458635 543.34186 
L 412.441963 541.035885 
L 415.425291 505.875401 
L 418.408619 514.589731 
L 421.391947 534.891992 
L 424.375275 533.59226 
L 427.358603 522.804165 
L 430.341931 522.623557 
L 433.32526 480.445167 
L 436.308588 507.713731 
L 439.291916 488.691852 
L 442.275244 517.853574 
L 445.258572 518.314769 
L 448.2419 527.509645 
L 451.225228 518.824341 
L 454.208556 505.440007 
L 457.191884 517.121467 
L 460.175212 467.341421 
L 463.15854 514.344621 
L 466.141869 525.91965 
L 469.125197 533.672889 
L 472.108525 493.987533 
L 475.091853 467.238216 
L 478.075181 500.947386 
L 481.058509 487.866216 
L 484.041837 524.113572 
L 487.025165 523.952315 
L 490.008493 512.419212 
L 492.991821 535.033898 
L 495.975149 480.345188 
L 498.958478 486.653563 
L 501.941806 508.02012 
L 504.925134 514.028557 
L 507.908462 514.147887 
L 510.89179 514.67681 
L 513.875118 520.640095 
L 516.858446 497.12882 
L 519.841774 502.240668 
L 522.825102 517.756819 
L 525.80843 514.602632 
L 528.791758 502.627685 
L 531.775087 520.353058 
L 534.758415 527.177455 
L 537.741743 499.808912 
L 540.725071 500.618422 
L 543.708399 522.965422 
L 546.691727 461.561969 
L 549.675055 522.413923 
L 552.658383 497.464234 
L 555.641711 535.066149 
L 558.625039 490.765617 
L 561.608367 486.953501 
L 564.591696 523.036375 
L 567.575024 513.773771 
L 570.558352 506.059234 
L 573.54168 521.3206 
L 576.525008 531.750705 
L 579.508336 510.580882 
L 582.491664 516.173275 
L 585.474992 273.810405 
L 588.45832 454.128019 
L 591.441648 512.780427 
L 594.424976 504.101574 
L 597.408304 527.029099 
L 600.391633 531.428191 
L 603.374961 499.966944 
L 606.358289 507.842737 
L 609.341617 515.086403 
L 612.324945 515.434718 
L 618.291601 529.380226 
L 621.274929 543.419264 
L 624.258257 508.403912 
L 627.241585 510.925972 
L 630.224913 285.943384 
L 633.208242 523.665277 
L 636.19157 485.676345 
L 639.174898 529.512457 
L 642.158226 523.803958 
L 645.141554 493.57794 
L 648.124882 513.222272 
L 651.10821 497.344904 
L 654.091538 501.460184 
L 657.074866 498.783317 
L 660.058194 455.727689 
L 663.041522 437.173455 
L 666.024851 488.520919 
L 669.008179 490.672088 
L 671.991507 65.672727 
L 674.974835 497.257825 
L 677.958163 500.979638 
L 680.941491 519.620951 
L 683.924819 492.352386 
L 686.908147 436.563903 
L 689.891475 486.505206 
L 692.874803 485.815026 
L 695.858131 407.537637 
L 698.84146 499.499298 
L 701.824788 495.883916 
L 704.808116 512.057996 
L 707.791444 450.993183 
L 710.774772 475.57843 
L 713.7581 472.924139 
L 716.741428 465.928809 
L 719.724756 470.453681 
L 722.708084 469.531291 
L 725.691412 480.351638 
L 728.67474 310.606035 
L 731.658069 432.522802 
L 734.641397 469.486139 
L 737.624725 474.159368 
L 740.608053 449.064549 
L 743.591381 446.91983 
L 746.574709 415.723044 
L 749.558037 409.343716 
L 752.541365 451.083487 
L 755.524693 473.788477 
L 758.508021 466.441606 
L 761.491349 468.863687 
L 764.474678 479.526002 
L 767.458006 485.557015 
L 770.441334 420.409174 
L 773.424662 477.574792 
L 776.40799 440.717885 
L 779.391318 466.164244 
L 782.374646 424.637333 
L 785.357974 485.615068 
L 788.341302 501.740771 
L 791.32463 432.193838 
L 797.291287 479.655008 
L 800.274615 483.347794 
L 803.257943 472.920914 
L 806.241271 499.167109 
L 809.224599 478.958377 
L 812.207927 448.664631 
L 815.191255 494.271345 
L 818.174583 471.601831 
L 821.157911 437.40889 
L 824.141239 387.106371 
L 827.124567 501.450508 
L 830.107896 506.372073 
L 833.091224 433.0485 
L 836.074552 483.931544 
L 839.05788 429.881412 
L 842.041208 397.407471 
L 845.024536 409.833938 
L 848.007864 475.888043 
L 850.991192 511.129155 
L 853.97452 403.373981 
L 856.957848 492.339486 
L 859.941176 467.54783 
L 862.924505 436.580029 
L 865.907833 492.945812 
L 868.891161 507.310589 
L 871.874489 509.081191 
L 874.857817 473.262779 
L 877.841145 492.658775 
L 880.824473 484.260509 
L 883.807801 486.098839 
L 886.791129 473.923933 
L 889.774457 187.521767 
L 892.757785 523.678178 
L 895.741114 515.325063 
L 898.724442 463.387398 
L 901.70777 459.010882 
L 904.691098 487.456623 
L 907.674426 499.841163 
L 910.657754 505.407756 
L 913.641082 514.738088 
L 916.62441 480.641901 
L 919.607738 433.874136 
L 922.591066 427.001361 
L 925.574394 441.704778 
L 928.557723 475.404272 
L 931.541051 502.176165 
L 934.524379 512.132174 
L 937.507707 440.566303 
L 940.491035 438.956958 
L 943.474363 472.501646 
L 946.457691 442.343355 
L 949.441019 399.090994 
L 952.424347 473.785252 
L 955.407675 498.886521 
L 958.391003 471.147087 
L 961.374332 472.072702 
L 964.35766 423.808472 
L 967.340988 322.922847 
L 970.324316 463.790541 
L 973.307644 489.656169 
L 976.290972 495.590428 
L 979.2743 446.745672 
L 982.257628 465.932034 
L 985.240956 481.003117 
L 988.224284 460.681505 
L 991.207612 469.176526 
L 994.190941 479.455049 
L 997.174269 432.377671 
L 1000.157597 441.208106 
L 1003.140925 381.852617 
L 1006.124253 454.389256 
L 1009.107581 406.863583 
L 1012.090909 378.94354 
L 1012.090909 378.94354 
" style="fill:none;stroke:#0000ff;stroke-linecap:square;"/>
   </g>
   <g id="patch_3">
    <path d="M 106.8 592.2 
L 106.8 40.6 
" style="fill:none;stroke:#000000;stroke-linecap:square;stroke-linejoin:miter;stroke-width:0.8;"/>
   </g>
   <g id="patch_4">
    <path d="M 106.8 592.2 
L 1055.2 592.2 
" style="fill:none;stroke:#000000;stroke-linecap:square;stroke-linejoin:miter;stroke-width:0.8;"/>
   </g>
  </g>
  <g id="axes_2">
   <g id="matplotlib.axis_3">
    <g id="ytick_10">
     <g id="line2d_31">
      <path clip-path="url(#p61be435bfd)" d="M 106.8 567.127273 
L 1055.2 567.127273 
" style="fill:none;stroke:#ffe4e1;stroke-linecap:square;stroke-width:0.8;"/>
     </g>
     <g id="line2d_32">
      <defs>
       <path d="M 0 0 
L 3.5 0 
" id="m6adb810e28" style="stroke:#ff0000;stroke-width:0.8;"/>
      </defs>
      <g>
       <use style="fill:#ff0000;stroke:#ff0000;stroke-width:0.8;" x="1055.2" xlink:href="#m6adb810e28" y="567.127273"/>
      </g>
     </g>
     <g id="text_22">
      <!-- 0 -->
      <g style="fill:#ff0000;" transform="translate(1062.2 573.206023)scale(0.16 -0.16)">
       <use xlink:href="#DejaVuSans-48"/>
      </g>
     </g>
    </g>
    <g id="ytick_11">
     <g id="line2d_33">
      <path clip-path="url(#p61be435bfd)" d="M 106.8 523.446563 
L 1055.2 523.446563 
" style="fill:none;stroke:#ffe4e1;stroke-linecap:square;stroke-width:0.8;"/>
     </g>
     <g id="line2d_34">
      <g>
       <use style="fill:#ff0000;stroke:#ff0000;stroke-width:0.8;" x="1055.2" xlink:href="#m6adb810e28" y="523.446563"/>
      </g>
     </g>
     <g id="text_23">
      <!-- 1,000 -->
      <g style="fill:#ff0000;" transform="translate(1062.2 529.525313)scale(0.16 -0.16)">
       <use xlink:href="#DejaVuSans-49"/>
       <use x="63.623047" xlink:href="#DejaVuSans-44"/>
       <use x="95.410156" xlink:href="#DejaVuSans-48"/>
       <use x="159.033203" xlink:href="#DejaVuSans-48"/>
       <use x="222.65625" xlink:href="#DejaVuSans-48"/>
      </g>
     </g>
    </g>
    <g id="ytick_12">
     <g id="line2d_35">
      <path clip-path="url(#p61be435bfd)" d="M 106.8 479.765854 
L 1055.2 479.765854 
" style="fill:none;stroke:#ffe4e1;stroke-linecap:square;stroke-width:0.8;"/>
     </g>
     <g id="line2d_36">
      <g>
       <use style="fill:#ff0000;stroke:#ff0000;stroke-width:0.8;" x="1055.2" xlink:href="#m6adb810e28" y="479.765854"/>
      </g>
     </g>
     <g id="text_24">
      <!-- 2,000 -->
      <g style="fill:#ff0000;" transform="translate(1062.2 485.844604)scale(0.16 -0.16)">
       <use xlink:href="#DejaVuSans-50"/>
       <use x="63.623047" xlink:href="#DejaVuSans-44"/>
       <use x="95.410156" xlink:href="#DejaVuSans-48"/>
       <use x="159.033203" xlink:href="#DejaVuSans-48"/>
       <use x="222.65625" xlink:href="#DejaVuSans-48"/>
      </g>
     </g>
    </g>
    <g id="ytick_13">
     <g id="line2d_37">
      <path clip-path="url(#p61be435bfd)" d="M 106.8 436.085144 
L 1055.2 436.085144 
" style="fill:none;stroke:#ffe4e1;stroke-linecap:square;stroke-width:0.8;"/>
     </g>
     <g id="line2d_38">
      <g>
       <use style="fill:#ff0000;stroke:#ff0000;stroke-width:0.8;" x="1055.2" xlink:href="#m6adb810e28" y="436.085144"/>
      </g>
     </g>
     <g id="text_25">
      <!-- 3,000 -->
      <g style="fill:#ff0000;" transform="translate(1062.2 442.163894)scale(0.16 -0.16)">
       <use xlink:href="#DejaVuSans-51"/>
       <use x="63.623047" xlink:href="#DejaVuSans-44"/>
       <use x="95.410156" xlink:href="#DejaVuSans-48"/>
       <use x="159.033203" xlink:href="#DejaVuSans-48"/>
       <use x="222.65625" xlink:href="#DejaVuSans-48"/>
      </g>
     </g>
    </g>
    <g id="ytick_14">
     <g id="line2d_39">
      <path clip-path="url(#p61be435bfd)" d="M 106.8 392.404435 
L 1055.2 392.404435 
" style="fill:none;stroke:#ffe4e1;stroke-linecap:square;stroke-width:0.8;"/>
     </g>
     <g id="line2d_40">
      <g>
       <use style="fill:#ff0000;stroke:#ff0000;stroke-width:0.8;" x="1055.2" xlink:href="#m6adb810e28" y="392.404435"/>
      </g>
     </g>
     <g id="text_26">
      <!-- 4,000 -->
      <g style="fill:#ff0000;" transform="translate(1062.2 398.483185)scale(0.16 -0.16)">
       <use xlink:href="#DejaVuSans-52"/>
       <use x="63.623047" xlink:href="#DejaVuSans-44"/>
       <use x="95.410156" xlink:href="#DejaVuSans-48"/>
       <use x="159.033203" xlink:href="#DejaVuSans-48"/>
       <use x="222.65625" xlink:href="#DejaVuSans-48"/>
      </g>
     </g>
    </g>
    <g id="ytick_15">
     <g id="line2d_41">
      <path clip-path="url(#p61be435bfd)" d="M 106.8 348.723725 
L 1055.2 348.723725 
" style="fill:none;stroke:#ffe4e1;stroke-linecap:square;stroke-width:0.8;"/>
     </g>
     <g id="line2d_42">
      <g>
       <use style="fill:#ff0000;stroke:#ff0000;stroke-width:0.8;" x="1055.2" xlink:href="#m6adb810e28" y="348.723725"/>
      </g>
     </g>
     <g id="text_27">
      <!-- 5,000 -->
      <g style="fill:#ff0000;" transform="translate(1062.2 354.802475)scale(0.16 -0.16)">
       <use xlink:href="#DejaVuSans-53"/>
       <use x="63.623047" xlink:href="#DejaVuSans-44"/>
       <use x="95.410156" xlink:href="#DejaVuSans-48"/>
       <use x="159.033203" xlink:href="#DejaVuSans-48"/>
       <use x="222.65625" xlink:href="#DejaVuSans-48"/>
      </g>
     </g>
    </g>
    <g id="ytick_16">
     <g id="line2d_43">
      <path clip-path="url(#p61be435bfd)" d="M 106.8 305.043016 
L 1055.2 305.043016 
" style="fill:none;stroke:#ffe4e1;stroke-linecap:square;stroke-width:0.8;"/>
     </g>
     <g id="line2d_44">
      <g>
       <use style="fill:#ff0000;stroke:#ff0000;stroke-width:0.8;" x="1055.2" xlink:href="#m6adb810e28" y="305.043016"/>
      </g>
     </g>
     <g id="text_28">
      <!-- 6,000 -->
      <g style="fill:#ff0000;" transform="translate(1062.2 311.121766)scale(0.16 -0.16)">
       <use xlink:href="#DejaVuSans-54"/>
       <use x="63.623047" xlink:href="#DejaVuSans-44"/>
       <use x="95.410156" xlink:href="#DejaVuSans-48"/>
       <use x="159.033203" xlink:href="#DejaVuSans-48"/>
       <use x="222.65625" xlink:href="#DejaVuSans-48"/>
      </g>
     </g>
    </g>
    <g id="ytick_17">
     <g id="line2d_45">
      <path clip-path="url(#p61be435bfd)" d="M 106.8 261.362306 
L 1055.2 261.362306 
" style="fill:none;stroke:#ffe4e1;stroke-linecap:square;stroke-width:0.8;"/>
     </g>
     <g id="line2d_46">
      <g>
       <use style="fill:#ff0000;stroke:#ff0000;stroke-width:0.8;" x="1055.2" xlink:href="#m6adb810e28" y="261.362306"/>
      </g>
     </g>
     <g id="text_29">
      <!-- 7,000 -->
      <g style="fill:#ff0000;" transform="translate(1062.2 267.441056)scale(0.16 -0.16)">
       <use xlink:href="#DejaVuSans-55"/>
       <use x="63.623047" xlink:href="#DejaVuSans-44"/>
       <use x="95.410156" xlink:href="#DejaVuSans-48"/>
       <use x="159.033203" xlink:href="#DejaVuSans-48"/>
       <use x="222.65625" xlink:href="#DejaVuSans-48"/>
      </g>
     </g>
    </g>
    <g id="ytick_18">
     <g id="line2d_47">
      <path clip-path="url(#p61be435bfd)" d="M 106.8 217.681596 
L 1055.2 217.681596 
" style="fill:none;stroke:#ffe4e1;stroke-linecap:square;stroke-width:0.8;"/>
     </g>
     <g id="line2d_48">
      <g>
       <use style="fill:#ff0000;stroke:#ff0000;stroke-width:0.8;" x="1055.2" xlink:href="#m6adb810e28" y="217.681596"/>
      </g>
     </g>
     <g id="text_30">
      <!-- 8,000 -->
      <g style="fill:#ff0000;" transform="translate(1062.2 223.760346)scale(0.16 -0.16)">
       <use xlink:href="#DejaVuSans-56"/>
       <use x="63.623047" xlink:href="#DejaVuSans-44"/>
       <use x="95.410156" xlink:href="#DejaVuSans-48"/>
       <use x="159.033203" xlink:href="#DejaVuSans-48"/>
       <use x="222.65625" xlink:href="#DejaVuSans-48"/>
      </g>
     </g>
    </g>
    <g id="ytick_19">
     <g id="line2d_49">
      <path clip-path="url(#p61be435bfd)" d="M 106.8 174.000887 
L 1055.2 174.000887 
" style="fill:none;stroke:#ffe4e1;stroke-linecap:square;stroke-width:0.8;"/>
     </g>
     <g id="line2d_50">
      <g>
       <use style="fill:#ff0000;stroke:#ff0000;stroke-width:0.8;" x="1055.2" xlink:href="#m6adb810e28" y="174.000887"/>
      </g>
     </g>
     <g id="text_31">
      <!-- 9,000 -->
      <g style="fill:#ff0000;" transform="translate(1062.2 180.079637)scale(0.16 -0.16)">
       <use xlink:href="#DejaVuSans-57"/>
       <use x="63.623047" xlink:href="#DejaVuSans-44"/>
       <use x="95.410156" xlink:href="#DejaVuSans-48"/>
       <use x="159.033203" xlink:href="#DejaVuSans-48"/>
       <use x="222.65625" xlink:href="#DejaVuSans-48"/>
      </g>
     </g>
    </g>
    <g id="ytick_20">
     <g id="line2d_51">
      <path clip-path="url(#p61be435bfd)" d="M 106.8 130.320177 
L 1055.2 130.320177 
" style="fill:none;stroke:#ffe4e1;stroke-linecap:square;stroke-width:0.8;"/>
     </g>
     <g id="line2d_52">
      <g>
       <use style="fill:#ff0000;stroke:#ff0000;stroke-width:0.8;" x="1055.2" xlink:href="#m6adb810e28" y="130.320177"/>
      </g>
     </g>
     <g id="text_32">
      <!-- 10,000 -->
      <g style="fill:#ff0000;" transform="translate(1062.2 136.398927)scale(0.16 -0.16)">
       <use xlink:href="#DejaVuSans-49"/>
       <use x="63.623047" xlink:href="#DejaVuSans-48"/>
       <use x="127.246094" xlink:href="#DejaVuSans-44"/>
       <use x="159.033203" xlink:href="#DejaVuSans-48"/>
       <use x="222.65625" xlink:href="#DejaVuSans-48"/>
       <use x="286.279297" xlink:href="#DejaVuSans-48"/>
      </g>
     </g>
    </g>
    <g id="ytick_21">
     <g id="line2d_53">
      <path clip-path="url(#p61be435bfd)" d="M 106.8 86.639468 
L 1055.2 86.639468 
" style="fill:none;stroke:#ffe4e1;stroke-linecap:square;stroke-width:0.8;"/>
     </g>
     <g id="line2d_54">
      <g>
       <use style="fill:#ff0000;stroke:#ff0000;stroke-width:0.8;" x="1055.2" xlink:href="#m6adb810e28" y="86.639468"/>
      </g>
     </g>
     <g id="text_33">
      <!-- 11,000 -->
      <g style="fill:#ff0000;" transform="translate(1062.2 92.718218)scale(0.16 -0.16)">
       <use xlink:href="#DejaVuSans-49"/>
       <use x="63.623047" xlink:href="#DejaVuSans-49"/>
       <use x="127.246094" xlink:href="#DejaVuSans-44"/>
       <use x="159.033203" xlink:href="#DejaVuSans-48"/>
       <use x="222.65625" xlink:href="#DejaVuSans-48"/>
       <use x="286.279297" xlink:href="#DejaVuSans-48"/>
      </g>
     </g>
    </g>
    <g id="text_34">
     <!-- deaths -->
     <g style="fill:#ff0000;" transform="translate(1137.86625 346.540625)rotate(-90)scale(0.2 -0.2)">
      <defs>
       <path d="M 4.5 78.40625 
L 11.703125 78.40625 
L 11.703125 43.90625 
Q 14.203125 47.90625 17.796875 50.59375 
Q 23.296875 54.703125 30.09375 54.703125 
Q 34.296875 54.703125 37.640625 53.5 
Q 41 52.296875 43.796875 50 
Q 49.703125 44.796875 49.703125 35.40625 
L 49.703125 0 
L 42.40625 0 
L 42.40625 34.40625 
Q 42.40625 40.203125 38.703125 44.203125 
Q 35 48.203125 29.703125 48.203125 
Q 22 48.203125 16.90625 42.09375 
Q 11.703125 35.796875 11.703125 27.703125 
L 11.703125 0 
L 4.5 0 
z
" id="AppleGothic-104"/>
      </defs>
      <use xlink:href="#AppleGothic-100"/>
      <use x="53.999985" xlink:href="#AppleGothic-101"/>
      <use x="108.899979" xlink:href="#AppleGothic-97"/>
      <use x="165.399963" xlink:href="#AppleGothic-116"/>
      <use x="199.59996" xlink:href="#AppleGothic-104"/>
      <use x="251.799957" xlink:href="#AppleGothic-115"/>
     </g>
    </g>
   </g>
   <g id="line2d_55">
    <path clip-path="url(#p61be435bfd)" d="M 149.909091 567.127273 
L 266.258886 567.127273 
L 269.242215 566.996231 
L 272.225543 567.127273 
L 275.208871 567.039911 
L 284.158855 567.127273 
L 293.108839 567.083592 
L 296.092167 567.083592 
L 299.075495 566.908869 
L 311.008808 567.039911 
L 316.975464 566.908869 
L 319.958792 567.083592 
L 322.94212 566.821508 
L 325.925448 566.908869 
L 328.908776 566.603104 
L 331.892104 566.515743 
L 334.875433 566.646785 
L 337.858761 566.472062 
L 340.842089 566.734146 
L 343.825417 566.297339 
L 346.808745 566.34102 
L 349.792073 566.515743 
L 352.775401 565.72949 
L 355.758729 564.288027 
L 358.742057 565.423725 
L 361.725385 564.244346 
L 364.708713 563.28337 
L 367.692042 563.720177 
L 370.67537 562.191353 
L 373.658698 556.993348 
L 376.642026 557.954324 
L 379.625354 554.721951 
L 382.608682 556.643902 
L 385.59201 557.386475 
L 388.575338 559.483149 
L 391.558666 559.526829 
L 394.541994 550.266519 
L 397.525322 519.55898 
L 400.508651 525.543237 
L 403.491979 534.235698 
L 406.475307 534.192018 
L 409.458635 539.608426 
L 412.441963 535.458758 
L 415.425291 539.652106 
L 418.408619 498.373836 
L 421.391947 532.619512 
L 424.375275 542.31663 
L 427.358603 548.650333 
L 430.341931 519.515299 
L 433.32526 460.764745 
L 436.308588 523.970732 
L 439.291916 452.334368 
L 442.275244 525.543237 
L 445.258572 548.388248 
L 448.2419 519.995787 
L 451.225228 513.880488 
L 454.208556 478.105987 
L 457.191884 501.999335 
L 460.175212 447.922616 
L 463.15854 534.454102 
L 466.141869 543.889135 
L 469.125197 543.233925 
L 472.108525 416.472506 
L 475.091853 423.024612 
L 478.075181 515.409313 
L 481.058509 488.895122 
L 484.041837 531.920621 
L 487.025165 520.083149 
L 490.008493 537.904878 
L 492.991821 546.772062 
L 495.975149 459.716408 
L 498.958478 516.938137 
L 501.941806 483.478714 
L 504.925134 530.741242 
L 507.908462 536.20133 
L 510.89179 534.192018 
L 513.875118 533.143681 
L 516.858446 504.663858 
L 519.841774 525.630599 
L 522.825102 540.744124 
L 525.80843 535.109313 
L 528.791758 532.706874 
L 531.775087 541.137251 
L 534.758415 546.204213 
L 537.741743 512.744789 
L 543.708399 544.15122 
L 546.691727 512.570067 
L 549.675055 547.296231 
L 552.658383 550.572284 
L 555.641711 551.489579 
L 558.625039 520.563636 
L 561.608367 533.929933 
L 564.591696 549.436585 
L 567.575024 543.627051 
L 570.558352 542.797118 
L 573.54168 550.878049 
L 576.525008 553.455211 
L 579.508336 536.725499 
L 582.491664 548.868736 
L 585.474992 446.699557 
L 588.45832 507.415743 
L 591.441648 542.054545 
L 594.424976 536.81286 
L 597.408304 549.480266 
L 600.391633 556.207095 
L 603.374961 533.798891 
L 606.358289 541.74878 
L 609.341617 545.374279 
L 612.324945 549.218182 
L 615.308273 548.126164 
L 618.291601 553.673614 
L 621.274929 559.57051 
L 624.258257 547.645676 
L 627.241585 551.707982 
L 630.224913 65.672727 
L 633.208242 557.211752 
L 636.19157 553.804656 
L 639.174898 556.032373 
L 642.158226 558.95898 
L 645.141554 548.912417 
L 648.124882 551.795344 
L 651.10821 551.445898 
L 654.091538 550.921729 
L 657.074866 553.542572 
L 660.058194 461.026829 
L 663.041522 465.001774 
L 666.024851 548.781375 
L 669.008179 550.048115 
L 671.991507 193.569845 
L 674.974835 551.664302 
L 677.958163 549.829712 
L 680.941491 555.377162 
L 686.908147 540.744124 
L 689.891475 549.917073 
L 692.874803 550.834368 
L 695.858131 532.881596 
L 698.84146 555.551885 
L 701.824788 554.372506 
L 704.808116 556.643902 
L 707.791444 542.92816 
L 710.774772 549.611308 
L 713.7581 549.392905 
L 716.741428 549.305543 
L 719.724756 548.169845 
L 722.708084 544.456984 
L 725.691412 550.528603 
L 728.67474 525.543237 
L 731.658069 544.500665 
L 734.641397 546.073171 
L 737.624725 548.912417 
L 740.608053 545.024834 
L 743.591381 539.957871 
L 746.574709 536.245011 
L 749.558037 531.789579 
L 752.541365 540.307317 
L 755.524693 547.034146 
L 758.508021 548.606652 
L 761.491349 546.378936 
L 764.474678 550.834368 
L 767.458006 555.508204 
L 770.441334 533.755211 
L 773.424662 549.523947 
L 776.40799 537.730155 
L 779.391318 547.86408 
L 782.374646 524.844346 
L 785.357974 550.834368 
L 788.341302 555.90133 
L 791.32463 539.346341 
L 794.307958 547.514634 
L 797.291287 548.694013 
L 800.274615 552.013747 
L 803.257943 548.126164 
L 806.241271 552.8 
L 809.224599 551.926386 
L 812.207927 539.346341 
L 815.191255 550.222838 
L 818.174583 550.35388 
L 821.157911 542.36031 
L 824.141239 537.948559 
L 827.124567 555.945011 
L 830.107896 552.581596 
L 833.091224 535.065632 
L 836.074552 550.266519 
L 839.05788 538.03592 
L 842.041208 532.007982 
L 845.024536 536.681818 
L 848.007864 551.314856 
L 850.991192 557.12439 
L 853.97452 525.892683 
L 856.957848 551.926386 
L 859.941176 543.845455 
L 862.924505 535.327716 
L 865.907833 554.154102 
L 868.891161 558.129047 
L 871.874489 558.085366 
L 874.857817 550.266519 
L 877.841145 553.804656 
L 880.824473 553.848337 
L 883.807801 554.63459 
L 886.791129 549.08714 
L 889.774457 414.550554 
L 892.757785 560.094678 
L 895.741114 559.133703 
L 898.724442 550.004435 
L 904.691098 544.631707 
L 907.674426 554.066741 
L 910.657754 559.002661 
L 913.641082 557.037029 
L 916.62441 552.756319 
L 919.607738 540.219956 
L 922.591066 534.279379 
L 925.574394 544.850111 
L 928.557723 554.765632 
L 931.541051 558.34745 
L 934.524379 559.614191 
L 937.507707 544.1949 
L 940.491035 544.631707 
L 943.474363 550.004435 
L 946.457691 551.271175 
L 949.441019 545.592683 
L 952.424347 551.882705 
L 955.407675 558.740576 
L 958.391003 553.280488 
L 961.374332 552.275831 
L 964.35766 544.107539 
L 967.340988 529.43082 
L 970.324316 556.250776 
L 973.307644 557.517517 
L 976.290972 559.701552 
L 979.2743 549.786031 
L 982.257628 554.328825 
L 985.240956 557.517517 
L 988.224284 555.2898 
L 994.190941 558.085366 
L 997.174269 549.567627 
L 1000.157597 552.101109 
L 1003.140925 544.15122 
L 1006.124253 555.333481 
L 1009.107581 550.441242 
L 1012.090909 546.815743 
L 1012.090909 546.815743 
" style="fill:none;stroke:#ff0000;stroke-linecap:square;"/>
   </g>
   <g id="patch_5">
    <path d="M 106.8 592.2 
L 106.8 40.6 
" style="fill:none;stroke:#000000;stroke-linecap:square;stroke-linejoin:miter;stroke-width:0.8;"/>
   </g>
   <g id="patch_6">
    <path d="M 1055.2 592.2 
L 1055.2 40.6 
" style="fill:none;stroke:#000000;stroke-linecap:square;stroke-linejoin:miter;stroke-width:0.8;"/>
   </g>
   <g id="patch_7">
    <path d="M 106.8 592.2 
L 1055.2 592.2 
" style="fill:none;stroke:#000000;stroke-linecap:square;stroke-linejoin:miter;stroke-width:0.8;"/>
   </g>
   <g id="patch_8">
    <path d="M 106.8 40.6 
L 1055.2 40.6 
" style="fill:none;stroke:#000000;stroke-linecap:square;stroke-linejoin:miter;stroke-width:0.8;"/>
   </g>
  </g>
  <g id="text_35">
   <!-- COVID-19 Case Surveillance -->
   <g transform="translate(444.176562 28.64125)scale(0.2 -0.2)">
    <defs>
     <path d="M 64.203125 72.203125 
L 64.203125 62.09375 
Q 60.5 65.703125 55.703125 68.296875 
Q 48.203125 72.296875 40.59375 72.296875 
Q 28.90625 72.296875 20.5 62.40625 
Q 16.296875 57.5 14.25 51.703125 
Q 12.203125 45.90625 12.203125 39.296875 
Q 12.203125 25.796875 20.59375 16.09375 
Q 28.90625 6.40625 40.796875 6.40625 
Q 46.40625 6.40625 52.25 8.65625 
Q 58.09375 10.90625 64.203125 15.59375 
L 64.203125 5.90625 
Q 50.796875 -1.296875 39.90625 -1.296875 
Q 25.796875 -1.296875 15.203125 9.59375 
Q 3.796875 21.296875 3.796875 38.90625 
Q 3.796875 56 14.40625 67.796875 
Q 25.203125 79.703125 41.09375 79.703125 
Q 47.296875 79.703125 53 77.796875 
Q 58.703125 75.90625 64.203125 72.203125 
z
" id="AppleGothic-67"/>
     <path d="M 39 -1.296875 
Q 25.40625 -1.296875 15.203125 9.296875 
Q 4 20.796875 4 39 
Q 4 56.40625 14.5 68.40625 
Q 24.703125 79.703125 38.703125 79.703125 
Q 52.90625 79.703125 63.09375 68.59375 
Q 73.59375 56.90625 73.59375 39.09375 
Q 73.59375 20.59375 62.203125 9.09375 
Q 52.09375 -1.296875 39 -1.296875 
z
M 38.40625 6.09375 
Q 49.5 6.09375 57.296875 15.40625 
Q 65.203125 24.90625 65.203125 39.09375 
Q 65.203125 46 63.296875 51.890625 
Q 61.40625 57.796875 57.59375 62.59375 
Q 50 72.296875 38.796875 72.296875 
Q 27.703125 72.296875 20 62.59375 
Q 12.40625 53.09375 12.40625 38.90625 
Q 12.40625 24.09375 20.40625 14.796875 
Q 27.90625 6.09375 38.40625 6.09375 
z
" id="AppleGothic-79"/>
     <path d="M 1.703125 78.40625 
L 10.59375 78.40625 
L 36.09375 9.5 
L 61.09375 78.40625 
L 70.203125 78.40625 
L 40.203125 0 
L 32.40625 0 
z
" id="AppleGothic-86"/>
     <path d="M 6.796875 78.40625 
L 14.59375 78.40625 
L 14.59375 0 
L 6.796875 0 
z
" id="AppleGothic-73"/>
     <path d="M 5.59375 78.5 
L 24.40625 78.5 
Q 34.796875 78.5 41.796875 75.90625 
Q 44.703125 74.796875 47.296875 73.140625 
Q 49.90625 71.5 52.203125 69.203125 
Q 57.703125 63.703125 60.59375 56 
Q 63.5 48.296875 63.5 39.90625 
Q 63.5 21.203125 52.796875 10.5 
Q 42 0 23.203125 0 
L 5.59375 0 
z
M 21.296875 71.59375 
L 13.5 71.59375 
L 13.5 6.90625 
L 26.40625 6.90625 
Q 37.703125 6.90625 45.5 14.703125 
Q 54.59375 23.796875 54.59375 40 
Q 54.59375 43.203125 54.25 46 
Q 53.90625 48.796875 53.203125 51.40625 
Q 51 59 45.40625 64.40625 
Q 41.296875 68.296875 35.90625 70 
Q 30.703125 71.59375 21.296875 71.59375 
z
" id="AppleGothic-68"/>
     <path d="M 4 30.59375 
L 36.703125 30.59375 
L 36.703125 23.296875 
L 4 23.296875 
z
" id="AppleGothic-45"/>
     <path d="M 36.59375 74.59375 
L 43 74.59375 
L 43 0 
L 35.703125 0 
L 35.703125 55.09375 
L 18.09375 55.09375 
L 18.09375 60.703125 
L 22.09375 60.703125 
Q 31.09375 60.703125 34.59375 65.703125 
Q 36.59375 68.90625 36.59375 74.59375 
z
" id="AppleGothic-49"/>
     <path d="M 14.5 3.296875 
L 14.5 11.90625 
Q 16.40625 10.5 18.046875 9.390625 
Q 19.703125 8.296875 21.296875 7.5 
Q 26.59375 5 31.5 5 
Q 35.796875 5 39.703125 6.796875 
Q 42.796875 8.203125 45.4375 10.546875 
Q 48.09375 12.90625 50.203125 16.203125 
Q 54 22 55.5 28.796875 
Q 56.5 33.5 56.5 40.203125 
Q 51.796875 35.5 47.90625 33.203125 
Q 40.703125 28.90625 32.703125 28.90625 
Q 22.796875 28.90625 16.203125 34.59375 
Q 9.203125 40.59375 9.203125 51.09375 
Q 9.203125 62.296875 16.90625 69 
Q 24.203125 75.5 34.90625 75.5 
Q 46.40625 75.5 54.59375 67.203125 
Q 64.40625 57.203125 64.40625 39.5 
Q 64.40625 20.703125 54.296875 9.09375 
Q 44.90625 -1.703125 31.796875 -1.703125 
Q 26.90625 -1.703125 21.203125 0.296875 
Q 19.59375 0.796875 17.9375 1.59375 
Q 16.296875 2.40625 14.5 3.296875 
z
M 55.90625 47.90625 
Q 54.09375 58.09375 47.703125 63.703125 
Q 41.796875 68.796875 34.796875 68.796875 
Q 26.796875 68.796875 21.90625 63.796875 
Q 16.90625 58.59375 16.90625 51.59375 
Q 16.90625 44.703125 21.40625 40.09375 
Q 25.90625 35.59375 33.203125 35.59375 
Q 40.203125 35.59375 45.546875 38.640625 
Q 50.90625 41.703125 55.90625 47.90625 
z
" id="AppleGothic-57"/>
     <path id="AppleGothic-32"/>
     <path d="M 53.40625 72.90625 
L 53.40625 62.796875 
Q 50.796875 65 48.140625 66.703125 
Q 45.5 68.40625 42.90625 69.5 
Q 36.90625 72.296875 30.703125 72.296875 
Q 22.90625 72.296875 17.796875 68.40625 
Q 12.59375 64.40625 12.59375 58.90625 
Q 12.59375 50.90625 24.40625 46.90625 
Q 29.90625 45 35.34375 43.25 
Q 40.796875 41.5 46.40625 39.703125 
Q 58.296875 34 58.296875 22.703125 
Q 58.296875 11.703125 49.796875 5 
Q 41.703125 -1.296875 29.703125 -1.296875 
Q 21.703125 -1.296875 14.296875 1.796875 
Q 10 3.5 4.09375 7.40625 
L 4.09375 17.59375 
Q 11.796875 10.703125 19.703125 7.90625 
Q 22.296875 6.90625 24.796875 6.5 
Q 27.296875 6.09375 29.796875 6.09375 
Q 37.796875 6.09375 43.296875 10.09375 
Q 49.40625 14.5 49.40625 21.59375 
Q 49.40625 30.203125 37.796875 34.703125 
Q 32.203125 36.40625 26.796875 38.203125 
Q 21.40625 40 16 41.703125 
Q 4.296875 47.09375 4.296875 58.296875 
Q 4.296875 67.703125 11.703125 73.59375 
Q 19.296875 79.703125 30.703125 79.703125 
Q 37.703125 79.703125 44.703125 77.09375 
Q 48.296875 75.90625 53.40625 72.90625 
z
" id="AppleGothic-83"/>
     <path d="M 4.09375 53.5 
L 11.40625 53.5 
L 11.40625 19.40625 
Q 11.40625 13.703125 14.703125 9.796875 
Q 18.296875 5.296875 24.90625 5.296875 
Q 32.5 5.296875 37.90625 11.40625 
Q 43.5 17.796875 43.5 25.5 
L 43.5 53.5 
L 50.703125 53.5 
L 50.703125 0 
L 44.40625 0 
L 43.90625 9.09375 
Q 42.296875 6.90625 40.5 5.15625 
Q 38.703125 3.40625 36.59375 2.09375 
Q 31 -1.296875 24.296875 -1.296875 
Q 15.09375 -1.296875 9.59375 4.40625 
Q 4.09375 10.203125 4.09375 18.5 
z
" id="AppleGothic-117"/>
     <path d="M 33.203125 53.5 
L 33.203125 46.296875 
Q 32.09375 46.703125 31.390625 46.953125 
Q 30.703125 47.203125 30.203125 47.296875 
Q 29.703125 47.40625 29.140625 47.453125 
Q 28.59375 47.5 27.703125 47.5 
Q 20.40625 47.5 15.703125 40.40625 
Q 11.703125 33.90625 11.703125 25.90625 
L 11.703125 0 
L 4.5 0 
L 4.5 53.5 
L 11.09375 53.5 
L 11.59375 44.296875 
Q 14.09375 48.5 16.296875 50.296875 
Q 20.796875 54 27.09375 54 
Q 28.796875 54 30.25 53.890625 
Q 31.703125 53.796875 33.203125 53.5 
z
" id="AppleGothic-114"/>
     <path d="M 1.703125 53.5 
L 9.796875 53.5 
L 26.796875 7.59375 
L 44.203125 53.5 
L 51.40625 53.5 
L 30 0 
L 23.09375 0 
z
" id="AppleGothic-118"/>
     <path d="M 4 53.5 
L 11.203125 53.5 
L 11.203125 0 
L 4 0 
z
M 7.5 76.09375 
Q 9.59375 76.09375 11 74.6875 
Q 12.40625 73.296875 12.40625 70.703125 
Q 12.40625 68.09375 11.09375 66.6875 
Q 9.796875 65.296875 7.5 65.296875 
Q 5.203125 65.296875 3.953125 66.890625 
Q 2.703125 68.5 2.703125 70.59375 
Q 2.703125 73.90625 4.203125 75 
Q 5.703125 76.09375 7.5 76.09375 
z
" id="AppleGothic-105"/>
     <path d="M 4.5 78.40625 
L 11.703125 78.40625 
L 11.703125 0 
L 4.5 0 
z
" id="AppleGothic-108"/>
     <path d="M 51 35.796875 
L 51 0 
L 43.796875 0 
L 43.796875 35.296875 
Q 43.796875 40.90625 39.703125 44.5 
Q 35.59375 48.203125 29.90625 48.203125 
Q 22.296875 48.203125 16.796875 41.90625 
Q 11.296875 35.5 11.296875 27.5 
L 11.296875 0 
L 4.5 0 
L 4.5 53.5 
L 10.796875 53.5 
L 11.09375 43.5 
Q 13.796875 47.59375 17.40625 50.296875 
Q 23.296875 54.703125 30.703125 54.703125 
Q 39.296875 54.703125 45.09375 49.5 
Q 51 44.40625 51 35.796875 
z
" id="AppleGothic-110"/>
    </defs>
    <use xlink:href="#AppleGothic-67"/>
    <use x="68.499985" xlink:href="#AppleGothic-79"/>
    <use x="146.099976" xlink:href="#AppleGothic-86"/>
    <use x="217.199966" xlink:href="#AppleGothic-73"/>
    <use x="238.699951" xlink:href="#AppleGothic-68"/>
    <use x="307.199936" xlink:href="#AppleGothic-45"/>
    <use x="357.199921" xlink:href="#AppleGothic-49"/>
    <use x="425.199905" xlink:href="#AppleGothic-57"/>
    <use x="493.19989" xlink:href="#AppleGothic-32"/>
    <use x="525.199875" xlink:href="#AppleGothic-67"/>
    <use x="593.69986" xlink:href="#AppleGothic-97"/>
    <use x="650.199844" xlink:href="#AppleGothic-115"/>
    <use x="699.799835" xlink:href="#AppleGothic-101"/>
    <use x="754.699829" xlink:href="#AppleGothic-32"/>
    <use x="786.699814" xlink:href="#AppleGothic-83"/>
    <use x="849.899811" xlink:href="#AppleGothic-117"/>
    <use x="905.399796" xlink:href="#AppleGothic-114"/>
    <use x="940.599792" xlink:href="#AppleGothic-118"/>
    <use x="994.799789" xlink:href="#AppleGothic-101"/>
    <use x="1049.699783" xlink:href="#AppleGothic-105"/>
    <use x="1065.599777" xlink:href="#AppleGothic-108"/>
    <use x="1082.299774" xlink:href="#AppleGothic-108"/>
    <use x="1098.999771" xlink:href="#AppleGothic-97"/>
    <use x="1155.499756" xlink:href="#AppleGothic-110"/>
    <use x="1211.39975" xlink:href="#AppleGothic-99"/>
    <use x="1263.299744" xlink:href="#AppleGothic-101"/>
   </g>
  </g>
  <g id="text_36">
   <!-- Centers for Disease Control and Prevention, COVID-19 Response -->
   <g transform="translate(116.284 66.009)scale(0.16 -0.16)">
    <defs>
     <path d="M 10.09375 53.59375 
L 10.09375 63.796875 
Q 10.09375 70.90625 12.796875 74.59375 
Q 16.203125 79.703125 24.296875 79.703125 
Q 25.203125 79.703125 25.890625 79.640625 
Q 26.59375 79.59375 27.34375 79.5 
Q 28.09375 79.40625 29.09375 79.09375 
Q 30.09375 78.796875 31.5 78.40625 
L 31.5 71.796875 
Q 31.203125 72.203125 28.703125 72.703125 
Q 27.59375 72.90625 26.75 73 
Q 25.90625 73.09375 25.296875 73.09375 
Q 21.09375 73.09375 19.1875 70.6875 
Q 17.296875 68.296875 17.296875 63.796875 
L 17.296875 53.59375 
L 31.5 53.59375 
L 31.5 47.09375 
L 17.296875 47.09375 
L 17.296875 0 
L 10.09375 0 
L 10.09375 47.09375 
L 1 47.09375 
L 1 53.59375 
z
" id="AppleGothic-102"/>
     <path d="M 29.5 -1.296875 
Q 19.203125 -1.296875 11.40625 6.203125 
Q 3.09375 14.09375 3.09375 26.703125 
Q 3.09375 38.59375 10.40625 46.59375 
Q 17.90625 54.703125 28.90625 54.703125 
Q 39.796875 54.703125 47.296875 46.59375 
Q 54.703125 38.59375 54.703125 26.796875 
Q 54.703125 14.40625 46.703125 6.296875 
Q 39.296875 -1.296875 29.5 -1.296875 
z
M 28.796875 5.296875 
Q 36 5.296875 41.59375 11.296875 
Q 47 17.40625 47 26.796875 
Q 47 36.5 41.203125 42.59375 
Q 35.90625 48.203125 28.90625 48.203125 
Q 21.703125 48.203125 16.59375 42.40625 
Q 11 36 11 26.703125 
Q 11 17.296875 16.5 11 
Q 21.59375 5.296875 28.796875 5.296875 
z
" id="AppleGothic-111"/>
     <path d="M 4.09375 78.40625 
L 29.203125 78.40625 
Q 40 78.40625 46.90625 74.703125 
Q 56.203125 69.5 56.203125 58.09375 
Q 56.203125 47.09375 48.5 41.09375 
Q 41.5 35.5 30.5 35.5 
L 12 35.5 
L 12 0 
L 4.09375 0 
z
M 29.09375 71.5 
L 12 71.5 
L 12 42.40625 
L 29.703125 42.40625 
Q 36.703125 42.40625 41.796875 46.09375 
Q 47.5 50.296875 47.5 57.40625 
Q 47.5 65.40625 40.796875 68.90625 
Q 35.90625 71.5 29.09375 71.5 
z
" id="AppleGothic-80"/>
     <path d="M 12.59375 -14.703125 
L 8.59375 -14.703125 
Q 10.40625 -10.90625 11.296875 -7.84375 
Q 12.203125 -4.796875 12.59375 -1 
Q 10.40625 0 9.40625 1.203125 
Q 8.203125 2.5 8.203125 5.40625 
Q 8.203125 9 9.84375 11.25 
Q 11.5 13.5 13.796875 13.5 
Q 16.09375 13.5 17.390625 10.953125 
Q 18.703125 8.40625 18.703125 5.09375 
Q 18.703125 2.203125 18.140625 -0.75 
Q 17.59375 -3.703125 16.5 -6.703125 
Q 15.796875 -8.40625 14.84375 -10.34375 
Q 13.90625 -12.296875 12.59375 -14.703125 
z
" id="AppleGothic-44"/>
     <path d="M 4.90625 78.40625 
L 30.796875 78.40625 
Q 41.203125 78.40625 48 75 
Q 57.5 70.203125 57.5 59 
Q 57.5 51.296875 53.203125 46.390625 
Q 48.90625 41.5 39.40625 38.59375 
Q 41.09375 37.90625 42.390625 37.25 
Q 43.703125 36.59375 44.5 35.796875 
Q 48 32.796875 50 27 
L 60 0 
L 51.09375 0 
L 45.90625 16.40625 
Q 41.796875 28.703125 37.296875 32.5 
Q 33.40625 36.09375 24.40625 36.09375 
L 12.796875 36.09375 
L 12.796875 0 
L 4.90625 0 
z
M 32.296875 71.5 
L 12.796875 71.5 
L 12.796875 42.296875 
L 24.796875 42.296875 
Q 32 42.296875 36.953125 43.640625 
Q 41.90625 45 45 48 
Q 47.09375 49.90625 48.4375 52.703125 
Q 49.796875 55.5 49.796875 58.40625 
Q 49.796875 63.90625 45.296875 67.5 
Q 40.40625 71.5 32.296875 71.5 
z
" id="AppleGothic-82"/>
     <path d="M 11.5 4.796875 
L 11.5 -17.203125 
L 4.5 -17.203125 
L 4.5 53.5 
L 11 53.5 
L 11.40625 43.796875 
Q 14.703125 49.203125 19 51.953125 
Q 23.296875 54.703125 29.40625 54.703125 
Q 39.40625 54.703125 46 46.90625 
Q 49.40625 43 51.09375 38.140625 
Q 52.796875 33.296875 52.796875 27.296875 
Q 52.796875 14.90625 45.296875 6.796875 
Q 37.796875 -1.296875 27.40625 -1.296875 
Q 22.203125 -1.296875 17.796875 0.90625 
Q 16.5 1.40625 15 2.40625 
Q 13.5 3.40625 11.5 4.796875 
z
M 11.5 28.5 
L 11.5 12.5 
Q 13.09375 11 14.4375 9.953125 
Q 15.796875 8.90625 16.90625 8.203125 
Q 21.796875 5.296875 26.796875 5.296875 
Q 34.796875 5.296875 39.90625 11.59375 
Q 45.09375 18.203125 45.09375 27.59375 
Q 45.09375 36.40625 40.296875 42.296875 
Q 35.59375 48.203125 28.296875 48.203125 
Q 20.796875 48.203125 15.90625 41.703125 
Q 11.5 35.796875 11.5 28.5 
z
" id="AppleGothic-112"/>
    </defs>
    <use xlink:href="#AppleGothic-67"/>
    <use x="68.499985" xlink:href="#AppleGothic-101"/>
    <use x="123.399979" xlink:href="#AppleGothic-110"/>
    <use x="179.299973" xlink:href="#AppleGothic-116"/>
    <use x="213.499969" xlink:href="#AppleGothic-101"/>
    <use x="268.399963" xlink:href="#AppleGothic-114"/>
    <use x="303.59996" xlink:href="#AppleGothic-115"/>
    <use x="353.199951" xlink:href="#AppleGothic-32"/>
    <use x="385.199936" xlink:href="#AppleGothic-102"/>
    <use x="419.199921" xlink:href="#AppleGothic-111"/>
    <use x="477.499908" xlink:href="#AppleGothic-114"/>
    <use x="512.699905" xlink:href="#AppleGothic-32"/>
    <use x="544.69989" xlink:href="#AppleGothic-68"/>
    <use x="613.199875" xlink:href="#AppleGothic-105"/>
    <use x="629.099869" xlink:href="#AppleGothic-115"/>
    <use x="678.69986" xlink:href="#AppleGothic-101"/>
    <use x="733.599854" xlink:href="#AppleGothic-97"/>
    <use x="790.099838" xlink:href="#AppleGothic-115"/>
    <use x="839.699829" xlink:href="#AppleGothic-101"/>
    <use x="894.599823" xlink:href="#AppleGothic-32"/>
    <use x="926.599808" xlink:href="#AppleGothic-67"/>
    <use x="995.099792" xlink:href="#AppleGothic-111"/>
    <use x="1053.39978" xlink:href="#AppleGothic-110"/>
    <use x="1109.299774" xlink:href="#AppleGothic-116"/>
    <use x="1143.499771" xlink:href="#AppleGothic-114"/>
    <use x="1178.699768" xlink:href="#AppleGothic-111"/>
    <use x="1236.999756" xlink:href="#AppleGothic-108"/>
    <use x="1253.699753" xlink:href="#AppleGothic-32"/>
    <use x="1285.699738" xlink:href="#AppleGothic-97"/>
    <use x="1342.199722" xlink:href="#AppleGothic-110"/>
    <use x="1398.099716" xlink:href="#AppleGothic-100"/>
    <use x="1452.099701" xlink:href="#AppleGothic-32"/>
    <use x="1484.099686" xlink:href="#AppleGothic-80"/>
    <use x="1544.399673" xlink:href="#AppleGothic-114"/>
    <use x="1579.59967" xlink:href="#AppleGothic-101"/>
    <use x="1634.499664" xlink:href="#AppleGothic-118"/>
    <use x="1688.699661" xlink:href="#AppleGothic-101"/>
    <use x="1743.599655" xlink:href="#AppleGothic-110"/>
    <use x="1799.499649" xlink:href="#AppleGothic-116"/>
    <use x="1833.699646" xlink:href="#AppleGothic-105"/>
    <use x="1849.59964" xlink:href="#AppleGothic-111"/>
    <use x="1907.899628" xlink:href="#AppleGothic-110"/>
    <use x="1963.799622" xlink:href="#AppleGothic-44"/>
    <use x="1992.099609" xlink:href="#AppleGothic-32"/>
    <use x="2024.099594" xlink:href="#AppleGothic-67"/>
    <use x="2092.599579" xlink:href="#AppleGothic-79"/>
    <use x="2170.19957" xlink:href="#AppleGothic-86"/>
    <use x="2241.299561" xlink:href="#AppleGothic-73"/>
    <use x="2262.799545" xlink:href="#AppleGothic-68"/>
    <use x="2331.29953" xlink:href="#AppleGothic-45"/>
    <use x="2381.299515" xlink:href="#AppleGothic-49"/>
    <use x="2449.2995" xlink:href="#AppleGothic-57"/>
    <use x="2517.299484" xlink:href="#AppleGothic-32"/>
    <use x="2549.299469" xlink:href="#AppleGothic-82"/>
    <use x="2613.299454" xlink:href="#AppleGothic-101"/>
    <use x="2668.199448" xlink:href="#AppleGothic-115"/>
    <use x="2717.799438" xlink:href="#AppleGothic-112"/>
    <use x="2773.199432" xlink:href="#AppleGothic-111"/>
    <use x="2831.49942" xlink:href="#AppleGothic-110"/>
    <use x="2887.399414" xlink:href="#AppleGothic-115"/>
    <use x="2936.999405" xlink:href="#AppleGothic-101"/>
   </g>
   <!-- COVID-19 Case Surveillance Data (code vbim-akqf from https://data.cdc.gov/resource/vbim-akqf) -->
   <g transform="translate(116.284 84.5445)scale(0.16 -0.16)">
    <defs>
     <path d="M 34.796875 82.203125 
L 41.40625 82.203125 
Q 36.59375 74.5 33.890625 69.890625 
Q 31.203125 65.296875 30.59375 63.796875 
Q 25.09375 51.296875 25.09375 35.5 
Q 25.09375 24.796875 27.40625 15.90625 
Q 29.40625 8.90625 33.40625 1.59375 
Q 33.59375 1.09375 35.546875 -2.046875 
Q 37.5 -5.203125 41.09375 -11.203125 
L 34.796875 -11.203125 
Q 32.796875 -8.296875 30.9375 -5.546875 
Q 29.09375 -2.796875 27.09375 0 
Q 24.703125 3.796875 22.953125 7.546875 
Q 21.203125 11.296875 19.90625 14.90625 
Q 16.703125 24.796875 16.703125 35.5 
Q 16.703125 46.296875 19.703125 55.59375 
Q 20.90625 59.203125 22.65625 62.84375 
Q 24.40625 66.5 26.796875 70.296875 
Q 28.796875 73.296875 30.796875 76.25 
Q 32.796875 79.203125 34.796875 82.203125 
z
" id="AppleGothic-40"/>
     <path d="M 4.5 78.40625 
L 11.796875 78.40625 
L 11.796875 44.5 
Q 13.203125 46.59375 14.546875 48.09375 
Q 15.90625 49.59375 17.296875 50.703125 
Q 22.5 54.703125 29.40625 54.703125 
Q 39.796875 54.703125 46.5 46.796875 
Q 53.40625 38.796875 53.40625 27.40625 
Q 53.40625 15.703125 46.5 7.5 
Q 39.09375 -1.296875 28 -1.296875 
Q 21.90625 -1.296875 17.40625 1.40625 
Q 14.5 3 11.796875 6 
L 9.90625 0 
L 4.5 0 
z
M 11.796875 29.09375 
L 11.796875 13.59375 
Q 13.203125 11.90625 14.59375 10.59375 
Q 16 9.296875 17.203125 8.40625 
Q 21.59375 5.296875 27.203125 5.296875 
Q 34.90625 5.296875 39.90625 11.59375 
Q 44.90625 18.09375 44.90625 27.296875 
Q 44.90625 36.90625 39.296875 43 
Q 34.5 48.203125 28.203125 48.203125 
Q 21.40625 48.203125 16.5 42.40625 
Q 11.796875 36.796875 11.796875 29.09375 
z
" id="AppleGothic-98"/>
     <path d="M 84.203125 34.296875 
L 84.203125 0 
L 76.90625 0 
L 76.90625 36 
Q 76.90625 41.703125 73 45.203125 
Q 69.703125 48.203125 65.203125 48.203125 
Q 58.5 48.203125 53.203125 42 
Q 48 35.90625 48 26.90625 
L 48 0 
L 40.703125 0 
L 40.703125 36 
Q 40.703125 41.40625 37 44.703125 
Q 33.5 48.203125 29 48.203125 
Q 22.5 48.203125 17.40625 42.40625 
Q 11.796875 36 11.796875 26.59375 
L 11.796875 0 
L 4.5 0 
L 4.5 53.5 
L 11.296875 53.5 
L 11.59375 45 
Q 14.5 49.703125 19.90625 52.40625 
Q 24.703125 54.703125 29.59375 54.703125 
Q 37.203125 54.703125 42.40625 50.296875 
Q 46.203125 47 47.203125 43.703125 
Q 49.203125 47.40625 52.90625 50.40625 
Q 58.703125 54.703125 65.703125 54.703125 
Q 74.203125 54.703125 78.90625 49.59375 
Q 84.203125 43.796875 84.203125 34.296875 
z
" id="AppleGothic-109"/>
     <path d="M 4.5 78.40625 
L 11.796875 78.40625 
L 11.796875 29.90625 
L 36.40625 53.5 
L 46.59375 53.5 
L 24.09375 32.703125 
L 49.796875 0 
L 39.90625 0 
L 18.703125 27.90625 
L 11.796875 21.5 
L 11.796875 0 
L 4.5 0 
z
" id="AppleGothic-107"/>
     <path d="M 42.59375 48.09375 
L 44.296875 53.5 
L 49.796875 53.5 
L 49.796875 -17.203125 
L 42.59375 -17.203125 
L 42.59375 9.09375 
Q 36.09375 -1.296875 25.203125 -1.296875 
Q 15.59375 -1.296875 8.59375 6.296875 
Q 1.296875 14.296875 1.296875 26.09375 
Q 1.296875 37.703125 8.296875 46.203125 
Q 15.5 54.703125 26.40625 54.703125 
Q 32.203125 54.703125 36.90625 52.203125 
Q 39.703125 51 42.59375 48.09375 
z
M 42.59375 26.40625 
L 42.59375 40.203125 
Q 39.40625 44 35.296875 46.09375 
Q 31.203125 48.203125 27.296875 48.203125 
Q 19.40625 48.203125 14.296875 41.796875 
Q 9.09375 35.203125 9.09375 26.203125 
Q 9.09375 16.59375 14.796875 10.5 
Q 19.703125 5.296875 26 5.296875 
Q 32 5.296875 36.90625 10.296875 
Q 42.59375 16.296875 42.59375 26.40625 
z
" id="AppleGothic-113"/>
     <path d="M 24.796875 39.90625 
Q 22.40625 39.90625 21.203125 41.90625 
Q 20 43.90625 20 46.796875 
Q 20 49.796875 21.25 51.84375 
Q 22.5 53.90625 24.796875 53.90625 
Q 26.90625 53.90625 28.203125 52.046875 
Q 29.5 50.203125 29.5 47 
Q 29.5 44 28.296875 41.953125 
Q 27.09375 39.90625 24.796875 39.90625 
z
M 24.796875 -0.296875 
Q 22.40625 -0.296875 21.203125 1.703125 
Q 20 3.703125 20 6.59375 
Q 20 9.59375 21.25 11.640625 
Q 22.5 13.703125 24.796875 13.703125 
Q 26.90625 13.703125 28.203125 11.84375 
Q 29.5 10 29.5 6.796875 
Q 29.5 3.796875 28.296875 1.75 
Q 27.09375 -0.296875 24.796875 -0.296875 
z
" id="AppleGothic-58"/>
     <path d="M 30.703125 78.40625 
L 37 78.40625 
L 7.703125 -10.5 
L 1.40625 -10.5 
z
" id="AppleGothic-47"/>
     <path d="M 14.296875 -0.296875 
Q 11.90625 -0.296875 10.203125 1.703125 
Q 8.5 3.703125 8.5 6.59375 
Q 8.5 9.59375 10.25 11.640625 
Q 12 13.703125 14.296875 13.703125 
Q 16.5 13.703125 18.25 11.84375 
Q 20 10 20 6.796875 
Q 20 3.796875 18.296875 1.75 
Q 16.59375 -0.296875 14.296875 -0.296875 
z
" id="AppleGothic-46"/>
     <path d="M 44.09375 47.5 
L 46.09375 53.5 
L 51.40625 53.5 
L 51.40625 5.09375 
Q 51.40625 -7.40625 45.296875 -13.90625 
Q 39.203125 -20.40625 26.40625 -20.40625 
Q 21.203125 -20.40625 16.546875 -18.546875 
Q 11.90625 -16.703125 6.796875 -12.796875 
L 6.796875 -4 
Q 10 -7 13.09375 -9.046875 
Q 16.203125 -11.09375 19.203125 -12.203125 
Q 22.703125 -13.5 26.40625 -13.5 
Q 34.296875 -13.5 38.703125 -9.90625 
Q 44.09375 -5.5 44.09375 4.203125 
L 44.09375 10.796875 
Q 40.296875 4.5 34.703125 1.90625 
Q 30.90625 0.09375 26.296875 0.09375 
Q 16.40625 0.09375 9.703125 8 
Q 3.09375 16.09375 3.09375 26.703125 
Q 3.09375 37.296875 9.296875 45.40625 
Q 16.5 54.703125 27.703125 54.703125 
Q 33.296875 54.703125 38.296875 52 
Q 39.796875 51.09375 41.25 50 
Q 42.703125 48.90625 44.09375 47.5 
z
M 44.09375 25.90625 
L 44.09375 40.59375 
Q 42.40625 42.5 40.65625 43.796875 
Q 38.90625 45.09375 37.203125 46.09375 
Q 35.203125 47.203125 33.09375 47.703125 
Q 31 48.203125 28.796875 48.203125 
Q 21.296875 48.203125 16.40625 42.90625 
Q 10.90625 36.90625 10.90625 27.09375 
Q 10.90625 18.203125 15.5 12.40625 
Q 20 6.703125 27.203125 6.703125 
Q 34.296875 6.703125 39.203125 12.203125 
Q 44.09375 17.5 44.09375 25.90625 
z
" id="AppleGothic-103"/>
     <path d="M 34.703125 35.5 
Q 34.703125 24.796875 31.5 15 
Q 29.09375 7.796875 24.296875 0.09375 
Q 22.296875 -2.796875 20.390625 -5.546875 
Q 18.5 -8.296875 16.59375 -11.203125 
L 10.296875 -11.203125 
Q 12.203125 -8 14.09375 -4.84375 
Q 16 -1.703125 18 1.5 
Q 20 5.203125 21.5 8.703125 
Q 23 12.203125 23.90625 15.703125 
Q 26.296875 24.40625 26.296875 35.5 
Q 26.296875 41.40625 25.640625 46.453125 
Q 25 51.5 23.703125 56 
Q 22.796875 59.40625 21.1875 62.953125 
Q 19.59375 66.5 17.5 70.296875 
Q 15.5 73.296875 13.640625 76.25 
Q 11.796875 79.203125 10 82.203125 
L 16.59375 82.203125 
Q 18.59375 79.203125 20.546875 76.25 
Q 22.5 73.296875 24.5 70.40625 
Q 26.90625 66.5 28.703125 62.84375 
Q 30.5 59.203125 31.59375 55.703125 
Q 34.703125 46.5 34.703125 35.5 
z
" id="AppleGothic-41"/>
    </defs>
    <use xlink:href="#AppleGothic-67"/>
    <use x="68.499985" xlink:href="#AppleGothic-79"/>
    <use x="146.099976" xlink:href="#AppleGothic-86"/>
    <use x="217.199966" xlink:href="#AppleGothic-73"/>
    <use x="238.699951" xlink:href="#AppleGothic-68"/>
    <use x="307.199936" xlink:href="#AppleGothic-45"/>
    <use x="357.199921" xlink:href="#AppleGothic-49"/>
    <use x="425.199905" xlink:href="#AppleGothic-57"/>
    <use x="493.19989" xlink:href="#AppleGothic-32"/>
    <use x="525.199875" xlink:href="#AppleGothic-67"/>
    <use x="593.69986" xlink:href="#AppleGothic-97"/>
    <use x="650.199844" xlink:href="#AppleGothic-115"/>
    <use x="699.799835" xlink:href="#AppleGothic-101"/>
    <use x="754.699829" xlink:href="#AppleGothic-32"/>
    <use x="786.699814" xlink:href="#AppleGothic-83"/>
    <use x="849.899811" xlink:href="#AppleGothic-117"/>
    <use x="905.399796" xlink:href="#AppleGothic-114"/>
    <use x="940.599792" xlink:href="#AppleGothic-118"/>
    <use x="994.799789" xlink:href="#AppleGothic-101"/>
    <use x="1049.699783" xlink:href="#AppleGothic-105"/>
    <use x="1065.599777" xlink:href="#AppleGothic-108"/>
    <use x="1082.299774" xlink:href="#AppleGothic-108"/>
    <use x="1098.999771" xlink:href="#AppleGothic-97"/>
    <use x="1155.499756" xlink:href="#AppleGothic-110"/>
    <use x="1211.39975" xlink:href="#AppleGothic-99"/>
    <use x="1263.299744" xlink:href="#AppleGothic-101"/>
    <use x="1318.199738" xlink:href="#AppleGothic-32"/>
    <use x="1350.199722" xlink:href="#AppleGothic-68"/>
    <use x="1418.699707" xlink:href="#AppleGothic-97"/>
    <use x="1475.199692" xlink:href="#AppleGothic-116"/>
    <use x="1509.399689" xlink:href="#AppleGothic-97"/>
    <use x="1565.899673" xlink:href="#AppleGothic-32"/>
    <use x="1597.899658" xlink:href="#AppleGothic-40"/>
    <use x="1647.899643" xlink:href="#AppleGothic-99"/>
    <use x="1699.799637" xlink:href="#AppleGothic-111"/>
    <use x="1758.099625" xlink:href="#AppleGothic-100"/>
    <use x="1812.099609" xlink:href="#AppleGothic-101"/>
    <use x="1866.999603" xlink:href="#AppleGothic-32"/>
    <use x="1898.999588" xlink:href="#AppleGothic-118"/>
    <use x="1953.199585" xlink:href="#AppleGothic-98"/>
    <use x="2009.399582" xlink:href="#AppleGothic-105"/>
    <use x="2025.299576" xlink:href="#AppleGothic-109"/>
    <use x="2114.599564" xlink:href="#AppleGothic-45"/>
    <use x="2164.599548" xlink:href="#AppleGothic-97"/>
    <use x="2221.099533" xlink:href="#AppleGothic-107"/>
    <use x="2272.499527" xlink:href="#AppleGothic-113"/>
    <use x="2327.199524" xlink:href="#AppleGothic-102"/>
    <use x="2361.199509" xlink:href="#AppleGothic-32"/>
    <use x="2393.199493" xlink:href="#AppleGothic-102"/>
    <use x="2427.199478" xlink:href="#AppleGothic-114"/>
    <use x="2462.399475" xlink:href="#AppleGothic-111"/>
    <use x="2520.699463" xlink:href="#AppleGothic-109"/>
    <use x="2609.999451" xlink:href="#AppleGothic-32"/>
    <use x="2641.999435" xlink:href="#AppleGothic-104"/>
    <use x="2694.199432" xlink:href="#AppleGothic-116"/>
    <use x="2728.399429" xlink:href="#AppleGothic-116"/>
    <use x="2762.599426" xlink:href="#AppleGothic-112"/>
    <use x="2817.99942" xlink:href="#AppleGothic-115"/>
    <use x="2867.599411" xlink:href="#AppleGothic-58"/>
    <use x="2917.599396" xlink:href="#AppleGothic-47"/>
    <use x="2967.59938" xlink:href="#AppleGothic-47"/>
    <use x="3017.599365" xlink:href="#AppleGothic-100"/>
    <use x="3071.59935" xlink:href="#AppleGothic-97"/>
    <use x="3128.099335" xlink:href="#AppleGothic-116"/>
    <use x="3162.299332" xlink:href="#AppleGothic-97"/>
    <use x="3218.799316" xlink:href="#AppleGothic-46"/>
    <use x="3253.299301" xlink:href="#AppleGothic-99"/>
    <use x="3305.199295" xlink:href="#AppleGothic-100"/>
    <use x="3359.19928" xlink:href="#AppleGothic-99"/>
    <use x="3411.099274" xlink:href="#AppleGothic-46"/>
    <use x="3445.599258" xlink:href="#AppleGothic-103"/>
    <use x="3501.799255" xlink:href="#AppleGothic-111"/>
    <use x="3560.099243" xlink:href="#AppleGothic-118"/>
    <use x="3614.29924" xlink:href="#AppleGothic-47"/>
    <use x="3664.299225" xlink:href="#AppleGothic-114"/>
    <use x="3699.499222" xlink:href="#AppleGothic-101"/>
    <use x="3754.399216" xlink:href="#AppleGothic-115"/>
    <use x="3803.999207" xlink:href="#AppleGothic-111"/>
    <use x="3862.299194" xlink:href="#AppleGothic-117"/>
    <use x="3917.799179" xlink:href="#AppleGothic-114"/>
    <use x="3952.999176" xlink:href="#AppleGothic-99"/>
    <use x="4004.89917" xlink:href="#AppleGothic-101"/>
    <use x="4059.799164" xlink:href="#AppleGothic-47"/>
    <use x="4109.799149" xlink:href="#AppleGothic-118"/>
    <use x="4163.999146" xlink:href="#AppleGothic-98"/>
    <use x="4220.199142" xlink:href="#AppleGothic-105"/>
    <use x="4236.099136" xlink:href="#AppleGothic-109"/>
    <use x="4325.399124" xlink:href="#AppleGothic-45"/>
    <use x="4375.399109" xlink:href="#AppleGothic-97"/>
    <use x="4431.899094" xlink:href="#AppleGothic-107"/>
    <use x="4483.299088" xlink:href="#AppleGothic-113"/>
    <use x="4537.999084" xlink:href="#AppleGothic-102"/>
    <use x="4571.999069" xlink:href="#AppleGothic-41"/>
   </g>
   <!--  -->
   <g transform="translate(116.284 102.8635)scale(0.16 -0.16)"/>
   <!-- Latest Record date =  10/16/2020 -->
   <g transform="translate(116.284 120.67)scale(0.16 -0.16)">
    <defs>
     <path d="M 5.203125 78.40625 
L 13.09375 78.40625 
L 13.09375 6.90625 
L 51.796875 6.90625 
L 51.796875 0 
L 5.203125 0 
z
" id="AppleGothic-76"/>
     <path d="M 7.296875 53.703125 
L 68.09375 53.703125 
L 68.09375 47.296875 
L 7.296875 47.296875 
z
M 7.296875 27.09375 
L 68.09375 27.09375 
L 68.09375 21 
L 7.296875 21 
z
" id="AppleGothic-61"/>
     <path d="M 34.796875 -1.296875 
Q 22.09375 -1.296875 14.59375 9 
Q 7.203125 19.203125 7.203125 37.296875 
Q 7.203125 55.5 15.203125 65.90625 
Q 22.703125 75.90625 34.703125 75.90625 
Q 47.296875 75.90625 54.40625 65.203125 
Q 61.796875 54.59375 61.796875 37.40625 
Q 61.796875 19.5 54.09375 9.09375 
Q 46.5 -1.296875 34.796875 -1.296875 
z
M 34 5.40625 
Q 44.703125 5.40625 50 15.5 
Q 54.09375 24 54.09375 37.5 
Q 54.09375 51.796875 49.40625 60.296875 
Q 44.09375 69.203125 34.59375 69.203125 
Q 24.59375 69.203125 19.5 59.703125 
Q 15 51.296875 15 37.09375 
Q 15 23.09375 19.5 14.703125 
Q 24.59375 5.40625 34 5.40625 
z
" id="AppleGothic-48"/>
     <path d="M 57.796875 71.203125 
L 57.796875 62.703125 
Q 56 64.09375 54.296875 65.046875 
Q 52.59375 66 50.90625 66.796875 
Q 48.203125 68.09375 45.59375 68.640625 
Q 43 69.203125 40.40625 69.203125 
Q 38.59375 69.203125 36.75 68.890625 
Q 34.90625 68.59375 33.09375 67.796875 
Q 26.09375 64.90625 21.796875 58.40625 
Q 15.796875 49.203125 15.796875 34.203125 
Q 20.5 38.90625 24.5 41.5 
Q 31.59375 45.796875 39.59375 45.796875 
Q 49.40625 45.796875 56 40.09375 
Q 63.09375 33.796875 63.09375 23.296875 
Q 63.09375 12.59375 55.59375 5.59375 
Q 48.09375 -1.296875 37.40625 -1.296875 
Q 26.09375 -1.296875 17.90625 7.09375 
Q 8.09375 17 8.09375 35.203125 
Q 8.09375 53.296875 17.5 64.59375 
Q 26.796875 75.90625 40.703125 75.90625 
Q 45.90625 75.90625 50.40625 74.40625 
Q 51.703125 73.90625 53.546875 73.15625 
Q 55.40625 72.40625 57.796875 71.203125 
z
M 16.59375 26.59375 
Q 18 18 23.40625 12 
Q 29.40625 5.40625 37.796875 5.40625 
Q 45.296875 5.40625 50.203125 10.296875 
Q 55.296875 15.203125 55.296875 22.796875 
Q 55.296875 30 50.40625 34.59375 
Q 45.59375 39.09375 39 39.09375 
Q 31.09375 39.09375 24.09375 34 
Q 22.09375 32.5 20.1875 30.703125 
Q 18.296875 28.90625 16.59375 26.59375 
z
" id="AppleGothic-54"/>
     <path d="M 17.203125 6.703125 
L 61.59375 6.703125 
L 61.59375 0 
L 10.203125 0 
L 10.203125 3.203125 
Q 10.203125 15.90625 21 26 
Q 26.09375 29.59375 31.09375 33.1875 
Q 36.09375 36.796875 41.203125 40.5 
Q 52.09375 48.40625 52.09375 56.203125 
Q 52.09375 62.40625 47.09375 65.90625 
Q 44.796875 67.59375 42.09375 68.390625 
Q 39.40625 69.203125 36.203125 69.203125 
Q 31.5 69.203125 27.203125 68 
Q 20.703125 66 13.796875 61.09375 
L 13.796875 69.296875 
Q 20.703125 72.796875 26.046875 74.34375 
Q 31.40625 75.90625 36.203125 75.90625 
Q 46.296875 75.90625 53.203125 70.703125 
Q 60 65.59375 60 56.59375 
Q 60 46.796875 49.5 38.09375 
Q 44.5 34.59375 39.546875 31.25 
Q 34.59375 27.90625 29.59375 24.40625 
Q 18.40625 16 17.203125 6.703125 
z
" id="AppleGothic-50"/>
    </defs>
    <use xlink:href="#AppleGothic-76"/>
    <use x="55.199997" xlink:href="#AppleGothic-97"/>
    <use x="111.699982" xlink:href="#AppleGothic-116"/>
    <use x="145.899979" xlink:href="#AppleGothic-101"/>
    <use x="200.799973" xlink:href="#AppleGothic-115"/>
    <use x="250.399963" xlink:href="#AppleGothic-116"/>
    <use x="284.59996" xlink:href="#AppleGothic-32"/>
    <use x="316.599945" xlink:href="#AppleGothic-82"/>
    <use x="380.59993" xlink:href="#AppleGothic-101"/>
    <use x="435.499924" xlink:href="#AppleGothic-99"/>
    <use x="487.399918" xlink:href="#AppleGothic-111"/>
    <use x="545.699905" xlink:href="#AppleGothic-114"/>
    <use x="580.899902" xlink:href="#AppleGothic-100"/>
    <use x="634.899887" xlink:href="#AppleGothic-32"/>
    <use x="666.899872" xlink:href="#AppleGothic-100"/>
    <use x="720.899857" xlink:href="#AppleGothic-97"/>
    <use x="777.399841" xlink:href="#AppleGothic-116"/>
    <use x="811.599838" xlink:href="#AppleGothic-101"/>
    <use x="866.499832" xlink:href="#AppleGothic-32"/>
    <use x="898.499817" xlink:href="#AppleGothic-61"/>
    <use x="975.299805" xlink:href="#AppleGothic-32"/>
    <use x="1007.299789" xlink:href="#AppleGothic-32"/>
    <use x="1039.299774" xlink:href="#AppleGothic-49"/>
    <use x="1107.299759" xlink:href="#AppleGothic-48"/>
    <use x="1175.299744" xlink:href="#AppleGothic-47"/>
    <use x="1225.299728" xlink:href="#AppleGothic-49"/>
    <use x="1293.299713" xlink:href="#AppleGothic-54"/>
    <use x="1361.299698" xlink:href="#AppleGothic-47"/>
    <use x="1411.299683" xlink:href="#AppleGothic-50"/>
    <use x="1479.299667" xlink:href="#AppleGothic-48"/>
    <use x="1547.299652" xlink:href="#AppleGothic-50"/>
    <use x="1615.299637" xlink:href="#AppleGothic-48"/>
   </g>
   <!-- Total Cases Logged =  11,843,490 -->
   <g transform="translate(116.284 138.7255)scale(0.16 -0.16)">
    <defs>
     <path d="M 2.59375 78.40625 
L 63.09375 78.40625 
L 63.09375 71.5 
L 36.796875 71.5 
L 36.796875 0 
L 29 0 
L 29 71.5 
L 2.59375 71.5 
z
" id="AppleGothic-84"/>
     <path d="M 46.203125 40.703125 
Q 50.296875 39.5 53.1875 38.203125 
Q 56.09375 36.90625 57.90625 35.5 
Q 65.5 30.09375 65.5 21.40625 
Q 65.5 11.703125 56.90625 5.203125 
Q 48.40625 -1.296875 35.703125 -1.296875 
Q 22.40625 -1.296875 14.796875 5.09375 
Q 8 10.796875 8 19.203125 
Q 8 28.09375 15.59375 33.203125 
Q 17.90625 34.796875 20.953125 36 
Q 24 37.203125 27.796875 38.296875 
Q 24.59375 39.59375 22.34375 40.890625 
Q 20.09375 42.203125 18.703125 43.5 
Q 12.796875 48.5 12.796875 56.296875 
Q 12.796875 65.203125 19.703125 70.5 
Q 26.59375 75.90625 37.203125 75.90625 
Q 47.09375 75.90625 53.703125 71.40625 
Q 60.90625 66.59375 60.90625 58.40625 
Q 60.90625 52.703125 57.34375 48.140625 
Q 53.796875 43.59375 46.203125 40.703125 
z
M 37.59375 43 
Q 41 44.296875 43.453125 45.546875 
Q 45.90625 46.796875 47.5 47.90625 
Q 53.09375 51.90625 53.09375 57.296875 
Q 53.09375 62.40625 48.5 65.703125 
Q 44.09375 69.203125 36.90625 69.203125 
Q 29.59375 69.203125 25.203125 65.703125 
Q 20.703125 62.40625 20.703125 56.796875 
Q 20.703125 51.90625 24.703125 48.40625 
Q 26.5 46.90625 29.703125 45.5 
Q 32.90625 44.09375 37.59375 43 
z
M 37 36 
Q 32.203125 34.40625 28.75 32.90625 
Q 25.296875 31.40625 23 30 
Q 15.796875 25.40625 15.796875 19.296875 
Q 15.796875 13.203125 21.5 9.296875 
Q 27 5.40625 36.09375 5.40625 
Q 45.90625 5.40625 51.796875 10 
Q 57.703125 14.59375 57.703125 20.90625 
Q 57.703125 27.203125 50.59375 31.203125 
Q 48.5 32.296875 45.09375 33.546875 
Q 41.703125 34.796875 37 36 
z
" id="AppleGothic-56"/>
     <path d="M 41.59375 74.59375 
L 48.90625 74.59375 
L 48.90625 28.296875 
L 62.5 28.296875 
L 62.5 21.59375 
L 48.90625 21.59375 
L 48.90625 0 
L 41.59375 0 
L 41.59375 21.59375 
L 5.5 21.59375 
L 5.5 28.296875 
z
M 41.59375 28.296875 
L 41.59375 65.09375 
L 13.09375 28.296875 
z
" id="AppleGothic-52"/>
     <path d="M 8.59375 5.203125 
L 8.59375 13.59375 
Q 13.796875 9.703125 19.296875 7.546875 
Q 24.796875 5.40625 30.796875 5.40625 
Q 39.40625 5.40625 44.703125 10.40625 
Q 50.296875 15.5 50.296875 22.203125 
Q 50.296875 29.203125 44.40625 32.796875 
Q 39.296875 36 30.703125 36 
L 15.5 36 
L 15.5 42.203125 
L 25.90625 42.203125 
Q 35.90625 42.203125 41.59375 45.75 
Q 47.296875 49.296875 47.296875 56 
Q 47.296875 61.5 43 65.203125 
Q 38.40625 69.203125 30.90625 69.203125 
Q 27.90625 69.203125 24.953125 68.640625 
Q 22 68.09375 19.09375 66.90625 
Q 13.90625 64.703125 8.296875 60.5 
L 8.296875 69.09375 
Q 11.5 70.796875 14.25 72 
Q 17 73.203125 19.59375 74 
Q 25.40625 75.90625 31.59375 75.90625 
Q 41.40625 75.90625 47.90625 70.796875 
Q 54.5 65.796875 54.5 56.90625 
Q 54.5 49.5 49.5 44.703125 
Q 46.5 41.796875 41.296875 39.90625 
Q 44.90625 39.40625 47.703125 38.25 
Q 50.5 37.09375 52.59375 35.40625 
Q 58.09375 30.796875 58.09375 22.40625 
Q 58.09375 12.703125 50.296875 5.703125 
Q 42.40625 -1.296875 30.703125 -1.296875 
Q 24.203125 -1.296875 17.59375 1.09375 
Q 16 1.59375 13.75 2.59375 
Q 11.5 3.59375 8.59375 5.203125 
z
" id="AppleGothic-51"/>
    </defs>
    <use xlink:href="#AppleGothic-84"/>
    <use x="66.099991" xlink:href="#AppleGothic-111"/>
    <use x="124.399979" xlink:href="#AppleGothic-116"/>
    <use x="158.599976" xlink:href="#AppleGothic-97"/>
    <use x="215.09996" xlink:href="#AppleGothic-108"/>
    <use x="231.799957" xlink:href="#AppleGothic-32"/>
    <use x="263.799942" xlink:href="#AppleGothic-67"/>
    <use x="332.299927" xlink:href="#AppleGothic-97"/>
    <use x="388.799911" xlink:href="#AppleGothic-115"/>
    <use x="438.399902" xlink:href="#AppleGothic-101"/>
    <use x="493.299896" xlink:href="#AppleGothic-115"/>
    <use x="542.899887" xlink:href="#AppleGothic-32"/>
    <use x="574.899872" xlink:href="#AppleGothic-76"/>
    <use x="630.099869" xlink:href="#AppleGothic-111"/>
    <use x="688.399857" xlink:href="#AppleGothic-103"/>
    <use x="744.599854" xlink:href="#AppleGothic-103"/>
    <use x="800.79985" xlink:href="#AppleGothic-101"/>
    <use x="855.699844" xlink:href="#AppleGothic-100"/>
    <use x="909.699829" xlink:href="#AppleGothic-32"/>
    <use x="941.699814" xlink:href="#AppleGothic-61"/>
    <use x="1018.499802" xlink:href="#AppleGothic-32"/>
    <use x="1050.499786" xlink:href="#AppleGothic-32"/>
    <use x="1082.499771" xlink:href="#AppleGothic-49"/>
    <use x="1150.499756" xlink:href="#AppleGothic-49"/>
    <use x="1218.499741" xlink:href="#AppleGothic-44"/>
    <use x="1246.799728" xlink:href="#AppleGothic-56"/>
    <use x="1314.799713" xlink:href="#AppleGothic-52"/>
    <use x="1382.799698" xlink:href="#AppleGothic-51"/>
    <use x="1450.799683" xlink:href="#AppleGothic-44"/>
    <use x="1479.09967" xlink:href="#AppleGothic-52"/>
    <use x="1547.099655" xlink:href="#AppleGothic-57"/>
    <use x="1615.09964" xlink:href="#AppleGothic-48"/>
   </g>
   <!-- Total Deaths Logged = 253,600 -->
   <g transform="translate(116.284 157.0625)scale(0.16 -0.16)">
    <defs>
     <path d="M 9.703125 74.5 
L 54.5 74.5 
L 54.5 67.796875 
L 17 67.796875 
L 17 42.296875 
Q 18.5 43.296875 20.203125 44.046875 
Q 21.90625 44.796875 23.59375 45.5 
Q 29.09375 47.5 35.296875 47.5 
Q 46.703125 47.5 53.5 40.703125 
Q 59.796875 34.40625 59.796875 24.703125 
Q 59.796875 13.59375 51.5 6.203125 
Q 43.203125 -1.296875 31.40625 -1.296875 
Q 25.796875 -1.296875 19.5 0.703125 
Q 18.09375 1.203125 15.640625 2.140625 
Q 13.203125 3.09375 9.703125 4.703125 
L 9.703125 13.09375 
Q 14.5 10 18.796875 8.203125 
Q 22 6.796875 25.203125 6.09375 
Q 28.40625 5.40625 31.40625 5.40625 
Q 39.5 5.40625 45.40625 10.40625 
Q 51.90625 15.796875 51.90625 24 
Q 51.90625 31.09375 47.203125 35.796875 
Q 42.203125 40.796875 33.5 40.796875 
Q 29 40.796875 24.796875 39.5 
Q 20.59375 38.203125 17 35.5 
L 9.703125 35.5 
z
" id="AppleGothic-53"/>
    </defs>
    <use xlink:href="#AppleGothic-84"/>
    <use x="66.099991" xlink:href="#AppleGothic-111"/>
    <use x="124.399979" xlink:href="#AppleGothic-116"/>
    <use x="158.599976" xlink:href="#AppleGothic-97"/>
    <use x="215.09996" xlink:href="#AppleGothic-108"/>
    <use x="231.799957" xlink:href="#AppleGothic-32"/>
    <use x="263.799942" xlink:href="#AppleGothic-68"/>
    <use x="332.299927" xlink:href="#AppleGothic-101"/>
    <use x="387.199921" xlink:href="#AppleGothic-97"/>
    <use x="443.699905" xlink:href="#AppleGothic-116"/>
    <use x="477.899902" xlink:href="#AppleGothic-104"/>
    <use x="530.099899" xlink:href="#AppleGothic-115"/>
    <use x="579.69989" xlink:href="#AppleGothic-32"/>
    <use x="611.699875" xlink:href="#AppleGothic-76"/>
    <use x="666.899872" xlink:href="#AppleGothic-111"/>
    <use x="725.19986" xlink:href="#AppleGothic-103"/>
    <use x="781.399857" xlink:href="#AppleGothic-103"/>
    <use x="837.599854" xlink:href="#AppleGothic-101"/>
    <use x="892.499847" xlink:href="#AppleGothic-100"/>
    <use x="946.499832" xlink:href="#AppleGothic-32"/>
    <use x="978.499817" xlink:href="#AppleGothic-61"/>
    <use x="1055.299805" xlink:href="#AppleGothic-32"/>
    <use x="1087.299789" xlink:href="#AppleGothic-50"/>
    <use x="1155.299774" xlink:href="#AppleGothic-53"/>
    <use x="1223.299759" xlink:href="#AppleGothic-51"/>
    <use x="1291.299744" xlink:href="#AppleGothic-44"/>
    <use x="1319.599731" xlink:href="#AppleGothic-54"/>
    <use x="1387.599716" xlink:href="#AppleGothic-48"/>
    <use x="1455.599701" xlink:href="#AppleGothic-48"/>
   </g>
  </g>
  <g id="text_37">
   <!-- deaths logged per day  &gt; -->
   <g style="fill:#ff0000;" transform="translate(438.74 211.0075)scale(0.16 -0.16)">
    <defs>
     <path d="M 2.796875 53.5 
L 10.796875 53.5 
L 29.203125 8.296875 
L 44.90625 53.5 
L 52.796875 53.5 
L 30.5 -6.203125 
Q 28.09375 -12.59375 24.296875 -15.296875 
Q 20.90625 -17.59375 16.203125 -17.59375 
Q 13.796875 -17.59375 12.1875 -17.25 
Q 10.59375 -16.90625 9.09375 -16.296875 
L 9.09375 -9.40625 
Q 10.5 -10.09375 12.25 -10.59375 
Q 14 -11.09375 15.40625 -11.09375 
Q 18.90625 -11.09375 20.84375 -9.296875 
Q 22.796875 -7.5 24.296875 -3.59375 
L 25.5 0.5 
z
" id="AppleGothic-121"/>
     <path d="M 10 79.203125 
L 13.59375 82 
L 41.796875 37 
L 13.59375 -8 
L 10 -5.203125 
L 36 37 
z
" id="AppleGothic-62"/>
    </defs>
    <use xlink:href="#AppleGothic-100"/>
    <use x="53.999985" xlink:href="#AppleGothic-101"/>
    <use x="108.899979" xlink:href="#AppleGothic-97"/>
    <use x="165.399963" xlink:href="#AppleGothic-116"/>
    <use x="199.59996" xlink:href="#AppleGothic-104"/>
    <use x="251.799957" xlink:href="#AppleGothic-115"/>
    <use x="301.399948" xlink:href="#AppleGothic-32"/>
    <use x="333.399933" xlink:href="#AppleGothic-108"/>
    <use x="350.09993" xlink:href="#AppleGothic-111"/>
    <use x="408.399918" xlink:href="#AppleGothic-103"/>
    <use x="464.599915" xlink:href="#AppleGothic-103"/>
    <use x="520.799911" xlink:href="#AppleGothic-101"/>
    <use x="575.699905" xlink:href="#AppleGothic-100"/>
    <use x="629.69989" xlink:href="#AppleGothic-32"/>
    <use x="661.699875" xlink:href="#AppleGothic-112"/>
    <use x="717.099869" xlink:href="#AppleGothic-101"/>
    <use x="771.999863" xlink:href="#AppleGothic-114"/>
    <use x="807.19986" xlink:href="#AppleGothic-32"/>
    <use x="839.199844" xlink:href="#AppleGothic-100"/>
    <use x="893.199829" xlink:href="#AppleGothic-97"/>
    <use x="949.699814" xlink:href="#AppleGothic-121"/>
    <use x="1005.399811" xlink:href="#AppleGothic-32"/>
    <use x="1037.399796" xlink:href="#AppleGothic-32"/>
    <use x="1069.39978" xlink:href="#AppleGothic-62"/>
   </g>
  </g>
  <g id="text_38">
   <!-- cases logged per day  &gt; -->
   <g style="fill:#0000ff;" transform="translate(391.32 376.4875)scale(0.16 -0.16)">
    <use xlink:href="#AppleGothic-99"/>
    <use x="51.899994" xlink:href="#AppleGothic-97"/>
    <use x="108.399979" xlink:href="#AppleGothic-115"/>
    <use x="157.999969" xlink:href="#AppleGothic-101"/>
    <use x="212.899963" xlink:href="#AppleGothic-115"/>
    <use x="262.499954" xlink:href="#AppleGothic-32"/>
    <use x="294.499939" xlink:href="#AppleGothic-108"/>
    <use x="311.199936" xlink:href="#AppleGothic-111"/>
    <use x="369.499924" xlink:href="#AppleGothic-103"/>
    <use x="425.699921" xlink:href="#AppleGothic-103"/>
    <use x="481.899918" xlink:href="#AppleGothic-101"/>
    <use x="536.799911" xlink:href="#AppleGothic-100"/>
    <use x="590.799896" xlink:href="#AppleGothic-32"/>
    <use x="622.799881" xlink:href="#AppleGothic-112"/>
    <use x="678.199875" xlink:href="#AppleGothic-101"/>
    <use x="733.099869" xlink:href="#AppleGothic-114"/>
    <use x="768.299866" xlink:href="#AppleGothic-32"/>
    <use x="800.29985" xlink:href="#AppleGothic-100"/>
    <use x="854.299835" xlink:href="#AppleGothic-97"/>
    <use x="910.79982" xlink:href="#AppleGothic-121"/>
    <use x="966.499817" xlink:href="#AppleGothic-32"/>
    <use x="998.499802" xlink:href="#AppleGothic-32"/>
    <use x="1030.499786" xlink:href="#AppleGothic-62"/>
   </g>
  </g>
 </g>
 <defs>
  <clipPath id="p61be435bfd">
   <rect height="551.6" width="948.4" x="106.8" y="40.6"/>
  </clipPath>
 </defs>
</svg>
