<?xml version="1.0" encoding="utf-8" standalone="no"?>
<!DOCTYPE svg PUBLIC "-//W3C//DTD SVG 1.1//EN"
  "http://www.w3.org/Graphics/SVG/1.1/DTD/svg11.dtd">
<!-- Created with matplotlib (https://matplotlib.org/) -->
<svg height="648pt" version="1.1" viewBox="0 0 1152 648" width="1152pt" xmlns="http://www.w3.org/2000/svg" xmlns:xlink="http://www.w3.org/1999/xlink">
 <metadata>
  <rdf:RDF xmlns:cc="http://creativecommons.org/ns#" xmlns:dc="http://purl.org/dc/elements/1.1/" xmlns:rdf="http://www.w3.org/1999/02/22-rdf-syntax-ns#">
   <cc:Work>
    <dc:type rdf:resource="http://purl.org/dc/dcmitype/StillImage"/>
    <dc:date>2020-11-03T23:36:22.351750</dc:date>
    <dc:format>image/svg+xml</dc:format>
    <dc:creator>
     <cc:Agent>
      <dc:title>Matplotlib v3.3.1, https://matplotlib.org/</dc:title>
     </cc:Agent>
    </dc:creator>
   </cc:Work>
  </rdf:RDF>
 </metadata>
 <defs>
  <style type="text/css">*{stroke-linecap:butt;stroke-linejoin:round;}</style>
 </defs>
 <g id="figure_1">
  <g id="patch_1">
   <path d="M 0 648 
L 1152 648 
L 1152 0 
L 0 0 
z
" style="fill:none;"/>
  </g>
  <g id="axes_1">
   <g id="patch_2">
    <path d="M 106.8 592.2 
L 1055.325 592.2 
L 1055.325 44.507906 
L 106.8 44.507906 
z
" style="fill:none;"/>
   </g>
   <g id="matplotlib.axis_1">
    <g id="xtick_1">
     <g id="line2d_1">
      <defs>
       <path d="M 0 0 
L 0 3.5 
" id="mbcab7c45c5" style="stroke:#000000;stroke-width:0.8;"/>
      </defs>
      <g>
       <use style="stroke:#000000;stroke-width:0.8;" x="149.914773" xlink:href="#mbcab7c45c5" y="592.2"/>
      </g>
     </g>
     <g id="text_1">
      <!-- 2020-01 -->
      <g transform="translate(116.488523 611.3575)scale(0.16 -0.16)">
       <defs>
        <path d="M 19.1875 8.296875 
L 53.609375 8.296875 
L 53.609375 0 
L 7.328125 0 
L 7.328125 8.296875 
Q 12.9375 14.109375 22.625 23.890625 
Q 32.328125 33.6875 34.8125 36.53125 
Q 39.546875 41.84375 41.421875 45.53125 
Q 43.3125 49.21875 43.3125 52.78125 
Q 43.3125 58.59375 39.234375 62.25 
Q 35.15625 65.921875 28.609375 65.921875 
Q 23.96875 65.921875 18.8125 64.3125 
Q 13.671875 62.703125 7.8125 59.421875 
L 7.8125 69.390625 
Q 13.765625 71.78125 18.9375 73 
Q 24.125 74.21875 28.421875 74.21875 
Q 39.75 74.21875 46.484375 68.546875 
Q 53.21875 62.890625 53.21875 53.421875 
Q 53.21875 48.921875 51.53125 44.890625 
Q 49.859375 40.875 45.40625 35.40625 
Q 44.1875 33.984375 37.640625 27.21875 
Q 31.109375 20.453125 19.1875 8.296875 
z
" id="DejaVuSans-50"/>
        <path d="M 31.78125 66.40625 
Q 24.171875 66.40625 20.328125 58.90625 
Q 16.5 51.421875 16.5 36.375 
Q 16.5 21.390625 20.328125 13.890625 
Q 24.171875 6.390625 31.78125 6.390625 
Q 39.453125 6.390625 43.28125 13.890625 
Q 47.125 21.390625 47.125 36.375 
Q 47.125 51.421875 43.28125 58.90625 
Q 39.453125 66.40625 31.78125 66.40625 
z
M 31.78125 74.21875 
Q 44.046875 74.21875 50.515625 64.515625 
Q 56.984375 54.828125 56.984375 36.375 
Q 56.984375 17.96875 50.515625 8.265625 
Q 44.046875 -1.421875 31.78125 -1.421875 
Q 19.53125 -1.421875 13.0625 8.265625 
Q 6.59375 17.96875 6.59375 36.375 
Q 6.59375 54.828125 13.0625 64.515625 
Q 19.53125 74.21875 31.78125 74.21875 
z
" id="DejaVuSans-48"/>
        <path d="M 4.890625 31.390625 
L 31.203125 31.390625 
L 31.203125 23.390625 
L 4.890625 23.390625 
z
" id="DejaVuSans-45"/>
        <path d="M 12.40625 8.296875 
L 28.515625 8.296875 
L 28.515625 63.921875 
L 10.984375 60.40625 
L 10.984375 69.390625 
L 28.421875 72.90625 
L 38.28125 72.90625 
L 38.28125 8.296875 
L 54.390625 8.296875 
L 54.390625 0 
L 12.40625 0 
z
" id="DejaVuSans-49"/>
       </defs>
       <use xlink:href="#DejaVuSans-50"/>
       <use x="63.623047" xlink:href="#DejaVuSans-48"/>
       <use x="127.246094" xlink:href="#DejaVuSans-50"/>
       <use x="190.869141" xlink:href="#DejaVuSans-48"/>
       <use x="254.492188" xlink:href="#DejaVuSans-45"/>
       <use x="290.576172" xlink:href="#DejaVuSans-48"/>
       <use x="354.199219" xlink:href="#DejaVuSans-49"/>
      </g>
     </g>
    </g>
    <g id="xtick_2">
     <g id="line2d_2">
      <g>
       <use style="stroke:#000000;stroke-width:0.8;" x="242.410133" xlink:href="#mbcab7c45c5" y="592.2"/>
      </g>
     </g>
     <g id="text_2">
      <!-- 2020-02 -->
      <g transform="translate(208.983883 611.3575)scale(0.16 -0.16)">
       <use xlink:href="#DejaVuSans-50"/>
       <use x="63.623047" xlink:href="#DejaVuSans-48"/>
       <use x="127.246094" xlink:href="#DejaVuSans-50"/>
       <use x="190.869141" xlink:href="#DejaVuSans-48"/>
       <use x="254.492188" xlink:href="#DejaVuSans-45"/>
       <use x="290.576172" xlink:href="#DejaVuSans-48"/>
       <use x="354.199219" xlink:href="#DejaVuSans-50"/>
      </g>
     </g>
    </g>
    <g id="xtick_3">
     <g id="line2d_3">
      <g>
       <use style="stroke:#000000;stroke-width:0.8;" x="328.93805" xlink:href="#mbcab7c45c5" y="592.2"/>
      </g>
     </g>
     <g id="text_3">
      <!-- 2020-03 -->
      <g transform="translate(295.5118 611.3575)scale(0.16 -0.16)">
       <defs>
        <path d="M 40.578125 39.3125 
Q 47.65625 37.796875 51.625 33 
Q 55.609375 28.21875 55.609375 21.1875 
Q 55.609375 10.40625 48.1875 4.484375 
Q 40.765625 -1.421875 27.09375 -1.421875 
Q 22.515625 -1.421875 17.65625 -0.515625 
Q 12.796875 0.390625 7.625 2.203125 
L 7.625 11.71875 
Q 11.71875 9.328125 16.59375 8.109375 
Q 21.484375 6.890625 26.8125 6.890625 
Q 36.078125 6.890625 40.9375 10.546875 
Q 45.796875 14.203125 45.796875 21.1875 
Q 45.796875 27.640625 41.28125 31.265625 
Q 36.765625 34.90625 28.71875 34.90625 
L 20.21875 34.90625 
L 20.21875 43.015625 
L 29.109375 43.015625 
Q 36.375 43.015625 40.234375 45.921875 
Q 44.09375 48.828125 44.09375 54.296875 
Q 44.09375 59.90625 40.109375 62.90625 
Q 36.140625 65.921875 28.71875 65.921875 
Q 24.65625 65.921875 20.015625 65.03125 
Q 15.375 64.15625 9.8125 62.3125 
L 9.8125 71.09375 
Q 15.4375 72.65625 20.34375 73.4375 
Q 25.25 74.21875 29.59375 74.21875 
Q 40.828125 74.21875 47.359375 69.109375 
Q 53.90625 64.015625 53.90625 55.328125 
Q 53.90625 49.265625 50.4375 45.09375 
Q 46.96875 40.921875 40.578125 39.3125 
z
" id="DejaVuSans-51"/>
       </defs>
       <use xlink:href="#DejaVuSans-50"/>
       <use x="63.623047" xlink:href="#DejaVuSans-48"/>
       <use x="127.246094" xlink:href="#DejaVuSans-50"/>
       <use x="190.869141" xlink:href="#DejaVuSans-48"/>
       <use x="254.492188" xlink:href="#DejaVuSans-45"/>
       <use x="290.576172" xlink:href="#DejaVuSans-48"/>
       <use x="354.199219" xlink:href="#DejaVuSans-51"/>
      </g>
     </g>
    </g>
    <g id="xtick_4">
     <g id="line2d_4">
      <g>
       <use style="stroke:#000000;stroke-width:0.8;" x="421.433411" xlink:href="#mbcab7c45c5" y="592.2"/>
      </g>
     </g>
     <g id="text_4">
      <!-- 2020-04 -->
      <g transform="translate(388.007161 611.3575)scale(0.16 -0.16)">
       <defs>
        <path d="M 37.796875 64.3125 
L 12.890625 25.390625 
L 37.796875 25.390625 
z
M 35.203125 72.90625 
L 47.609375 72.90625 
L 47.609375 25.390625 
L 58.015625 25.390625 
L 58.015625 17.1875 
L 47.609375 17.1875 
L 47.609375 0 
L 37.796875 0 
L 37.796875 17.1875 
L 4.890625 17.1875 
L 4.890625 26.703125 
z
" id="DejaVuSans-52"/>
       </defs>
       <use xlink:href="#DejaVuSans-50"/>
       <use x="63.623047" xlink:href="#DejaVuSans-48"/>
       <use x="127.246094" xlink:href="#DejaVuSans-50"/>
       <use x="190.869141" xlink:href="#DejaVuSans-48"/>
       <use x="254.492188" xlink:href="#DejaVuSans-45"/>
       <use x="290.576172" xlink:href="#DejaVuSans-48"/>
       <use x="354.199219" xlink:href="#DejaVuSans-52"/>
      </g>
     </g>
    </g>
    <g id="xtick_5">
     <g id="line2d_5">
      <g>
       <use style="stroke:#000000;stroke-width:0.8;" x="510.94505" xlink:href="#mbcab7c45c5" y="592.2"/>
      </g>
     </g>
     <g id="text_5">
      <!-- 2020-05 -->
      <g transform="translate(477.5188 611.3575)scale(0.16 -0.16)">
       <defs>
        <path d="M 10.796875 72.90625 
L 49.515625 72.90625 
L 49.515625 64.59375 
L 19.828125 64.59375 
L 19.828125 46.734375 
Q 21.96875 47.46875 24.109375 47.828125 
Q 26.265625 48.1875 28.421875 48.1875 
Q 40.625 48.1875 47.75 41.5 
Q 54.890625 34.8125 54.890625 23.390625 
Q 54.890625 11.625 47.5625 5.09375 
Q 40.234375 -1.421875 26.90625 -1.421875 
Q 22.3125 -1.421875 17.546875 -0.640625 
Q 12.796875 0.140625 7.71875 1.703125 
L 7.71875 11.625 
Q 12.109375 9.234375 16.796875 8.0625 
Q 21.484375 6.890625 26.703125 6.890625 
Q 35.15625 6.890625 40.078125 11.328125 
Q 45.015625 15.765625 45.015625 23.390625 
Q 45.015625 31 40.078125 35.4375 
Q 35.15625 39.890625 26.703125 39.890625 
Q 22.75 39.890625 18.8125 39.015625 
Q 14.890625 38.140625 10.796875 36.28125 
z
" id="DejaVuSans-53"/>
       </defs>
       <use xlink:href="#DejaVuSans-50"/>
       <use x="63.623047" xlink:href="#DejaVuSans-48"/>
       <use x="127.246094" xlink:href="#DejaVuSans-50"/>
       <use x="190.869141" xlink:href="#DejaVuSans-48"/>
       <use x="254.492188" xlink:href="#DejaVuSans-45"/>
       <use x="290.576172" xlink:href="#DejaVuSans-48"/>
       <use x="354.199219" xlink:href="#DejaVuSans-53"/>
      </g>
     </g>
    </g>
    <g id="xtick_6">
     <g id="line2d_6">
      <g>
       <use style="stroke:#000000;stroke-width:0.8;" x="603.44041" xlink:href="#mbcab7c45c5" y="592.2"/>
      </g>
     </g>
     <g id="text_6">
      <!-- 2020-06 -->
      <g transform="translate(570.01416 611.3575)scale(0.16 -0.16)">
       <defs>
        <path d="M 33.015625 40.375 
Q 26.375 40.375 22.484375 35.828125 
Q 18.609375 31.296875 18.609375 23.390625 
Q 18.609375 15.53125 22.484375 10.953125 
Q 26.375 6.390625 33.015625 6.390625 
Q 39.65625 6.390625 43.53125 10.953125 
Q 47.40625 15.53125 47.40625 23.390625 
Q 47.40625 31.296875 43.53125 35.828125 
Q 39.65625 40.375 33.015625 40.375 
z
M 52.59375 71.296875 
L 52.59375 62.3125 
Q 48.875 64.0625 45.09375 64.984375 
Q 41.3125 65.921875 37.59375 65.921875 
Q 27.828125 65.921875 22.671875 59.328125 
Q 17.53125 52.734375 16.796875 39.40625 
Q 19.671875 43.65625 24.015625 45.921875 
Q 28.375 48.1875 33.59375 48.1875 
Q 44.578125 48.1875 50.953125 41.515625 
Q 57.328125 34.859375 57.328125 23.390625 
Q 57.328125 12.15625 50.6875 5.359375 
Q 44.046875 -1.421875 33.015625 -1.421875 
Q 20.359375 -1.421875 13.671875 8.265625 
Q 6.984375 17.96875 6.984375 36.375 
Q 6.984375 53.65625 15.1875 63.9375 
Q 23.390625 74.21875 37.203125 74.21875 
Q 40.921875 74.21875 44.703125 73.484375 
Q 48.484375 72.75 52.59375 71.296875 
z
" id="DejaVuSans-54"/>
       </defs>
       <use xlink:href="#DejaVuSans-50"/>
       <use x="63.623047" xlink:href="#DejaVuSans-48"/>
       <use x="127.246094" xlink:href="#DejaVuSans-50"/>
       <use x="190.869141" xlink:href="#DejaVuSans-48"/>
       <use x="254.492188" xlink:href="#DejaVuSans-45"/>
       <use x="290.576172" xlink:href="#DejaVuSans-48"/>
       <use x="354.199219" xlink:href="#DejaVuSans-54"/>
      </g>
     </g>
    </g>
    <g id="xtick_7">
     <g id="line2d_7">
      <g>
       <use style="stroke:#000000;stroke-width:0.8;" x="692.952049" xlink:href="#mbcab7c45c5" y="592.2"/>
      </g>
     </g>
     <g id="text_7">
      <!-- 2020-07 -->
      <g transform="translate(659.525799 611.3575)scale(0.16 -0.16)">
       <defs>
        <path d="M 8.203125 72.90625 
L 55.078125 72.90625 
L 55.078125 68.703125 
L 28.609375 0 
L 18.3125 0 
L 43.21875 64.59375 
L 8.203125 64.59375 
z
" id="DejaVuSans-55"/>
       </defs>
       <use xlink:href="#DejaVuSans-50"/>
       <use x="63.623047" xlink:href="#DejaVuSans-48"/>
       <use x="127.246094" xlink:href="#DejaVuSans-50"/>
       <use x="190.869141" xlink:href="#DejaVuSans-48"/>
       <use x="254.492188" xlink:href="#DejaVuSans-45"/>
       <use x="290.576172" xlink:href="#DejaVuSans-48"/>
       <use x="354.199219" xlink:href="#DejaVuSans-55"/>
      </g>
     </g>
    </g>
    <g id="xtick_8">
     <g id="line2d_8">
      <g>
       <use style="stroke:#000000;stroke-width:0.8;" x="785.447409" xlink:href="#mbcab7c45c5" y="592.2"/>
      </g>
     </g>
     <g id="text_8">
      <!-- 2020-08 -->
      <g transform="translate(752.021159 611.3575)scale(0.16 -0.16)">
       <defs>
        <path d="M 31.78125 34.625 
Q 24.75 34.625 20.71875 30.859375 
Q 16.703125 27.09375 16.703125 20.515625 
Q 16.703125 13.921875 20.71875 10.15625 
Q 24.75 6.390625 31.78125 6.390625 
Q 38.8125 6.390625 42.859375 10.171875 
Q 46.921875 13.96875 46.921875 20.515625 
Q 46.921875 27.09375 42.890625 30.859375 
Q 38.875 34.625 31.78125 34.625 
z
M 21.921875 38.8125 
Q 15.578125 40.375 12.03125 44.71875 
Q 8.5 49.078125 8.5 55.328125 
Q 8.5 64.0625 14.71875 69.140625 
Q 20.953125 74.21875 31.78125 74.21875 
Q 42.671875 74.21875 48.875 69.140625 
Q 55.078125 64.0625 55.078125 55.328125 
Q 55.078125 49.078125 51.53125 44.71875 
Q 48 40.375 41.703125 38.8125 
Q 48.828125 37.15625 52.796875 32.3125 
Q 56.78125 27.484375 56.78125 20.515625 
Q 56.78125 9.90625 50.3125 4.234375 
Q 43.84375 -1.421875 31.78125 -1.421875 
Q 19.734375 -1.421875 13.25 4.234375 
Q 6.78125 9.90625 6.78125 20.515625 
Q 6.78125 27.484375 10.78125 32.3125 
Q 14.796875 37.15625 21.921875 38.8125 
z
M 18.3125 54.390625 
Q 18.3125 48.734375 21.84375 45.5625 
Q 25.390625 42.390625 31.78125 42.390625 
Q 38.140625 42.390625 41.71875 45.5625 
Q 45.3125 48.734375 45.3125 54.390625 
Q 45.3125 60.0625 41.71875 63.234375 
Q 38.140625 66.40625 31.78125 66.40625 
Q 25.390625 66.40625 21.84375 63.234375 
Q 18.3125 60.0625 18.3125 54.390625 
z
" id="DejaVuSans-56"/>
       </defs>
       <use xlink:href="#DejaVuSans-50"/>
       <use x="63.623047" xlink:href="#DejaVuSans-48"/>
       <use x="127.246094" xlink:href="#DejaVuSans-50"/>
       <use x="190.869141" xlink:href="#DejaVuSans-48"/>
       <use x="254.492188" xlink:href="#DejaVuSans-45"/>
       <use x="290.576172" xlink:href="#DejaVuSans-48"/>
       <use x="354.199219" xlink:href="#DejaVuSans-56"/>
      </g>
     </g>
    </g>
    <g id="xtick_9">
     <g id="line2d_9">
      <g>
       <use style="stroke:#000000;stroke-width:0.8;" x="877.942769" xlink:href="#mbcab7c45c5" y="592.2"/>
      </g>
     </g>
     <g id="text_9">
      <!-- 2020-09 -->
      <g transform="translate(844.516519 611.3575)scale(0.16 -0.16)">
       <defs>
        <path d="M 10.984375 1.515625 
L 10.984375 10.5 
Q 14.703125 8.734375 18.5 7.8125 
Q 22.3125 6.890625 25.984375 6.890625 
Q 35.75 6.890625 40.890625 13.453125 
Q 46.046875 20.015625 46.78125 33.40625 
Q 43.953125 29.203125 39.59375 26.953125 
Q 35.25 24.703125 29.984375 24.703125 
Q 19.046875 24.703125 12.671875 31.3125 
Q 6.296875 37.9375 6.296875 49.421875 
Q 6.296875 60.640625 12.9375 67.421875 
Q 19.578125 74.21875 30.609375 74.21875 
Q 43.265625 74.21875 49.921875 64.515625 
Q 56.59375 54.828125 56.59375 36.375 
Q 56.59375 19.140625 48.40625 8.859375 
Q 40.234375 -1.421875 26.421875 -1.421875 
Q 22.703125 -1.421875 18.890625 -0.6875 
Q 15.09375 0.046875 10.984375 1.515625 
z
M 30.609375 32.421875 
Q 37.25 32.421875 41.125 36.953125 
Q 45.015625 41.5 45.015625 49.421875 
Q 45.015625 57.28125 41.125 61.84375 
Q 37.25 66.40625 30.609375 66.40625 
Q 23.96875 66.40625 20.09375 61.84375 
Q 16.21875 57.28125 16.21875 49.421875 
Q 16.21875 41.5 20.09375 36.953125 
Q 23.96875 32.421875 30.609375 32.421875 
z
" id="DejaVuSans-57"/>
       </defs>
       <use xlink:href="#DejaVuSans-50"/>
       <use x="63.623047" xlink:href="#DejaVuSans-48"/>
       <use x="127.246094" xlink:href="#DejaVuSans-50"/>
       <use x="190.869141" xlink:href="#DejaVuSans-48"/>
       <use x="254.492188" xlink:href="#DejaVuSans-45"/>
       <use x="290.576172" xlink:href="#DejaVuSans-48"/>
       <use x="354.199219" xlink:href="#DejaVuSans-57"/>
      </g>
     </g>
    </g>
    <g id="xtick_10">
     <g id="line2d_10">
      <g>
       <use style="stroke:#000000;stroke-width:0.8;" x="967.454408" xlink:href="#mbcab7c45c5" y="592.2"/>
      </g>
     </g>
     <g id="text_10">
      <!-- 2020-10 -->
      <g transform="translate(934.028158 611.3575)scale(0.16 -0.16)">
       <use xlink:href="#DejaVuSans-50"/>
       <use x="63.623047" xlink:href="#DejaVuSans-48"/>
       <use x="127.246094" xlink:href="#DejaVuSans-50"/>
       <use x="190.869141" xlink:href="#DejaVuSans-48"/>
       <use x="254.492188" xlink:href="#DejaVuSans-45"/>
       <use x="290.576172" xlink:href="#DejaVuSans-49"/>
       <use x="354.199219" xlink:href="#DejaVuSans-48"/>
      </g>
     </g>
    </g>
    <g id="text_11">
     <!-- date -->
     <g transform="translate(561.601563 633.000625)scale(0.2 -0.2)">
      <defs>
       <path d="M 40.234375 0 
L 40.234375 6.546875 
Q 35.296875 -1.171875 25.734375 -1.171875 
Q 19.53125 -1.171875 14.328125 2.25 
Q 9.125 5.671875 6.265625 11.796875 
Q 3.421875 17.921875 3.421875 25.875 
Q 3.421875 33.640625 6 39.96875 
Q 8.59375 46.296875 13.765625 49.65625 
Q 18.953125 53.03125 25.34375 53.03125 
Q 30.03125 53.03125 33.6875 51.046875 
Q 37.359375 49.078125 39.65625 45.90625 
L 39.65625 71.578125 
L 48.390625 71.578125 
L 48.390625 0 
z
M 12.453125 25.875 
Q 12.453125 15.921875 16.640625 10.984375 
Q 20.84375 6.0625 26.5625 6.0625 
Q 32.328125 6.0625 36.34375 10.765625 
Q 40.375 15.484375 40.375 25.140625 
Q 40.375 35.796875 36.265625 40.765625 
Q 32.171875 45.75 26.171875 45.75 
Q 20.3125 45.75 16.375 40.96875 
Q 12.453125 36.1875 12.453125 25.875 
z
" id="ArialMT-100"/>
       <path d="M 40.4375 6.390625 
Q 35.546875 2.25 31.03125 0.53125 
Q 26.515625 -1.171875 21.34375 -1.171875 
Q 12.796875 -1.171875 8.203125 3 
Q 3.609375 7.171875 3.609375 13.671875 
Q 3.609375 17.484375 5.34375 20.625 
Q 7.078125 23.78125 9.890625 25.6875 
Q 12.703125 27.59375 16.21875 28.5625 
Q 18.796875 29.25 24.03125 29.890625 
Q 34.671875 31.15625 39.703125 32.90625 
Q 39.75 34.71875 39.75 35.203125 
Q 39.75 40.578125 37.25 42.78125 
Q 33.890625 45.75 27.25 45.75 
Q 21.046875 45.75 18.09375 43.578125 
Q 15.140625 41.40625 13.71875 35.890625 
L 5.125 37.0625 
Q 6.296875 42.578125 8.984375 45.96875 
Q 11.671875 49.359375 16.75 51.1875 
Q 21.828125 53.03125 28.515625 53.03125 
Q 35.15625 53.03125 39.296875 51.46875 
Q 43.453125 49.90625 45.40625 47.53125 
Q 47.359375 45.171875 48.140625 41.546875 
Q 48.578125 39.3125 48.578125 33.453125 
L 48.578125 21.734375 
Q 48.578125 9.46875 49.140625 6.21875 
Q 49.703125 2.984375 51.375 0 
L 42.1875 0 
Q 40.828125 2.734375 40.4375 6.390625 
z
M 39.703125 26.03125 
Q 34.90625 24.078125 25.34375 22.703125 
Q 19.921875 21.921875 17.671875 20.9375 
Q 15.4375 19.96875 14.203125 18.09375 
Q 12.984375 16.21875 12.984375 13.921875 
Q 12.984375 10.40625 15.640625 8.0625 
Q 18.3125 5.71875 23.4375 5.71875 
Q 28.515625 5.71875 32.46875 7.9375 
Q 36.421875 10.15625 38.28125 14.015625 
Q 39.703125 17 39.703125 22.796875 
z
" id="ArialMT-97"/>
       <path d="M 25.78125 7.859375 
L 27.046875 0.09375 
Q 23.34375 -0.6875 20.40625 -0.6875 
Q 15.625 -0.6875 12.984375 0.828125 
Q 10.359375 2.34375 9.28125 4.8125 
Q 8.203125 7.28125 8.203125 15.1875 
L 8.203125 45.015625 
L 1.765625 45.015625 
L 1.765625 51.859375 
L 8.203125 51.859375 
L 8.203125 64.703125 
L 16.9375 69.96875 
L 16.9375 51.859375 
L 25.78125 51.859375 
L 25.78125 45.015625 
L 16.9375 45.015625 
L 16.9375 14.703125 
Q 16.9375 10.9375 17.40625 9.859375 
Q 17.875 8.796875 18.921875 8.15625 
Q 19.96875 7.515625 21.921875 7.515625 
Q 23.390625 7.515625 25.78125 7.859375 
z
" id="ArialMT-116"/>
       <path d="M 42.09375 16.703125 
L 51.171875 15.578125 
Q 49.03125 7.625 43.21875 3.21875 
Q 37.40625 -1.171875 28.375 -1.171875 
Q 17 -1.171875 10.328125 5.828125 
Q 3.65625 12.84375 3.65625 25.484375 
Q 3.65625 38.578125 10.390625 45.796875 
Q 17.140625 53.03125 27.875 53.03125 
Q 38.28125 53.03125 44.875 45.953125 
Q 51.46875 38.875 51.46875 26.03125 
Q 51.46875 25.25 51.421875 23.6875 
L 12.75 23.6875 
Q 13.234375 15.140625 17.578125 10.59375 
Q 21.921875 6.0625 28.421875 6.0625 
Q 33.25 6.0625 36.671875 8.59375 
Q 40.09375 11.140625 42.09375 16.703125 
z
M 13.234375 30.90625 
L 42.1875 30.90625 
Q 41.609375 37.453125 38.875 40.71875 
Q 34.671875 45.796875 27.984375 45.796875 
Q 21.921875 45.796875 17.796875 41.75 
Q 13.671875 37.703125 13.234375 30.90625 
z
" id="ArialMT-101"/>
      </defs>
      <use xlink:href="#ArialMT-100"/>
      <use x="55.615234" xlink:href="#ArialMT-97"/>
      <use x="111.230469" xlink:href="#ArialMT-116"/>
      <use x="139.013672" xlink:href="#ArialMT-101"/>
     </g>
    </g>
   </g>
   <g id="matplotlib.axis_2">
    <g id="ytick_1">
     <g id="line2d_11">
      <defs>
       <path d="M 0 0 
L -3.5 0 
" id="md84e1bcaaa" style="stroke:#0000ff;stroke-width:0.8;"/>
      </defs>
      <g>
       <use style="fill:#0000ff;stroke:#0000ff;stroke-width:0.8;" x="106.8" xlink:href="#md84e1bcaaa" y="567.308107"/>
      </g>
     </g>
     <g id="text_12">
      <!-- 0 -->
      <g style="fill:#0000ff;" transform="translate(89.62 573.386857)scale(0.16 -0.16)">
       <use xlink:href="#DejaVuSans-48"/>
      </g>
     </g>
    </g>
    <g id="ytick_2">
     <g id="line2d_12">
      <g>
       <use style="fill:#0000ff;stroke:#0000ff;stroke-width:0.8;" x="106.8" xlink:href="#md84e1bcaaa" y="503.262275"/>
      </g>
     </g>
     <g id="text_13">
      <!-- 20,000 -->
      <g style="fill:#0000ff;" transform="translate(43.815 509.341025)scale(0.16 -0.16)">
       <defs>
        <path d="M 11.71875 12.40625 
L 22.015625 12.40625 
L 22.015625 4 
L 14.015625 -11.625 
L 7.71875 -11.625 
L 11.71875 4 
z
" id="DejaVuSans-44"/>
       </defs>
       <use xlink:href="#DejaVuSans-50"/>
       <use x="63.623047" xlink:href="#DejaVuSans-48"/>
       <use x="127.246094" xlink:href="#DejaVuSans-44"/>
       <use x="159.033203" xlink:href="#DejaVuSans-48"/>
       <use x="222.65625" xlink:href="#DejaVuSans-48"/>
       <use x="286.279297" xlink:href="#DejaVuSans-48"/>
      </g>
     </g>
    </g>
    <g id="ytick_3">
     <g id="line2d_13">
      <g>
       <use style="fill:#0000ff;stroke:#0000ff;stroke-width:0.8;" x="106.8" xlink:href="#md84e1bcaaa" y="439.216443"/>
      </g>
     </g>
     <g id="text_14">
      <!-- 40,000 -->
      <g style="fill:#0000ff;" transform="translate(43.815 445.295193)scale(0.16 -0.16)">
       <use xlink:href="#DejaVuSans-52"/>
       <use x="63.623047" xlink:href="#DejaVuSans-48"/>
       <use x="127.246094" xlink:href="#DejaVuSans-44"/>
       <use x="159.033203" xlink:href="#DejaVuSans-48"/>
       <use x="222.65625" xlink:href="#DejaVuSans-48"/>
       <use x="286.279297" xlink:href="#DejaVuSans-48"/>
      </g>
     </g>
    </g>
    <g id="ytick_4">
     <g id="line2d_14">
      <g>
       <use style="fill:#0000ff;stroke:#0000ff;stroke-width:0.8;" x="106.8" xlink:href="#md84e1bcaaa" y="375.170612"/>
      </g>
     </g>
     <g id="text_15">
      <!-- 60,000 -->
      <g style="fill:#0000ff;" transform="translate(43.815 381.249362)scale(0.16 -0.16)">
       <use xlink:href="#DejaVuSans-54"/>
       <use x="63.623047" xlink:href="#DejaVuSans-48"/>
       <use x="127.246094" xlink:href="#DejaVuSans-44"/>
       <use x="159.033203" xlink:href="#DejaVuSans-48"/>
       <use x="222.65625" xlink:href="#DejaVuSans-48"/>
       <use x="286.279297" xlink:href="#DejaVuSans-48"/>
      </g>
     </g>
    </g>
    <g id="ytick_5">
     <g id="line2d_15">
      <g>
       <use style="fill:#0000ff;stroke:#0000ff;stroke-width:0.8;" x="106.8" xlink:href="#md84e1bcaaa" y="311.12478"/>
      </g>
     </g>
     <g id="text_16">
      <!-- 80,000 -->
      <g style="fill:#0000ff;" transform="translate(43.815 317.20353)scale(0.16 -0.16)">
       <use xlink:href="#DejaVuSans-56"/>
       <use x="63.623047" xlink:href="#DejaVuSans-48"/>
       <use x="127.246094" xlink:href="#DejaVuSans-44"/>
       <use x="159.033203" xlink:href="#DejaVuSans-48"/>
       <use x="222.65625" xlink:href="#DejaVuSans-48"/>
       <use x="286.279297" xlink:href="#DejaVuSans-48"/>
      </g>
     </g>
    </g>
    <g id="ytick_6">
     <g id="line2d_16">
      <g>
       <use style="fill:#0000ff;stroke:#0000ff;stroke-width:0.8;" x="106.8" xlink:href="#md84e1bcaaa" y="247.078948"/>
      </g>
     </g>
     <g id="text_17">
      <!-- 100,000 -->
      <g style="fill:#0000ff;" transform="translate(33.635 253.157698)scale(0.16 -0.16)">
       <use xlink:href="#DejaVuSans-49"/>
       <use x="63.623047" xlink:href="#DejaVuSans-48"/>
       <use x="127.246094" xlink:href="#DejaVuSans-48"/>
       <use x="190.869141" xlink:href="#DejaVuSans-44"/>
       <use x="222.65625" xlink:href="#DejaVuSans-48"/>
       <use x="286.279297" xlink:href="#DejaVuSans-48"/>
       <use x="349.902344" xlink:href="#DejaVuSans-48"/>
      </g>
     </g>
    </g>
    <g id="ytick_7">
     <g id="line2d_17">
      <g>
       <use style="fill:#0000ff;stroke:#0000ff;stroke-width:0.8;" x="106.8" xlink:href="#md84e1bcaaa" y="183.033116"/>
      </g>
     </g>
     <g id="text_18">
      <!-- 120,000 -->
      <g style="fill:#0000ff;" transform="translate(33.635 189.111866)scale(0.16 -0.16)">
       <use xlink:href="#DejaVuSans-49"/>
       <use x="63.623047" xlink:href="#DejaVuSans-50"/>
       <use x="127.246094" xlink:href="#DejaVuSans-48"/>
       <use x="190.869141" xlink:href="#DejaVuSans-44"/>
       <use x="222.65625" xlink:href="#DejaVuSans-48"/>
       <use x="286.279297" xlink:href="#DejaVuSans-48"/>
       <use x="349.902344" xlink:href="#DejaVuSans-48"/>
      </g>
     </g>
    </g>
    <g id="ytick_8">
     <g id="line2d_18">
      <g>
       <use style="fill:#0000ff;stroke:#0000ff;stroke-width:0.8;" x="106.8" xlink:href="#md84e1bcaaa" y="118.987284"/>
      </g>
     </g>
     <g id="text_19">
      <!-- 140,000 -->
      <g style="fill:#0000ff;" transform="translate(33.635 125.066034)scale(0.16 -0.16)">
       <use xlink:href="#DejaVuSans-49"/>
       <use x="63.623047" xlink:href="#DejaVuSans-52"/>
       <use x="127.246094" xlink:href="#DejaVuSans-48"/>
       <use x="190.869141" xlink:href="#DejaVuSans-44"/>
       <use x="222.65625" xlink:href="#DejaVuSans-48"/>
       <use x="286.279297" xlink:href="#DejaVuSans-48"/>
       <use x="349.902344" xlink:href="#DejaVuSans-48"/>
      </g>
     </g>
    </g>
    <g id="ytick_9">
     <g id="line2d_19">
      <g>
       <use style="fill:#0000ff;stroke:#0000ff;stroke-width:0.8;" x="106.8" xlink:href="#md84e1bcaaa" y="54.941453"/>
      </g>
     </g>
     <g id="text_20">
      <!-- 160,000 -->
      <g style="fill:#0000ff;" transform="translate(33.635 61.020203)scale(0.16 -0.16)">
       <use xlink:href="#DejaVuSans-49"/>
       <use x="63.623047" xlink:href="#DejaVuSans-54"/>
       <use x="127.246094" xlink:href="#DejaVuSans-48"/>
       <use x="190.869141" xlink:href="#DejaVuSans-44"/>
       <use x="222.65625" xlink:href="#DejaVuSans-48"/>
       <use x="286.279297" xlink:href="#DejaVuSans-48"/>
       <use x="349.902344" xlink:href="#DejaVuSans-48"/>
      </g>
     </g>
    </g>
    <g id="text_21">
     <!-- cases -->
     <g style="fill:#0000ff;" transform="translate(25.66 344.475828)rotate(-90)scale(0.2 -0.2)">
      <defs>
       <path d="M 40.4375 19 
L 49.078125 17.875 
Q 47.65625 8.9375 41.8125 3.875 
Q 35.984375 -1.171875 27.484375 -1.171875 
Q 16.84375 -1.171875 10.375 5.78125 
Q 3.90625 12.75 3.90625 25.734375 
Q 3.90625 34.125 6.6875 40.421875 
Q 9.46875 46.734375 15.15625 49.875 
Q 20.84375 53.03125 27.546875 53.03125 
Q 35.984375 53.03125 41.359375 48.75 
Q 46.734375 44.484375 48.25 36.625 
L 39.703125 35.296875 
Q 38.484375 40.53125 35.375 43.15625 
Q 32.28125 45.796875 27.875 45.796875 
Q 21.234375 45.796875 17.078125 41.03125 
Q 12.9375 36.28125 12.9375 25.984375 
Q 12.9375 15.53125 16.9375 10.796875 
Q 20.953125 6.0625 27.390625 6.0625 
Q 32.5625 6.0625 36.03125 9.234375 
Q 39.5 12.40625 40.4375 19 
z
" id="ArialMT-99"/>
       <path d="M 3.078125 15.484375 
L 11.765625 16.84375 
Q 12.5 11.625 15.84375 8.84375 
Q 19.1875 6.0625 25.203125 6.0625 
Q 31.25 6.0625 34.171875 8.515625 
Q 37.109375 10.984375 37.109375 14.3125 
Q 37.109375 17.28125 34.515625 19 
Q 32.71875 20.171875 25.53125 21.96875 
Q 15.875 24.421875 12.140625 26.203125 
Q 8.40625 27.984375 6.46875 31.125 
Q 4.546875 34.28125 4.546875 38.09375 
Q 4.546875 41.546875 6.125 44.5 
Q 7.71875 47.46875 10.453125 49.421875 
Q 12.5 50.921875 16.03125 51.96875 
Q 19.578125 53.03125 23.640625 53.03125 
Q 29.734375 53.03125 34.34375 51.265625 
Q 38.96875 49.515625 41.15625 46.5 
Q 43.359375 43.5 44.1875 38.484375 
L 35.59375 37.3125 
Q 35.015625 41.3125 32.203125 43.546875 
Q 29.390625 45.796875 24.265625 45.796875 
Q 18.21875 45.796875 15.625 43.796875 
Q 13.03125 41.796875 13.03125 39.109375 
Q 13.03125 37.40625 14.109375 36.03125 
Q 15.1875 34.625 17.484375 33.6875 
Q 18.796875 33.203125 25.25 31.453125 
Q 34.578125 28.953125 38.25 27.359375 
Q 41.9375 25.78125 44.03125 22.75 
Q 46.140625 19.734375 46.140625 15.234375 
Q 46.140625 10.84375 43.578125 6.953125 
Q 41.015625 3.078125 36.171875 0.953125 
Q 31.34375 -1.171875 25.25 -1.171875 
Q 15.140625 -1.171875 9.84375 3.03125 
Q 4.546875 7.234375 3.078125 15.484375 
z
" id="ArialMT-115"/>
      </defs>
      <use xlink:href="#ArialMT-99"/>
      <use x="50" xlink:href="#ArialMT-97"/>
      <use x="105.615234" xlink:href="#ArialMT-115"/>
      <use x="155.615234" xlink:href="#ArialMT-101"/>
      <use x="211.230469" xlink:href="#ArialMT-115"/>
     </g>
    </g>
   </g>
   <g id="line2d_20">
    <path clip-path="url(#pe1305bfc97)" d="M 149.914773 567.26968 
L 161.849658 567.304905 
L 308.052001 567.205634 
L 311.035723 567.10316 
L 319.986887 567.154397 
L 322.970608 566.99108 
L 325.954329 567.077542 
L 328.93805 566.565175 
L 331.921772 566.792538 
L 334.905493 566.590794 
L 337.889214 566.61321 
L 340.872936 566.50113 
L 343.856657 566.174496 
L 346.840378 566.235339 
L 349.8241 565.908706 
L 352.807821 564.714251 
L 355.791542 563.920083 
L 358.775263 563.913678 
L 361.758985 562.744842 
L 364.742706 560.986784 
L 367.726427 560.993188 
L 370.710149 557.864549 
L 373.69387 551.562439 
L 376.677591 552.363012 
L 379.661313 549.317633 
L 382.645034 550.825912 
L 385.628755 545.734269 
L 388.612476 553.499826 
L 391.596198 553.634322 
L 394.579919 539.954132 
L 397.56364 510.669176 
L 400.547362 530.251189 
L 403.531083 535.307607 
L 406.514804 525.6559 
L 409.498525 543.688004 
L 412.482247 541.398366 
L 415.465968 506.486983 
L 418.449689 515.139575 
L 421.433411 535.298 
L 424.417132 534.007477 
L 427.400853 523.295811 
L 430.384575 523.116483 
L 433.368296 481.236914 
L 436.352017 508.312289 
L 439.335738 489.425173 
L 442.31946 518.380294 
L 445.303181 518.838222 
L 448.286902 527.967955 
L 451.270624 519.344184 
L 454.254345 506.054674 
L 457.238066 517.653374 
L 460.221788 468.226003 
L 463.205509 514.896201 
L 466.18923 526.389225 
L 469.172951 534.087534 
L 472.156673 494.683336 
L 475.140394 468.12353 
L 478.124115 501.593881 
L 481.107837 488.605387 
L 484.091558 524.595942 
L 487.075279 524.435827 
L 490.059 512.984433 
L 493.042722 535.438901 
L 496.026443 481.137643 
L 499.010164 487.401325 
L 501.993886 508.616507 
L 504.977607 514.582376 
L 507.961328 514.700861 
L 510.94505 515.226037 
L 513.928771 521.147074 
L 516.912492 497.802368 
L 519.896213 502.878 
L 522.879935 518.284225 
L 525.863656 515.152384 
L 528.847377 503.262275 
L 531.831099 520.86207 
L 534.81482 527.638119 
L 537.798541 500.463472 
L 540.782263 501.267248 
L 543.765984 523.455926 
L 546.749705 462.487496 
L 549.733426 522.908334 
L 552.717148 498.135406 
L 555.700869 535.470924 
L 558.68459 491.484247 
L 561.668312 487.699138 
L 564.652033 523.526376 
L 567.635754 514.329395 
L 570.619475 506.669514 
L 573.603197 521.822757 
L 576.586918 532.178968 
L 579.570639 511.159126 
L 582.554361 516.7119 
L 585.538082 276.066092 
L 588.521803 455.106214 
L 591.505525 513.343089 
L 594.489246 504.725723 
L 597.472967 527.490813 
L 600.456688 531.858739 
L 603.44041 500.620385 
L 606.424131 508.440381 
L 609.407852 515.632728 
L 612.391574 515.978575 
L 618.359016 529.825284 
L 621.342737 543.764859 
L 624.326459 508.99758 
L 627.31018 511.501772 
L 630.293901 288.113112 
L 633.277623 524.150823 
L 636.261344 486.431031 
L 639.245065 529.956578 
L 642.228787 524.288522 
L 645.212508 494.276645 
L 648.196229 513.781803 
L 651.17995 498.016922 
L 654.163672 502.103046 
L 657.147393 499.445144 
L 660.131114 456.694551 
L 663.114836 438.271767 
L 666.098557 489.255452 
L 669.082278 491.39138 
L 672.066 69.403001 
L 675.049721 497.93046 
L 678.033442 501.625904 
L 681.017163 520.13515 
L 684.000885 493.059774 
L 686.984606 437.666534 
L 689.968327 487.25402 
L 692.952049 486.568729 
L 695.93577 408.84591 
L 698.919491 500.156052 
L 701.903212 496.566284 
L 704.886934 512.625776 
L 707.870655 451.993587 
L 710.854376 476.404656 
L 713.838098 473.76917 
L 716.821819 466.823399 
L 719.80554 471.316214 
L 722.789262 470.400359 
L 725.772983 481.144047 
L 728.756704 312.601036 
L 731.740425 433.654063 
L 734.724147 470.355527 
L 737.707868 474.995647 
L 740.691589 450.078617 
L 743.675311 447.949093 
L 746.659032 416.973326 
L 749.642753 410.639193 
L 752.626475 452.083251 
L 755.610196 474.627384 
L 758.593917 467.332564 
L 761.577638 469.737485 
L 764.56136 480.324261 
L 767.545081 486.312546 
L 770.528802 421.626256 
L 773.512524 478.386874 
L 776.496245 441.791086 
L 779.479966 467.057167 
L 782.463687 425.82446 
L 785.447409 486.370187 
L 788.43113 502.381645 
L 791.414851 433.327429 
L 797.382294 480.452352 
L 800.366015 484.118976 
L 803.349737 473.765967 
L 806.333458 499.826216 
L 809.317179 479.760657 
L 812.3009 449.681532 
L 815.284622 494.965138 
L 818.268343 472.45623 
L 821.252064 438.505535 
L 824.235786 388.559393 
L 827.219507 502.093439 
L 830.203228 506.980136 
L 833.18695 434.176037 
L 836.170671 484.698591 
L 839.154392 431.031386 
L 842.138113 398.787512 
L 845.121835 411.125942 
L 848.105556 476.712076 
L 851.089277 511.703516 
L 854.072999 404.711752 
L 857.05672 493.046965 
L 860.040441 468.43095 
L 863.024162 437.682546 
L 866.007884 493.648996 
L 868.991605 507.912003 
L 871.975326 509.670061 
L 874.959048 474.10541 
L 877.942769 493.363992 
L 880.92649 485.025225 
L 883.910212 486.850531 
L 886.893933 474.76188 
L 889.877654 190.38878 
L 892.861375 524.163633 
L 895.845097 515.869697 
L 898.828818 464.299994 
L 901.812539 459.954484 
L 904.796261 488.198696 
L 907.779982 500.495495 
L 910.763703 506.022651 
L 913.747425 515.28688 
L 916.731146 481.432254 
L 919.714867 434.995823 
L 922.698588 428.17174 
L 925.68231 442.770987 
L 928.666031 476.231732 
L 931.649752 502.813954 
L 934.633474 512.699429 
L 937.617195 441.640578 
L 940.600916 440.042635 
L 943.584637 473.34967 
L 946.568359 443.405041 
L 949.55208 400.459108 
L 952.535801 474.624182 
L 955.519523 499.547617 
L 958.503244 472.004707 
L 961.486965 472.923765 
L 964.470687 425.001471 
L 967.454408 324.830588 
L 970.438129 464.70028 
L 973.42185 490.382659 
L 976.405572 496.274875 
L 979.389293 447.776169 
L 982.373014 466.826602 
L 985.356736 481.79091 
L 988.340457 461.613271 
L 991.324178 470.048107 
L 994.307899 480.25381 
L 997.291621 433.50996 
L 1000.275342 442.277834 
L 1003.259063 383.34286 
L 1006.242785 455.3656 
L 1009.226506 408.176631 
L 1012.210227 380.454393 
L 1012.210227 380.454393 
" style="fill:none;stroke:#0000ff;stroke-linecap:square;stroke-width:0.5;"/>
   </g>
   <g id="patch_3">
    <path d="M 106.8 592.2 
L 106.8 44.507906 
" style="fill:none;stroke:#000000;stroke-linecap:square;stroke-linejoin:miter;stroke-width:0.8;"/>
   </g>
   <g id="patch_4">
    <path d="M 106.8 592.2 
L 1055.325 592.2 
" style="fill:none;stroke:#000000;stroke-linecap:square;stroke-linejoin:miter;stroke-width:0.8;"/>
   </g>
  </g>
  <g id="axes_2">
   <g id="matplotlib.axis_3">
    <g id="ytick_10">
     <g id="line2d_21">
      <defs>
       <path d="M 0 0 
L 3.5 0 
" id="m61a1e118a9" style="stroke:#ff0000;stroke-width:0.8;"/>
      </defs>
      <g>
       <use style="fill:#ff0000;stroke:#ff0000;stroke-width:0.8;" x="1055.325" xlink:href="#m61a1e118a9" y="567.304905"/>
      </g>
     </g>
     <g id="text_22">
      <!-- 0 -->
      <g style="fill:#ff0000;" transform="translate(1062.325 573.383655)scale(0.16 -0.16)">
       <use xlink:href="#DejaVuSans-48"/>
      </g>
     </g>
    </g>
    <g id="ytick_11">
     <g id="line2d_22">
      <g>
       <use style="fill:#ff0000;stroke:#ff0000;stroke-width:0.8;" x="1055.325" xlink:href="#m61a1e118a9" y="480.562413"/>
      </g>
     </g>
     <g id="text_23">
      <!-- 2,000 -->
      <g style="fill:#ff0000;" transform="translate(1062.325 486.641163)scale(0.16 -0.16)">
       <use xlink:href="#DejaVuSans-50"/>
       <use x="63.623047" xlink:href="#DejaVuSans-44"/>
       <use x="95.410156" xlink:href="#DejaVuSans-48"/>
       <use x="159.033203" xlink:href="#DejaVuSans-48"/>
       <use x="222.65625" xlink:href="#DejaVuSans-48"/>
      </g>
     </g>
    </g>
    <g id="ytick_12">
     <g id="line2d_23">
      <g>
       <use style="fill:#ff0000;stroke:#ff0000;stroke-width:0.8;" x="1055.325" xlink:href="#m61a1e118a9" y="393.819921"/>
      </g>
     </g>
     <g id="text_24">
      <!-- 4,000 -->
      <g style="fill:#ff0000;" transform="translate(1062.325 399.898671)scale(0.16 -0.16)">
       <use xlink:href="#DejaVuSans-52"/>
       <use x="63.623047" xlink:href="#DejaVuSans-44"/>
       <use x="95.410156" xlink:href="#DejaVuSans-48"/>
       <use x="159.033203" xlink:href="#DejaVuSans-48"/>
       <use x="222.65625" xlink:href="#DejaVuSans-48"/>
      </g>
     </g>
    </g>
    <g id="ytick_13">
     <g id="line2d_24">
      <g>
       <use style="fill:#ff0000;stroke:#ff0000;stroke-width:0.8;" x="1055.325" xlink:href="#m61a1e118a9" y="307.077429"/>
      </g>
     </g>
     <g id="text_25">
      <!-- 6,000 -->
      <g style="fill:#ff0000;" transform="translate(1062.325 313.156179)scale(0.16 -0.16)">
       <use xlink:href="#DejaVuSans-54"/>
       <use x="63.623047" xlink:href="#DejaVuSans-44"/>
       <use x="95.410156" xlink:href="#DejaVuSans-48"/>
       <use x="159.033203" xlink:href="#DejaVuSans-48"/>
       <use x="222.65625" xlink:href="#DejaVuSans-48"/>
      </g>
     </g>
    </g>
    <g id="ytick_14">
     <g id="line2d_25">
      <g>
       <use style="fill:#ff0000;stroke:#ff0000;stroke-width:0.8;" x="1055.325" xlink:href="#m61a1e118a9" y="220.334937"/>
      </g>
     </g>
     <g id="text_26">
      <!-- 8,000 -->
      <g style="fill:#ff0000;" transform="translate(1062.325 226.413687)scale(0.16 -0.16)">
       <use xlink:href="#DejaVuSans-56"/>
       <use x="63.623047" xlink:href="#DejaVuSans-44"/>
       <use x="95.410156" xlink:href="#DejaVuSans-48"/>
       <use x="159.033203" xlink:href="#DejaVuSans-48"/>
       <use x="222.65625" xlink:href="#DejaVuSans-48"/>
      </g>
     </g>
    </g>
    <g id="ytick_15">
     <g id="line2d_26">
      <g>
       <use style="fill:#ff0000;stroke:#ff0000;stroke-width:0.8;" x="1055.325" xlink:href="#m61a1e118a9" y="133.592445"/>
      </g>
     </g>
     <g id="text_27">
      <!-- 10,000 -->
      <g style="fill:#ff0000;" transform="translate(1062.325 139.671195)scale(0.16 -0.16)">
       <use xlink:href="#DejaVuSans-49"/>
       <use x="63.623047" xlink:href="#DejaVuSans-48"/>
       <use x="127.246094" xlink:href="#DejaVuSans-44"/>
       <use x="159.033203" xlink:href="#DejaVuSans-48"/>
       <use x="222.65625" xlink:href="#DejaVuSans-48"/>
       <use x="286.279297" xlink:href="#DejaVuSans-48"/>
      </g>
     </g>
    </g>
    <g id="ytick_16">
     <g id="line2d_27">
      <g>
       <use style="fill:#ff0000;stroke:#ff0000;stroke-width:0.8;" x="1055.325" xlink:href="#m61a1e118a9" y="46.849954"/>
      </g>
     </g>
     <g id="text_28">
      <!-- 12,000 -->
      <g style="fill:#ff0000;" transform="translate(1062.325 52.928704)scale(0.16 -0.16)">
       <use xlink:href="#DejaVuSans-49"/>
       <use x="63.623047" xlink:href="#DejaVuSans-50"/>
       <use x="127.246094" xlink:href="#DejaVuSans-44"/>
       <use x="159.033203" xlink:href="#DejaVuSans-48"/>
       <use x="222.65625" xlink:href="#DejaVuSans-48"/>
       <use x="286.279297" xlink:href="#DejaVuSans-48"/>
      </g>
     </g>
    </g>
    <g id="text_29">
     <!-- deaths -->
     <g style="fill:#ff0000;" transform="translate(1136.625625 348.375828)rotate(-90)scale(0.2 -0.2)">
      <defs>
       <path d="M 6.59375 0 
L 6.59375 71.578125 
L 15.375 71.578125 
L 15.375 45.90625 
Q 21.53125 53.03125 30.90625 53.03125 
Q 36.671875 53.03125 40.921875 50.75 
Q 45.171875 48.484375 47 44.484375 
Q 48.828125 40.484375 48.828125 32.859375 
L 48.828125 0 
L 40.046875 0 
L 40.046875 32.859375 
Q 40.046875 39.453125 37.1875 42.453125 
Q 34.328125 45.453125 29.109375 45.453125 
Q 25.203125 45.453125 21.75 43.421875 
Q 18.3125 41.40625 16.84375 37.9375 
Q 15.375 34.46875 15.375 28.375 
L 15.375 0 
z
" id="ArialMT-104"/>
      </defs>
      <use xlink:href="#ArialMT-100"/>
      <use x="55.615234" xlink:href="#ArialMT-101"/>
      <use x="111.230469" xlink:href="#ArialMT-97"/>
      <use x="166.845703" xlink:href="#ArialMT-116"/>
      <use x="194.628906" xlink:href="#ArialMT-104"/>
      <use x="250.244141" xlink:href="#ArialMT-115"/>
     </g>
    </g>
   </g>
   <g id="line2d_28">
    <path clip-path="url(#pe1305bfc97)" d="M 149.914773 567.304905 
L 266.279903 567.304905 
L 269.263625 567.174791 
L 272.247346 567.304905 
L 275.231067 567.218162 
L 284.182231 567.304905 
L 293.133395 567.261534 
L 296.117116 567.261534 
L 299.100838 567.088049 
L 311.035723 567.218162 
L 317.003165 567.088049 
L 319.986887 567.261534 
L 322.970608 567.001306 
L 325.954329 567.088049 
L 328.93805 566.78445 
L 331.921772 566.697707 
L 334.905493 566.827821 
L 337.889214 566.654336 
L 340.872936 566.914564 
L 343.856657 566.480851 
L 346.840378 566.524222 
L 349.8241 566.697707 
L 352.807821 565.917025 
L 355.791542 564.485774 
L 358.775263 565.613426 
L 361.758985 564.442403 
L 364.742706 563.488235 
L 367.726427 563.921948 
L 370.710149 562.403954 
L 373.69387 557.242776 
L 376.677591 558.196943 
L 379.661313 554.987471 
L 382.645034 556.895806 
L 385.628755 557.633117 
L 388.612476 559.714937 
L 391.596198 559.758308 
L 394.579919 550.563604 
L 397.56364 520.073618 
L 400.547362 526.015479 
L 403.531083 534.646357 
L 406.514804 534.602985 
L 409.498525 539.98102 
L 412.482247 535.860752 
L 415.465968 540.024391 
L 418.449689 499.038564 
L 421.433411 533.041621 
L 424.417132 542.670037 
L 427.400853 548.958868 
L 430.384575 520.030247 
L 433.368296 461.695921 
L 436.352017 524.454114 
L 439.335738 453.32527 
L 442.31946 526.015479 
L 445.303181 548.69864 
L 448.286902 520.50733 
L 451.270624 514.435356 
L 454.254345 478.914306 
L 457.238066 502.638377 
L 460.221788 448.944775 
L 463.205509 534.863213 
L 466.18923 544.231402 
L 469.172951 543.580833 
L 472.156673 417.717478 
L 475.140394 424.223164 
L 478.124115 515.95335 
L 481.107837 489.627003 
L 484.091558 532.347681 
L 487.075279 520.594073 
L 490.059 538.289541 
L 493.042722 547.093904 
L 496.026443 460.655011 
L 499.010164 517.471343 
L 501.993886 484.248969 
L 504.977607 531.176657 
L 507.961328 536.598063 
L 510.94505 534.602985 
L 513.928771 533.562075 
L 516.912492 505.284023 
L 519.896213 526.102221 
L 522.879935 541.108672 
L 525.863656 535.513782 
L 528.847377 533.128363 
L 531.831099 541.499013 
L 534.81482 546.530078 
L 537.798541 513.307704 
L 543.765984 544.491629 
L 546.749705 513.134219 
L 549.733426 547.614359 
L 552.717148 550.867203 
L 555.700869 551.777999 
L 558.68459 521.071157 
L 561.668312 534.342758 
L 564.652033 549.73955 
L 567.635754 543.971175 
L 570.619475 543.147121 
L 573.603197 551.170801 
L 576.586918 553.729705 
L 579.570639 537.118518 
L 582.554361 549.175724 
L 585.538082 447.73038 
L 588.521803 508.016412 
L 591.505525 542.40981 
L 594.489246 537.20526 
L 597.472967 549.782921 
L 600.456688 556.462093 
L 603.44041 534.212644 
L 606.424131 542.106211 
L 609.407852 545.706024 
L 612.391574 549.522694 
L 615.375295 548.438413 
L 618.359016 553.946561 
L 621.342737 559.801679 
L 624.326459 547.961329 
L 627.31018 551.994855 
L 630.293901 69.403001 
L 633.277623 557.459632 
L 636.261344 554.076675 
L 639.245065 556.288608 
L 642.228787 559.194482 
L 645.212508 549.219095 
L 648.196229 552.081598 
L 651.17995 551.734628 
L 654.163672 551.214173 
L 657.147393 553.816447 
L 660.131114 461.956148 
L 663.114836 465.902932 
L 666.098557 549.088982 
L 669.082278 550.346748 
L 672.066 196.39401 
L 675.049721 551.951484 
L 678.033442 550.129891 
L 681.017163 555.63804 
L 686.984606 541.108672 
L 689.968327 550.216634 
L 692.952049 551.12743 
L 695.93577 533.301848 
L 698.919491 555.811525 
L 701.903212 554.640501 
L 704.886934 556.895806 
L 707.870655 543.277235 
L 710.854376 549.913035 
L 713.838098 549.696179 
L 716.821819 549.609436 
L 719.80554 548.481784 
L 722.789262 544.795228 
L 725.772983 550.823831 
L 728.756704 526.015479 
L 731.740425 544.838599 
L 734.724147 546.399964 
L 737.707868 549.219095 
L 740.691589 545.359054 
L 743.675311 540.32799 
L 746.659032 536.641434 
L 749.642753 532.217567 
L 752.626475 540.67496 
L 755.610196 547.354132 
L 758.593917 548.915497 
L 761.577638 546.703563 
L 764.56136 551.12743 
L 767.545081 555.768153 
L 770.528802 534.169273 
L 773.512524 549.826293 
L 776.496245 538.116056 
L 779.479966 548.178185 
L 782.463687 525.321539 
L 785.447409 551.12743 
L 788.43113 556.158495 
L 791.414851 539.720792 
L 794.398573 547.831215 
L 797.382294 549.002239 
L 800.366015 552.298454 
L 803.349737 548.438413 
L 806.333458 553.079136 
L 809.317179 552.211711 
L 812.3009 539.720792 
L 815.284622 550.520233 
L 818.268343 550.650346 
L 821.252064 542.713408 
L 824.235786 538.332913 
L 827.219507 556.201866 
L 830.203228 552.86228 
L 833.18695 535.47041 
L 836.170671 550.563604 
L 839.154392 538.419655 
L 842.138113 532.434423 
L 845.121835 537.075146 
L 848.105556 551.604514 
L 851.089277 557.37289 
L 854.072999 526.362449 
L 857.05672 552.211711 
L 860.040441 544.188031 
L 863.024162 535.730638 
L 866.007884 554.423645 
L 868.991605 558.370428 
L 871.975326 558.327057 
L 874.959048 550.563604 
L 877.942769 554.076675 
L 880.92649 554.120046 
L 883.910212 554.900728 
L 886.893933 549.39258 
L 889.877654 415.809143 
L 892.861375 560.322134 
L 895.845097 559.367967 
L 898.828818 550.303376 
L 904.796261 544.968713 
L 907.779982 554.336902 
L 910.763703 559.237853 
L 913.747425 557.286147 
L 916.731146 553.035765 
L 919.714867 540.588217 
L 922.698588 534.689728 
L 925.68231 545.185569 
L 928.666031 555.030842 
L 931.649752 558.587284 
L 934.633474 559.845051 
L 937.617195 544.535001 
L 940.600916 544.968713 
L 943.584637 550.303376 
L 946.568359 551.561143 
L 949.55208 545.922881 
L 952.535801 552.16834 
L 955.519523 558.977626 
L 958.503244 553.55622 
L 961.486965 552.558681 
L 964.470687 544.448258 
L 967.454408 529.87552 
L 970.438129 556.505465 
L 973.42185 557.763231 
L 976.405572 559.931793 
L 979.389293 550.08652 
L 982.373014 554.59713 
L 985.356736 557.763231 
L 988.340457 555.551297 
L 994.307899 558.327057 
L 997.291621 549.869664 
L 1000.275342 552.385196 
L 1003.259063 544.491629 
L 1006.242785 555.594668 
L 1009.226506 550.737089 
L 1012.210227 547.137275 
L 1012.210227 547.137275 
" style="fill:none;stroke:#ff0000;stroke-linecap:square;stroke-width:0.5;"/>
   </g>
   <g id="patch_5">
    <path d="M 106.8 592.2 
L 106.8 44.507906 
" style="fill:none;stroke:#000000;stroke-linecap:square;stroke-linejoin:miter;stroke-width:0.8;"/>
   </g>
   <g id="patch_6">
    <path d="M 1055.325 592.2 
L 1055.325 44.507906 
" style="fill:none;stroke:#000000;stroke-linecap:square;stroke-linejoin:miter;stroke-width:0.8;"/>
   </g>
   <g id="patch_7">
    <path d="M 106.8 592.2 
L 1055.325 592.2 
" style="fill:none;stroke:#000000;stroke-linecap:square;stroke-linejoin:miter;stroke-width:0.8;"/>
   </g>
   <g id="patch_8">
    <path d="M 106.8 44.507906 
L 1055.325 44.507906 
" style="fill:none;stroke:#000000;stroke-linecap:square;stroke-linejoin:miter;stroke-width:0.8;"/>
   </g>
  </g>
  <g id="text_30">
   <!-- COVID-19 Case Surveillance -->
   <g transform="translate(446.507812 27.275625)scale(0.2 -0.2)">
    <defs>
     <path d="M 58.796875 25.09375 
L 68.265625 22.703125 
Q 65.28125 11.03125 57.546875 4.90625 
Q 49.8125 -1.21875 38.625 -1.21875 
Q 27.046875 -1.21875 19.796875 3.484375 
Q 12.546875 8.203125 8.765625 17.140625 
Q 4.984375 26.078125 4.984375 36.328125 
Q 4.984375 47.515625 9.25 55.828125 
Q 13.53125 64.15625 21.40625 68.46875 
Q 29.296875 72.796875 38.765625 72.796875 
Q 49.515625 72.796875 56.828125 67.328125 
Q 64.15625 61.859375 67.046875 51.953125 
L 57.71875 49.75 
Q 55.21875 57.5625 50.484375 61.125 
Q 45.75 64.703125 38.578125 64.703125 
Q 30.328125 64.703125 24.78125 60.734375 
Q 19.234375 56.78125 16.984375 50.109375 
Q 14.75 43.453125 14.75 36.375 
Q 14.75 27.25 17.40625 20.4375 
Q 20.0625 13.625 25.671875 10.25 
Q 31.296875 6.890625 37.84375 6.890625 
Q 45.796875 6.890625 51.3125 11.46875 
Q 56.84375 16.0625 58.796875 25.09375 
z
" id="ArialMT-67"/>
     <path d="M 4.828125 34.859375 
Q 4.828125 52.6875 14.390625 62.765625 
Q 23.96875 72.859375 39.109375 72.859375 
Q 49.03125 72.859375 56.984375 68.109375 
Q 64.9375 63.375 69.109375 54.90625 
Q 73.296875 46.4375 73.296875 35.6875 
Q 73.296875 24.8125 68.890625 16.21875 
Q 64.5 7.625 56.4375 3.203125 
Q 48.390625 -1.21875 39.0625 -1.21875 
Q 28.953125 -1.21875 20.984375 3.65625 
Q 13.03125 8.546875 8.921875 16.984375 
Q 4.828125 25.4375 4.828125 34.859375 
z
M 14.59375 34.71875 
Q 14.59375 21.78125 21.546875 14.328125 
Q 28.515625 6.890625 39.015625 6.890625 
Q 49.703125 6.890625 56.609375 14.40625 
Q 63.53125 21.921875 63.53125 35.75 
Q 63.53125 44.484375 60.578125 51 
Q 57.625 57.515625 51.921875 61.109375 
Q 46.234375 64.703125 39.15625 64.703125 
Q 29.109375 64.703125 21.84375 57.78125 
Q 14.59375 50.875 14.59375 34.71875 
z
" id="ArialMT-79"/>
     <path d="M 28.171875 0 
L 0.4375 71.578125 
L 10.6875 71.578125 
L 29.296875 19.578125 
Q 31.546875 13.328125 33.0625 7.859375 
Q 34.71875 13.71875 36.921875 19.578125 
L 56.25 71.578125 
L 65.921875 71.578125 
L 37.890625 0 
z
" id="ArialMT-86"/>
     <path d="M 9.328125 0 
L 9.328125 71.578125 
L 18.796875 71.578125 
L 18.796875 0 
z
" id="ArialMT-73"/>
     <path d="M 7.71875 0 
L 7.71875 71.578125 
L 32.375 71.578125 
Q 40.71875 71.578125 45.125 70.5625 
Q 51.265625 69.140625 55.609375 65.4375 
Q 61.28125 60.640625 64.078125 53.1875 
Q 66.890625 45.75 66.890625 36.1875 
Q 66.890625 28.03125 64.984375 21.734375 
Q 63.09375 15.4375 60.109375 11.296875 
Q 57.125 7.171875 53.578125 4.796875 
Q 50.046875 2.4375 45.046875 1.21875 
Q 40.046875 0 33.546875 0 
z
M 17.1875 8.453125 
L 32.46875 8.453125 
Q 39.546875 8.453125 43.578125 9.765625 
Q 47.609375 11.078125 50 13.484375 
Q 53.375 16.84375 55.25 22.53125 
Q 57.125 28.21875 57.125 36.328125 
Q 57.125 47.5625 53.4375 53.59375 
Q 49.75 59.625 44.484375 61.671875 
Q 40.671875 63.140625 32.234375 63.140625 
L 17.1875 63.140625 
z
" id="ArialMT-68"/>
     <path d="M 3.171875 21.484375 
L 3.171875 30.328125 
L 30.171875 30.328125 
L 30.171875 21.484375 
z
" id="ArialMT-45"/>
     <path d="M 37.25 0 
L 28.46875 0 
L 28.46875 56 
Q 25.296875 52.984375 20.140625 49.953125 
Q 14.984375 46.921875 10.890625 45.40625 
L 10.890625 53.90625 
Q 18.265625 57.375 23.78125 62.296875 
Q 29.296875 67.234375 31.59375 71.875 
L 37.25 71.875 
z
" id="ArialMT-49"/>
     <path d="M 5.46875 16.546875 
L 13.921875 17.328125 
Q 14.984375 11.375 18.015625 8.6875 
Q 21.046875 6 25.78125 6 
Q 29.828125 6 32.875 7.859375 
Q 35.9375 9.71875 37.890625 12.8125 
Q 39.84375 15.921875 41.15625 21.1875 
Q 42.484375 26.46875 42.484375 31.9375 
Q 42.484375 32.515625 42.4375 33.6875 
Q 39.796875 29.5 35.234375 26.875 
Q 30.671875 24.265625 25.34375 24.265625 
Q 16.453125 24.265625 10.296875 30.703125 
Q 4.15625 37.15625 4.15625 47.703125 
Q 4.15625 58.59375 10.578125 65.234375 
Q 17 71.875 26.65625 71.875 
Q 33.640625 71.875 39.421875 68.109375 
Q 45.21875 64.359375 48.21875 57.390625 
Q 51.21875 50.4375 51.21875 37.25 
Q 51.21875 23.53125 48.234375 15.40625 
Q 45.265625 7.28125 39.375 3.03125 
Q 33.5 -1.21875 25.59375 -1.21875 
Q 17.1875 -1.21875 11.859375 3.4375 
Q 6.546875 8.109375 5.46875 16.546875 
z
M 41.453125 48.140625 
Q 41.453125 55.71875 37.421875 60.15625 
Q 33.40625 64.59375 27.734375 64.59375 
Q 21.875 64.59375 17.53125 59.8125 
Q 13.1875 55.03125 13.1875 47.40625 
Q 13.1875 40.578125 17.3125 36.296875 
Q 21.4375 32.03125 27.484375 32.03125 
Q 33.59375 32.03125 37.515625 36.296875 
Q 41.453125 40.578125 41.453125 48.140625 
z
" id="ArialMT-57"/>
     <path id="ArialMT-32"/>
     <path d="M 4.5 23 
L 13.421875 23.78125 
Q 14.0625 18.40625 16.375 14.96875 
Q 18.703125 11.53125 23.578125 9.40625 
Q 28.46875 7.28125 34.578125 7.28125 
Q 39.984375 7.28125 44.140625 8.890625 
Q 48.296875 10.5 50.3125 13.296875 
Q 52.34375 16.109375 52.34375 19.4375 
Q 52.34375 22.796875 50.390625 25.3125 
Q 48.4375 27.828125 43.953125 29.546875 
Q 41.0625 30.671875 31.203125 33.03125 
Q 21.34375 35.40625 17.390625 37.5 
Q 12.25 40.1875 9.734375 44.15625 
Q 7.234375 48.140625 7.234375 53.078125 
Q 7.234375 58.5 10.296875 63.203125 
Q 13.375 67.921875 19.28125 70.359375 
Q 25.203125 72.796875 32.421875 72.796875 
Q 40.375 72.796875 46.453125 70.234375 
Q 52.546875 67.671875 55.8125 62.6875 
Q 59.078125 57.71875 59.328125 51.421875 
L 50.25 50.734375 
Q 49.515625 57.515625 45.28125 60.984375 
Q 41.0625 64.453125 32.8125 64.453125 
Q 24.21875 64.453125 20.28125 61.296875 
Q 16.359375 58.15625 16.359375 53.71875 
Q 16.359375 49.859375 19.140625 47.359375 
Q 21.875 44.875 33.421875 42.265625 
Q 44.96875 39.65625 49.265625 37.703125 
Q 55.515625 34.8125 58.484375 30.390625 
Q 61.46875 25.984375 61.46875 20.21875 
Q 61.46875 14.5 58.203125 9.4375 
Q 54.9375 4.390625 48.796875 1.578125 
Q 42.671875 -1.21875 35.015625 -1.21875 
Q 25.296875 -1.21875 18.71875 1.609375 
Q 12.15625 4.4375 8.421875 10.125 
Q 4.6875 15.828125 4.5 23 
z
" id="ArialMT-83"/>
     <path d="M 40.578125 0 
L 40.578125 7.625 
Q 34.515625 -1.171875 24.125 -1.171875 
Q 19.53125 -1.171875 15.546875 0.578125 
Q 11.578125 2.34375 9.640625 5 
Q 7.71875 7.671875 6.9375 11.53125 
Q 6.390625 14.109375 6.390625 19.734375 
L 6.390625 51.859375 
L 15.1875 51.859375 
L 15.1875 23.09375 
Q 15.1875 16.21875 15.71875 13.8125 
Q 16.546875 10.359375 19.234375 8.375 
Q 21.921875 6.390625 25.875 6.390625 
Q 29.828125 6.390625 33.296875 8.421875 
Q 36.765625 10.453125 38.203125 13.9375 
Q 39.65625 17.4375 39.65625 24.078125 
L 39.65625 51.859375 
L 48.4375 51.859375 
L 48.4375 0 
z
" id="ArialMT-117"/>
     <path d="M 6.5 0 
L 6.5 51.859375 
L 14.40625 51.859375 
L 14.40625 44 
Q 17.4375 49.515625 20 51.265625 
Q 22.5625 53.03125 25.640625 53.03125 
Q 30.078125 53.03125 34.671875 50.203125 
L 31.640625 42.046875 
Q 28.421875 43.953125 25.203125 43.953125 
Q 22.3125 43.953125 20.015625 42.21875 
Q 17.71875 40.484375 16.75 37.40625 
Q 15.28125 32.71875 15.28125 27.15625 
L 15.28125 0 
z
" id="ArialMT-114"/>
     <path d="M 21 0 
L 1.265625 51.859375 
L 10.546875 51.859375 
L 21.6875 20.796875 
Q 23.484375 15.765625 25 10.359375 
Q 26.171875 14.453125 28.265625 20.21875 
L 39.796875 51.859375 
L 48.828125 51.859375 
L 29.203125 0 
z
" id="ArialMT-118"/>
     <path d="M 6.640625 61.46875 
L 6.640625 71.578125 
L 15.4375 71.578125 
L 15.4375 61.46875 
z
M 6.640625 0 
L 6.640625 51.859375 
L 15.4375 51.859375 
L 15.4375 0 
z
" id="ArialMT-105"/>
     <path d="M 6.390625 0 
L 6.390625 71.578125 
L 15.1875 71.578125 
L 15.1875 0 
z
" id="ArialMT-108"/>
     <path d="M 6.59375 0 
L 6.59375 51.859375 
L 14.5 51.859375 
L 14.5 44.484375 
Q 20.21875 53.03125 31 53.03125 
Q 35.6875 53.03125 39.625 51.34375 
Q 43.5625 49.65625 45.515625 46.921875 
Q 47.46875 44.1875 48.25 40.4375 
Q 48.734375 37.984375 48.734375 31.890625 
L 48.734375 0 
L 39.9375 0 
L 39.9375 31.546875 
Q 39.9375 36.921875 38.90625 39.578125 
Q 37.890625 42.234375 35.28125 43.8125 
Q 32.671875 45.40625 29.15625 45.40625 
Q 23.53125 45.40625 19.453125 41.84375 
Q 15.375 38.28125 15.375 28.328125 
L 15.375 0 
z
" id="ArialMT-110"/>
    </defs>
    <use xlink:href="#ArialMT-67"/>
    <use x="72.216797" xlink:href="#ArialMT-79"/>
    <use x="150" xlink:href="#ArialMT-86"/>
    <use x="216.699219" xlink:href="#ArialMT-73"/>
    <use x="244.482422" xlink:href="#ArialMT-68"/>
    <use x="316.699219" xlink:href="#ArialMT-45"/>
    <use x="350" xlink:href="#ArialMT-49"/>
    <use x="405.615234" xlink:href="#ArialMT-57"/>
    <use x="461.230469" xlink:href="#ArialMT-32"/>
    <use x="489.013672" xlink:href="#ArialMT-67"/>
    <use x="561.230469" xlink:href="#ArialMT-97"/>
    <use x="616.845703" xlink:href="#ArialMT-115"/>
    <use x="666.845703" xlink:href="#ArialMT-101"/>
    <use x="722.460938" xlink:href="#ArialMT-32"/>
    <use x="750.244141" xlink:href="#ArialMT-83"/>
    <use x="816.943359" xlink:href="#ArialMT-117"/>
    <use x="872.558594" xlink:href="#ArialMT-114"/>
    <use x="905.859375" xlink:href="#ArialMT-118"/>
    <use x="955.859375" xlink:href="#ArialMT-101"/>
    <use x="1011.474609" xlink:href="#ArialMT-105"/>
    <use x="1033.691406" xlink:href="#ArialMT-108"/>
    <use x="1055.908203" xlink:href="#ArialMT-108"/>
    <use x="1078.125" xlink:href="#ArialMT-97"/>
    <use x="1133.740234" xlink:href="#ArialMT-110"/>
    <use x="1189.355469" xlink:href="#ArialMT-99"/>
    <use x="1239.355469" xlink:href="#ArialMT-101"/>
   </g>
  </g>
  <g id="text_31">
   <!-- Centers for Disease Control and Prevention, COVID-19 Response.  -->
   <g transform="translate(116.28525 77.487116)scale(0.16 -0.16)">
    <defs>
     <path d="M 8.6875 0 
L 8.6875 45.015625 
L 0.921875 45.015625 
L 0.921875 51.859375 
L 8.6875 51.859375 
L 8.6875 57.375 
Q 8.6875 62.59375 9.625 65.140625 
Q 10.890625 68.5625 14.078125 70.671875 
Q 17.28125 72.796875 23.046875 72.796875 
Q 26.765625 72.796875 31.25 71.921875 
L 29.9375 64.265625 
Q 27.203125 64.75 24.75 64.75 
Q 20.75 64.75 19.09375 63.03125 
Q 17.4375 61.328125 17.4375 56.640625 
L 17.4375 51.859375 
L 27.546875 51.859375 
L 27.546875 45.015625 
L 17.4375 45.015625 
L 17.4375 0 
z
" id="ArialMT-102"/>
     <path d="M 3.328125 25.921875 
Q 3.328125 40.328125 11.328125 47.265625 
Q 18.015625 53.03125 27.640625 53.03125 
Q 38.328125 53.03125 45.109375 46.015625 
Q 51.90625 39.015625 51.90625 26.65625 
Q 51.90625 16.65625 48.90625 10.90625 
Q 45.90625 5.171875 40.15625 2 
Q 34.421875 -1.171875 27.640625 -1.171875 
Q 16.75 -1.171875 10.03125 5.8125 
Q 3.328125 12.796875 3.328125 25.921875 
z
M 12.359375 25.921875 
Q 12.359375 15.96875 16.703125 11.015625 
Q 21.046875 6.0625 27.640625 6.0625 
Q 34.1875 6.0625 38.53125 11.03125 
Q 42.875 16.015625 42.875 26.21875 
Q 42.875 35.84375 38.5 40.796875 
Q 34.125 45.75 27.640625 45.75 
Q 21.046875 45.75 16.703125 40.8125 
Q 12.359375 35.890625 12.359375 25.921875 
z
" id="ArialMT-111"/>
     <path d="M 7.71875 0 
L 7.71875 71.578125 
L 34.71875 71.578125 
Q 41.84375 71.578125 45.609375 70.90625 
Q 50.875 70.015625 54.4375 67.546875 
Q 58.015625 65.09375 60.1875 60.640625 
Q 62.359375 56.203125 62.359375 50.875 
Q 62.359375 41.75 56.546875 35.421875 
Q 50.734375 29.109375 35.546875 29.109375 
L 17.1875 29.109375 
L 17.1875 0 
z
M 17.1875 37.546875 
L 35.6875 37.546875 
Q 44.875 37.546875 48.734375 40.96875 
Q 52.59375 44.390625 52.59375 50.59375 
Q 52.59375 55.078125 50.3125 58.265625 
Q 48.046875 61.46875 44.34375 62.5 
Q 41.9375 63.140625 35.5 63.140625 
L 17.1875 63.140625 
z
" id="ArialMT-80"/>
     <path d="M 8.890625 0 
L 8.890625 10.015625 
L 18.890625 10.015625 
L 18.890625 0 
Q 18.890625 -5.515625 16.9375 -8.90625 
Q 14.984375 -12.3125 10.75 -14.15625 
L 8.296875 -10.40625 
Q 11.078125 -9.1875 12.390625 -6.8125 
Q 13.71875 -4.4375 13.875 0 
z
" id="ArialMT-44"/>
     <path d="M 7.859375 0 
L 7.859375 71.578125 
L 39.59375 71.578125 
Q 49.171875 71.578125 54.140625 69.640625 
Q 59.125 67.71875 62.109375 62.828125 
Q 65.09375 57.953125 65.09375 52.046875 
Q 65.09375 44.4375 60.15625 39.203125 
Q 55.21875 33.984375 44.921875 32.5625 
Q 48.6875 30.765625 50.640625 29 
Q 54.78125 25.203125 58.5 19.484375 
L 70.953125 0 
L 59.03125 0 
L 49.5625 14.890625 
Q 45.40625 21.34375 42.71875 24.75 
Q 40.046875 28.171875 37.921875 29.53125 
Q 35.796875 30.90625 33.59375 31.453125 
Q 31.984375 31.78125 28.328125 31.78125 
L 17.328125 31.78125 
L 17.328125 0 
z
M 17.328125 39.984375 
L 37.703125 39.984375 
Q 44.1875 39.984375 47.84375 41.328125 
Q 51.515625 42.671875 53.421875 45.625 
Q 55.328125 48.578125 55.328125 52.046875 
Q 55.328125 57.125 51.640625 60.390625 
Q 47.953125 63.671875 39.984375 63.671875 
L 17.328125 63.671875 
z
" id="ArialMT-82"/>
     <path d="M 6.59375 -19.875 
L 6.59375 51.859375 
L 14.59375 51.859375 
L 14.59375 45.125 
Q 17.4375 49.078125 21 51.046875 
Q 24.5625 53.03125 29.640625 53.03125 
Q 36.28125 53.03125 41.359375 49.609375 
Q 46.4375 46.1875 49.015625 39.953125 
Q 51.609375 33.734375 51.609375 26.3125 
Q 51.609375 18.359375 48.75 11.984375 
Q 45.90625 5.609375 40.453125 2.21875 
Q 35.015625 -1.171875 29 -1.171875 
Q 24.609375 -1.171875 21.109375 0.6875 
Q 17.625 2.546875 15.375 5.375 
L 15.375 -19.875 
z
M 14.546875 25.640625 
Q 14.546875 15.625 18.59375 10.84375 
Q 22.65625 6.0625 28.421875 6.0625 
Q 34.28125 6.0625 38.453125 11.015625 
Q 42.625 15.96875 42.625 26.375 
Q 42.625 36.28125 38.546875 41.203125 
Q 34.46875 46.140625 28.8125 46.140625 
Q 23.1875 46.140625 18.859375 40.890625 
Q 14.546875 35.640625 14.546875 25.640625 
z
" id="ArialMT-112"/>
     <path d="M 9.078125 0 
L 9.078125 10.015625 
L 19.09375 10.015625 
L 19.09375 0 
z
" id="ArialMT-46"/>
    </defs>
    <use xlink:href="#ArialMT-67"/>
    <use x="72.216797" xlink:href="#ArialMT-101"/>
    <use x="127.832031" xlink:href="#ArialMT-110"/>
    <use x="183.447266" xlink:href="#ArialMT-116"/>
    <use x="211.230469" xlink:href="#ArialMT-101"/>
    <use x="266.845703" xlink:href="#ArialMT-114"/>
    <use x="300.146484" xlink:href="#ArialMT-115"/>
    <use x="350.146484" xlink:href="#ArialMT-32"/>
    <use x="377.929688" xlink:href="#ArialMT-102"/>
    <use x="405.712891" xlink:href="#ArialMT-111"/>
    <use x="461.328125" xlink:href="#ArialMT-114"/>
    <use x="494.628906" xlink:href="#ArialMT-32"/>
    <use x="522.412109" xlink:href="#ArialMT-68"/>
    <use x="594.628906" xlink:href="#ArialMT-105"/>
    <use x="616.845703" xlink:href="#ArialMT-115"/>
    <use x="666.845703" xlink:href="#ArialMT-101"/>
    <use x="722.460938" xlink:href="#ArialMT-97"/>
    <use x="778.076172" xlink:href="#ArialMT-115"/>
    <use x="828.076172" xlink:href="#ArialMT-101"/>
    <use x="883.691406" xlink:href="#ArialMT-32"/>
    <use x="911.474609" xlink:href="#ArialMT-67"/>
    <use x="983.691406" xlink:href="#ArialMT-111"/>
    <use x="1039.306641" xlink:href="#ArialMT-110"/>
    <use x="1094.921875" xlink:href="#ArialMT-116"/>
    <use x="1122.705078" xlink:href="#ArialMT-114"/>
    <use x="1156.005859" xlink:href="#ArialMT-111"/>
    <use x="1211.621094" xlink:href="#ArialMT-108"/>
    <use x="1233.837891" xlink:href="#ArialMT-32"/>
    <use x="1261.621094" xlink:href="#ArialMT-97"/>
    <use x="1317.236328" xlink:href="#ArialMT-110"/>
    <use x="1372.851562" xlink:href="#ArialMT-100"/>
    <use x="1428.466797" xlink:href="#ArialMT-32"/>
    <use x="1456.25" xlink:href="#ArialMT-80"/>
    <use x="1522.949219" xlink:href="#ArialMT-114"/>
    <use x="1556.25" xlink:href="#ArialMT-101"/>
    <use x="1611.865234" xlink:href="#ArialMT-118"/>
    <use x="1661.865234" xlink:href="#ArialMT-101"/>
    <use x="1717.480469" xlink:href="#ArialMT-110"/>
    <use x="1773.095703" xlink:href="#ArialMT-116"/>
    <use x="1800.878906" xlink:href="#ArialMT-105"/>
    <use x="1823.095703" xlink:href="#ArialMT-111"/>
    <use x="1878.710938" xlink:href="#ArialMT-110"/>
    <use x="1934.326172" xlink:href="#ArialMT-44"/>
    <use x="1962.109375" xlink:href="#ArialMT-32"/>
    <use x="1989.892578" xlink:href="#ArialMT-67"/>
    <use x="2062.109375" xlink:href="#ArialMT-79"/>
    <use x="2139.892578" xlink:href="#ArialMT-86"/>
    <use x="2206.591797" xlink:href="#ArialMT-73"/>
    <use x="2234.375" xlink:href="#ArialMT-68"/>
    <use x="2306.591797" xlink:href="#ArialMT-45"/>
    <use x="2339.892578" xlink:href="#ArialMT-49"/>
    <use x="2395.507812" xlink:href="#ArialMT-57"/>
    <use x="2451.123047" xlink:href="#ArialMT-32"/>
    <use x="2478.90625" xlink:href="#ArialMT-82"/>
    <use x="2551.123047" xlink:href="#ArialMT-101"/>
    <use x="2606.738281" xlink:href="#ArialMT-115"/>
    <use x="2656.738281" xlink:href="#ArialMT-112"/>
    <use x="2712.353516" xlink:href="#ArialMT-111"/>
    <use x="2767.96875" xlink:href="#ArialMT-110"/>
    <use x="2823.583984" xlink:href="#ArialMT-115"/>
    <use x="2873.583984" xlink:href="#ArialMT-101"/>
    <use x="2929.199219" xlink:href="#ArialMT-46"/>
    <use x="2956.982422" xlink:href="#ArialMT-32"/>
   </g>
   <!-- COVID-19 Case Surveillance Public Data Access, Summary, and Limitations -->
   <g transform="translate(116.28525 94.656116)scale(0.16 -0.16)">
    <defs>
     <path d="M 14.703125 0 
L 6.546875 0 
L 6.546875 71.578125 
L 15.328125 71.578125 
L 15.328125 46.046875 
Q 20.90625 53.03125 29.546875 53.03125 
Q 34.328125 53.03125 38.59375 51.09375 
Q 42.875 49.171875 45.625 45.671875 
Q 48.390625 42.1875 49.953125 37.25 
Q 51.515625 32.328125 51.515625 26.703125 
Q 51.515625 13.375 44.921875 6.09375 
Q 38.328125 -1.171875 29.109375 -1.171875 
Q 19.921875 -1.171875 14.703125 6.5 
z
M 14.59375 26.3125 
Q 14.59375 17 17.140625 12.84375 
Q 21.296875 6.0625 28.375 6.0625 
Q 34.125 6.0625 38.328125 11.0625 
Q 42.53125 16.0625 42.53125 25.984375 
Q 42.53125 36.140625 38.5 40.96875 
Q 34.46875 45.796875 28.765625 45.796875 
Q 23 45.796875 18.796875 40.796875 
Q 14.59375 35.796875 14.59375 26.3125 
z
" id="ArialMT-98"/>
     <path d="M -0.140625 0 
L 27.34375 71.578125 
L 37.546875 71.578125 
L 66.84375 0 
L 56.0625 0 
L 47.703125 21.6875 
L 17.78125 21.6875 
L 9.90625 0 
z
M 20.515625 29.390625 
L 44.78125 29.390625 
L 37.3125 49.21875 
Q 33.890625 58.25 32.234375 64.0625 
Q 30.859375 57.171875 28.375 50.390625 
z
" id="ArialMT-65"/>
     <path d="M 6.59375 0 
L 6.59375 51.859375 
L 14.453125 51.859375 
L 14.453125 44.578125 
Q 16.890625 48.390625 20.9375 50.703125 
Q 25 53.03125 30.171875 53.03125 
Q 35.9375 53.03125 39.625 50.640625 
Q 43.3125 48.25 44.828125 43.953125 
Q 50.984375 53.03125 60.84375 53.03125 
Q 68.5625 53.03125 72.703125 48.75 
Q 76.859375 44.484375 76.859375 35.59375 
L 76.859375 0 
L 68.109375 0 
L 68.109375 32.671875 
Q 68.109375 37.9375 67.25 40.25 
Q 66.40625 42.578125 64.15625 43.984375 
Q 61.921875 45.40625 58.890625 45.40625 
Q 53.421875 45.40625 49.796875 41.765625 
Q 46.1875 38.140625 46.1875 30.125 
L 46.1875 0 
L 37.40625 0 
L 37.40625 33.6875 
Q 37.40625 39.546875 35.25 42.46875 
Q 33.109375 45.40625 28.21875 45.40625 
Q 24.515625 45.40625 21.359375 43.453125 
Q 18.21875 41.5 16.796875 37.734375 
Q 15.375 33.984375 15.375 26.90625 
L 15.375 0 
z
" id="ArialMT-109"/>
     <path d="M 6.203125 -19.96875 
L 5.21875 -11.71875 
Q 8.109375 -12.5 10.25 -12.5 
Q 13.1875 -12.5 14.9375 -11.515625 
Q 16.703125 -10.546875 17.828125 -8.796875 
Q 18.65625 -7.46875 20.515625 -2.25 
Q 20.75 -1.515625 21.296875 -0.09375 
L 1.609375 51.859375 
L 11.078125 51.859375 
L 21.875 21.828125 
Q 23.96875 16.109375 25.640625 9.8125 
Q 27.15625 15.875 29.25 21.625 
L 40.328125 51.859375 
L 49.125 51.859375 
L 29.390625 -0.875 
Q 26.21875 -9.421875 24.46875 -12.640625 
Q 22.125 -17 19.09375 -19.015625 
Q 16.0625 -21.046875 11.859375 -21.046875 
Q 9.328125 -21.046875 6.203125 -19.96875 
z
" id="ArialMT-121"/>
     <path d="M 7.328125 0 
L 7.328125 71.578125 
L 16.796875 71.578125 
L 16.796875 8.453125 
L 52.046875 8.453125 
L 52.046875 0 
z
" id="ArialMT-76"/>
    </defs>
    <use xlink:href="#ArialMT-67"/>
    <use x="72.216797" xlink:href="#ArialMT-79"/>
    <use x="150" xlink:href="#ArialMT-86"/>
    <use x="216.699219" xlink:href="#ArialMT-73"/>
    <use x="244.482422" xlink:href="#ArialMT-68"/>
    <use x="316.699219" xlink:href="#ArialMT-45"/>
    <use x="350" xlink:href="#ArialMT-49"/>
    <use x="405.615234" xlink:href="#ArialMT-57"/>
    <use x="461.230469" xlink:href="#ArialMT-32"/>
    <use x="489.013672" xlink:href="#ArialMT-67"/>
    <use x="561.230469" xlink:href="#ArialMT-97"/>
    <use x="616.845703" xlink:href="#ArialMT-115"/>
    <use x="666.845703" xlink:href="#ArialMT-101"/>
    <use x="722.460938" xlink:href="#ArialMT-32"/>
    <use x="750.244141" xlink:href="#ArialMT-83"/>
    <use x="816.943359" xlink:href="#ArialMT-117"/>
    <use x="872.558594" xlink:href="#ArialMT-114"/>
    <use x="905.859375" xlink:href="#ArialMT-118"/>
    <use x="955.859375" xlink:href="#ArialMT-101"/>
    <use x="1011.474609" xlink:href="#ArialMT-105"/>
    <use x="1033.691406" xlink:href="#ArialMT-108"/>
    <use x="1055.908203" xlink:href="#ArialMT-108"/>
    <use x="1078.125" xlink:href="#ArialMT-97"/>
    <use x="1133.740234" xlink:href="#ArialMT-110"/>
    <use x="1189.355469" xlink:href="#ArialMT-99"/>
    <use x="1239.355469" xlink:href="#ArialMT-101"/>
    <use x="1294.970703" xlink:href="#ArialMT-32"/>
    <use x="1322.753906" xlink:href="#ArialMT-80"/>
    <use x="1389.453125" xlink:href="#ArialMT-117"/>
    <use x="1445.068359" xlink:href="#ArialMT-98"/>
    <use x="1500.683594" xlink:href="#ArialMT-108"/>
    <use x="1522.900391" xlink:href="#ArialMT-105"/>
    <use x="1545.117188" xlink:href="#ArialMT-99"/>
    <use x="1595.117188" xlink:href="#ArialMT-32"/>
    <use x="1622.900391" xlink:href="#ArialMT-68"/>
    <use x="1695.117188" xlink:href="#ArialMT-97"/>
    <use x="1750.732422" xlink:href="#ArialMT-116"/>
    <use x="1778.515625" xlink:href="#ArialMT-97"/>
    <use x="1834.130859" xlink:href="#ArialMT-32"/>
    <use x="1856.414062" xlink:href="#ArialMT-65"/>
    <use x="1923.113281" xlink:href="#ArialMT-99"/>
    <use x="1973.113281" xlink:href="#ArialMT-99"/>
    <use x="2023.113281" xlink:href="#ArialMT-101"/>
    <use x="2078.728516" xlink:href="#ArialMT-115"/>
    <use x="2128.728516" xlink:href="#ArialMT-115"/>
    <use x="2178.728516" xlink:href="#ArialMT-44"/>
    <use x="2206.511719" xlink:href="#ArialMT-32"/>
    <use x="2234.294922" xlink:href="#ArialMT-83"/>
    <use x="2300.994141" xlink:href="#ArialMT-117"/>
    <use x="2356.609375" xlink:href="#ArialMT-109"/>
    <use x="2439.910156" xlink:href="#ArialMT-109"/>
    <use x="2523.210938" xlink:href="#ArialMT-97"/>
    <use x="2578.826172" xlink:href="#ArialMT-114"/>
    <use x="2612.126953" xlink:href="#ArialMT-121"/>
    <use x="2654.751953" xlink:href="#ArialMT-44"/>
    <use x="2682.535156" xlink:href="#ArialMT-32"/>
    <use x="2710.318359" xlink:href="#ArialMT-97"/>
    <use x="2765.933594" xlink:href="#ArialMT-110"/>
    <use x="2821.548828" xlink:href="#ArialMT-100"/>
    <use x="2877.164062" xlink:href="#ArialMT-32"/>
    <use x="2904.947266" xlink:href="#ArialMT-76"/>
    <use x="2960.5625" xlink:href="#ArialMT-105"/>
    <use x="2982.779297" xlink:href="#ArialMT-109"/>
    <use x="3066.080078" xlink:href="#ArialMT-105"/>
    <use x="3088.296875" xlink:href="#ArialMT-116"/>
    <use x="3116.080078" xlink:href="#ArialMT-97"/>
    <use x="3171.695312" xlink:href="#ArialMT-116"/>
    <use x="3199.478516" xlink:href="#ArialMT-105"/>
    <use x="3221.695312" xlink:href="#ArialMT-111"/>
    <use x="3277.310547" xlink:href="#ArialMT-110"/>
    <use x="3332.925781" xlink:href="#ArialMT-115"/>
   </g>
   <!-- (version date: October 31, 2020) -->
   <g transform="translate(116.28525 112.012616)scale(0.16 -0.16)">
    <defs>
     <path d="M 23.390625 -21.046875 
Q 16.109375 -11.859375 11.078125 0.4375 
Q 6.0625 12.75 6.0625 25.921875 
Q 6.0625 37.546875 9.8125 48.1875 
Q 14.203125 60.546875 23.390625 72.796875 
L 29.6875 72.796875 
Q 23.78125 62.640625 21.875 58.296875 
Q 18.890625 51.5625 17.1875 44.234375 
Q 15.09375 35.109375 15.09375 25.875 
Q 15.09375 2.390625 29.6875 -21.046875 
z
" id="ArialMT-40"/>
     <path d="M 9.03125 41.84375 
L 9.03125 51.859375 
L 19.046875 51.859375 
L 19.046875 41.84375 
z
M 9.03125 0 
L 9.03125 10.015625 
L 19.046875 10.015625 
L 19.046875 0 
z
" id="ArialMT-58"/>
     <path d="M 4.203125 18.890625 
L 12.984375 20.0625 
Q 14.5 12.59375 18.140625 9.296875 
Q 21.78125 6 27 6 
Q 33.203125 6 37.46875 10.296875 
Q 41.75 14.59375 41.75 20.953125 
Q 41.75 27 37.796875 30.921875 
Q 33.84375 34.859375 27.734375 34.859375 
Q 25.25 34.859375 21.53125 33.890625 
L 22.515625 41.609375 
Q 23.390625 41.5 23.921875 41.5 
Q 29.546875 41.5 34.03125 44.421875 
Q 38.53125 47.359375 38.53125 53.46875 
Q 38.53125 58.296875 35.25 61.46875 
Q 31.984375 64.65625 26.8125 64.65625 
Q 21.6875 64.65625 18.265625 61.421875 
Q 14.84375 58.203125 13.875 51.765625 
L 5.078125 53.328125 
Q 6.6875 62.15625 12.390625 67.015625 
Q 18.109375 71.875 26.609375 71.875 
Q 32.46875 71.875 37.390625 69.359375 
Q 42.328125 66.84375 44.9375 62.5 
Q 47.5625 58.15625 47.5625 53.265625 
Q 47.5625 48.640625 45.0625 44.828125 
Q 42.578125 41.015625 37.703125 38.765625 
Q 44.046875 37.3125 47.5625 32.6875 
Q 51.078125 28.078125 51.078125 21.140625 
Q 51.078125 11.765625 44.234375 5.25 
Q 37.40625 -1.265625 26.953125 -1.265625 
Q 17.53125 -1.265625 11.296875 4.34375 
Q 5.078125 9.96875 4.203125 18.890625 
z
" id="ArialMT-51"/>
     <path d="M 50.34375 8.453125 
L 50.34375 0 
L 3.03125 0 
Q 2.9375 3.171875 4.046875 6.109375 
Q 5.859375 10.9375 9.828125 15.625 
Q 13.8125 20.3125 21.34375 26.46875 
Q 33.015625 36.03125 37.109375 41.625 
Q 41.21875 47.21875 41.21875 52.203125 
Q 41.21875 57.421875 37.46875 61 
Q 33.734375 64.59375 27.734375 64.59375 
Q 21.390625 64.59375 17.578125 60.78125 
Q 13.765625 56.984375 13.71875 50.25 
L 4.6875 51.171875 
Q 5.609375 61.28125 11.65625 66.578125 
Q 17.71875 71.875 27.9375 71.875 
Q 38.234375 71.875 44.234375 66.15625 
Q 50.25 60.453125 50.25 52 
Q 50.25 47.703125 48.484375 43.546875 
Q 46.734375 39.40625 42.65625 34.8125 
Q 38.578125 30.21875 29.109375 22.21875 
Q 21.1875 15.578125 18.9375 13.203125 
Q 16.703125 10.84375 15.234375 8.453125 
z
" id="ArialMT-50"/>
     <path d="M 4.15625 35.296875 
Q 4.15625 48 6.765625 55.734375 
Q 9.375 63.484375 14.515625 67.671875 
Q 19.671875 71.875 27.484375 71.875 
Q 33.25 71.875 37.59375 69.546875 
Q 41.9375 67.234375 44.765625 62.859375 
Q 47.609375 58.5 49.21875 52.21875 
Q 50.828125 45.953125 50.828125 35.296875 
Q 50.828125 22.703125 48.234375 14.96875 
Q 45.65625 7.234375 40.5 3 
Q 35.359375 -1.21875 27.484375 -1.21875 
Q 17.140625 -1.21875 11.234375 6.203125 
Q 4.15625 15.140625 4.15625 35.296875 
z
M 13.1875 35.296875 
Q 13.1875 17.671875 17.3125 11.828125 
Q 21.4375 6 27.484375 6 
Q 33.546875 6 37.671875 11.859375 
Q 41.796875 17.71875 41.796875 35.296875 
Q 41.796875 52.984375 37.671875 58.78125 
Q 33.546875 64.59375 27.390625 64.59375 
Q 21.34375 64.59375 17.71875 59.46875 
Q 13.1875 52.9375 13.1875 35.296875 
z
" id="ArialMT-48"/>
     <path d="M 12.359375 -21.046875 
L 6.0625 -21.046875 
Q 20.65625 2.390625 20.65625 25.875 
Q 20.65625 35.0625 18.5625 44.09375 
Q 16.890625 51.421875 13.921875 58.15625 
Q 12.015625 62.546875 6.0625 72.796875 
L 12.359375 72.796875 
Q 21.53125 60.546875 25.921875 48.1875 
Q 29.6875 37.546875 29.6875 25.921875 
Q 29.6875 12.75 24.625 0.4375 
Q 19.578125 -11.859375 12.359375 -21.046875 
z
" id="ArialMT-41"/>
    </defs>
    <use xlink:href="#ArialMT-40"/>
    <use x="33.300781" xlink:href="#ArialMT-118"/>
    <use x="83.300781" xlink:href="#ArialMT-101"/>
    <use x="138.916016" xlink:href="#ArialMT-114"/>
    <use x="172.216797" xlink:href="#ArialMT-115"/>
    <use x="222.216797" xlink:href="#ArialMT-105"/>
    <use x="244.433594" xlink:href="#ArialMT-111"/>
    <use x="300.048828" xlink:href="#ArialMT-110"/>
    <use x="355.664062" xlink:href="#ArialMT-32"/>
    <use x="383.447266" xlink:href="#ArialMT-100"/>
    <use x="439.0625" xlink:href="#ArialMT-97"/>
    <use x="494.677734" xlink:href="#ArialMT-116"/>
    <use x="522.460938" xlink:href="#ArialMT-101"/>
    <use x="578.076172" xlink:href="#ArialMT-58"/>
    <use x="605.859375" xlink:href="#ArialMT-32"/>
    <use x="633.642578" xlink:href="#ArialMT-79"/>
    <use x="711.425781" xlink:href="#ArialMT-99"/>
    <use x="761.425781" xlink:href="#ArialMT-116"/>
    <use x="789.208984" xlink:href="#ArialMT-111"/>
    <use x="844.824219" xlink:href="#ArialMT-98"/>
    <use x="900.439453" xlink:href="#ArialMT-101"/>
    <use x="956.054688" xlink:href="#ArialMT-114"/>
    <use x="989.355469" xlink:href="#ArialMT-32"/>
    <use x="1017.138672" xlink:href="#ArialMT-51"/>
    <use x="1072.753906" xlink:href="#ArialMT-49"/>
    <use x="1128.369141" xlink:href="#ArialMT-44"/>
    <use x="1156.152344" xlink:href="#ArialMT-32"/>
    <use x="1183.935547" xlink:href="#ArialMT-50"/>
    <use x="1239.550781" xlink:href="#ArialMT-48"/>
    <use x="1295.166016" xlink:href="#ArialMT-50"/>
    <use x="1350.78125" xlink:href="#ArialMT-48"/>
    <use x="1406.396484" xlink:href="#ArialMT-41"/>
   </g>
   <!-- Total Cases Logged = 5,760,066 -->
   <g transform="translate(116.28525 129.357116)scale(0.16 -0.16)">
    <defs>
     <path d="M 25.921875 0 
L 25.921875 63.140625 
L 2.34375 63.140625 
L 2.34375 71.578125 
L 59.078125 71.578125 
L 59.078125 63.140625 
L 35.40625 63.140625 
L 35.40625 0 
z
" id="ArialMT-84"/>
     <path d="M 4.984375 -4.296875 
L 13.53125 -5.5625 
Q 14.0625 -9.515625 16.5 -11.328125 
Q 19.78125 -13.765625 25.4375 -13.765625 
Q 31.546875 -13.765625 34.859375 -11.328125 
Q 38.1875 -8.890625 39.359375 -4.5 
Q 40.046875 -1.8125 39.984375 6.78125 
Q 34.234375 0 25.640625 0 
Q 14.9375 0 9.078125 7.71875 
Q 3.21875 15.4375 3.21875 26.21875 
Q 3.21875 33.640625 5.90625 39.90625 
Q 8.59375 46.1875 13.6875 49.609375 
Q 18.796875 53.03125 25.6875 53.03125 
Q 34.859375 53.03125 40.828125 45.609375 
L 40.828125 51.859375 
L 48.921875 51.859375 
L 48.921875 7.03125 
Q 48.921875 -5.078125 46.453125 -10.125 
Q 44 -15.1875 38.640625 -18.109375 
Q 33.296875 -21.046875 25.484375 -21.046875 
Q 16.21875 -21.046875 10.5 -16.875 
Q 4.78125 -12.703125 4.984375 -4.296875 
z
M 12.25 26.859375 
Q 12.25 16.65625 16.296875 11.96875 
Q 20.359375 7.28125 26.46875 7.28125 
Q 32.515625 7.28125 36.609375 11.9375 
Q 40.71875 16.609375 40.71875 26.5625 
Q 40.71875 36.078125 36.5 40.90625 
Q 32.28125 45.75 26.3125 45.75 
Q 20.453125 45.75 16.34375 40.984375 
Q 12.25 36.234375 12.25 26.859375 
z
" id="ArialMT-103"/>
     <path d="M 52.828125 42.09375 
L 5.5625 42.09375 
L 5.5625 50.296875 
L 52.828125 50.296875 
z
M 52.828125 20.359375 
L 5.5625 20.359375 
L 5.5625 28.5625 
L 52.828125 28.5625 
z
" id="ArialMT-61"/>
     <path d="M 4.15625 18.75 
L 13.375 19.53125 
Q 14.40625 12.796875 18.140625 9.390625 
Q 21.875 6 27.15625 6 
Q 33.5 6 37.890625 10.78125 
Q 42.28125 15.578125 42.28125 23.484375 
Q 42.28125 31 38.0625 35.34375 
Q 33.84375 39.703125 27 39.703125 
Q 22.75 39.703125 19.328125 37.765625 
Q 15.921875 35.84375 13.96875 32.765625 
L 5.71875 33.84375 
L 12.640625 70.609375 
L 48.25 70.609375 
L 48.25 62.203125 
L 19.671875 62.203125 
L 15.828125 42.96875 
Q 22.265625 47.46875 29.34375 47.46875 
Q 38.71875 47.46875 45.15625 40.96875 
Q 51.609375 34.46875 51.609375 24.265625 
Q 51.609375 14.546875 45.953125 7.46875 
Q 39.0625 -1.21875 27.15625 -1.21875 
Q 17.390625 -1.21875 11.203125 4.25 
Q 5.03125 9.71875 4.15625 18.75 
z
" id="ArialMT-53"/>
     <path d="M 4.734375 62.203125 
L 4.734375 70.65625 
L 51.078125 70.65625 
L 51.078125 63.8125 
Q 44.234375 56.546875 37.515625 44.484375 
Q 30.8125 32.421875 27.15625 19.671875 
Q 24.515625 10.6875 23.78125 0 
L 14.75 0 
Q 14.890625 8.453125 18.0625 20.40625 
Q 21.234375 32.375 27.171875 43.484375 
Q 33.109375 54.59375 39.796875 62.203125 
z
" id="ArialMT-55"/>
     <path d="M 49.75 54.046875 
L 41.015625 53.375 
Q 39.84375 58.546875 37.703125 60.890625 
Q 34.125 64.65625 28.90625 64.65625 
Q 24.703125 64.65625 21.53125 62.3125 
Q 17.390625 59.28125 14.984375 53.46875 
Q 12.59375 47.65625 12.5 36.921875 
Q 15.671875 41.75 20.265625 44.09375 
Q 24.859375 46.4375 29.890625 46.4375 
Q 38.671875 46.4375 44.84375 39.96875 
Q 51.03125 33.5 51.03125 23.25 
Q 51.03125 16.5 48.125 10.71875 
Q 45.21875 4.9375 40.140625 1.859375 
Q 35.0625 -1.21875 28.609375 -1.21875 
Q 17.625 -1.21875 10.6875 6.859375 
Q 3.765625 14.9375 3.765625 33.5 
Q 3.765625 54.25 11.421875 63.671875 
Q 18.109375 71.875 29.4375 71.875 
Q 37.890625 71.875 43.28125 67.140625 
Q 48.6875 62.40625 49.75 54.046875 
z
M 13.875 23.1875 
Q 13.875 18.65625 15.796875 14.5 
Q 17.71875 10.359375 21.1875 8.171875 
Q 24.65625 6 28.46875 6 
Q 34.03125 6 38.03125 10.484375 
Q 42.046875 14.984375 42.046875 22.703125 
Q 42.046875 30.125 38.078125 34.390625 
Q 34.125 38.671875 28.125 38.671875 
Q 22.171875 38.671875 18.015625 34.390625 
Q 13.875 30.125 13.875 23.1875 
z
" id="ArialMT-54"/>
    </defs>
    <use xlink:href="#ArialMT-84"/>
    <use x="49.958984" xlink:href="#ArialMT-111"/>
    <use x="105.574219" xlink:href="#ArialMT-116"/>
    <use x="133.357422" xlink:href="#ArialMT-97"/>
    <use x="188.972656" xlink:href="#ArialMT-108"/>
    <use x="211.189453" xlink:href="#ArialMT-32"/>
    <use x="238.972656" xlink:href="#ArialMT-67"/>
    <use x="311.189453" xlink:href="#ArialMT-97"/>
    <use x="366.804688" xlink:href="#ArialMT-115"/>
    <use x="416.804688" xlink:href="#ArialMT-101"/>
    <use x="472.419922" xlink:href="#ArialMT-115"/>
    <use x="522.419922" xlink:href="#ArialMT-32"/>
    <use x="550.203125" xlink:href="#ArialMT-76"/>
    <use x="605.818359" xlink:href="#ArialMT-111"/>
    <use x="661.433594" xlink:href="#ArialMT-103"/>
    <use x="717.048828" xlink:href="#ArialMT-103"/>
    <use x="772.664062" xlink:href="#ArialMT-101"/>
    <use x="828.279297" xlink:href="#ArialMT-100"/>
    <use x="883.894531" xlink:href="#ArialMT-32"/>
    <use x="911.677734" xlink:href="#ArialMT-61"/>
    <use x="970.076172" xlink:href="#ArialMT-32"/>
    <use x="997.859375" xlink:href="#ArialMT-53"/>
    <use x="1053.474609" xlink:href="#ArialMT-44"/>
    <use x="1081.257812" xlink:href="#ArialMT-55"/>
    <use x="1136.873047" xlink:href="#ArialMT-54"/>
    <use x="1192.488281" xlink:href="#ArialMT-48"/>
    <use x="1248.103516" xlink:href="#ArialMT-44"/>
    <use x="1275.886719" xlink:href="#ArialMT-48"/>
    <use x="1331.501953" xlink:href="#ArialMT-54"/>
    <use x="1387.117188" xlink:href="#ArialMT-54"/>
   </g>
  </g>
 </g>
 <defs>
  <clipPath id="pe1305bfc97">
   <rect height="547.692094" width="948.525" x="106.8" y="44.507906"/>
  </clipPath>
 </defs>
</svg>
